<svg width="30" height="31" viewBox="0 0 30 31" fill="none" xmlns="http://www.w3.org/2000/svg">
<path d="M28.2 15.8125C28.2 14.8375 28.1125 13.9 27.95 13H15V18.3188H22.4C22.0813 20.0375 21.1125 21.4938 19.6563 22.4688V25.9187H24.1C26.7 23.525 28.2 20 28.2 15.8125Z" fill="#211C49"/>
<path d="M14.9999 29.2498C18.7124 29.2498 21.8249 28.0186 24.0999 25.9186L19.6562 22.4686C18.4249 23.2936 16.8499 23.7811 14.9999 23.7811C11.4187 23.7811 8.3874 21.3623 7.30615 18.1123H2.7124V21.6748C4.9749 26.1686 9.6249 29.2498 14.9999 29.2498Z" fill="#211C49"/>
<path d="M7.30625 18.1127C7.03125 17.2877 6.875 16.4064 6.875 15.5002C6.875 14.5939 7.03125 13.7127 7.30625 12.8877V9.3252H2.7125C1.75 11.2413 1.24915 13.356 1.25 15.5002C1.25 17.7189 1.78125 19.8189 2.7125 21.6752L7.30625 18.1127Z" fill="#211C49"/>
<path d="M14.9999 7.21875C17.0187 7.21875 18.8312 7.9125 20.2562 9.275L24.1999 5.33125C21.8187 3.1125 18.7062 1.75 14.9999 1.75C9.6249 1.75 4.9749 4.83125 2.7124 9.325L7.30615 12.8875C8.3874 9.6375 11.4187 7.21875 14.9999 7.21875Z" fill="#211C49"/>
</svg>
