<svg width="92" height="59" viewBox="0 0 92 59" fill="none" xmlns="http://www.w3.org/2000/svg">
<g opacity="0.9">
<mask id="mask0_29_515" style="mask-type:luminance" maskUnits="userSpaceOnUse" x="0" y="0" width="92" height="59">
<path d="M0 0.0723267H91.9994V58.6914H0V0.0723267Z" fill="white"/>
</mask>
<g mask="url(#mask0_29_515)">
<path d="M91.9272 3.71045V57.8432C91.9272 58.3308 91.5328 58.7167 91.0494 58.7167H0.898845C0.415442 58.7167 0.0168457 58.3308 0.0168457 57.8432V3.71045C0.0168457 3.23129 0.415442 2.84117 0.898845 2.84117H15.401V0.941483C15.401 0.46232 15.7996 0.0722046 16.283 0.0722046H75.6653C76.1487 0.0722046 76.5473 0.46232 76.5473 0.941483V2.84117H91.0494C91.5328 2.84117 91.9272 3.23129 91.9272 3.71045Z" fill="#CDC9CA"/>
</g>
</g>
<g opacity="0.9">
<mask id="mask1_29_515" style="mask-type:luminance" maskUnits="userSpaceOnUse" x="18" y="0" width="56" height="28">
<path d="M18.6174 0.0720215H73.9799V27.2995H18.6174V0.0720215Z" fill="white"/>
</mask>
<g mask="url(#mask1_29_515)">
<path d="M18.9209 0.0720215H73.024V24.6238C73.024 25.5822 72.2352 26.3666 71.2642 26.3666H20.6807C19.7138 26.3666 18.9209 25.5822 18.9209 24.6238V0.0720215Z" fill="#5D2D94"/>
</g>
</g>
<g opacity="0.9">
<mask id="mask2_29_515" style="mask-type:luminance" maskUnits="userSpaceOnUse" x="18" y="34" width="56" height="25">
<path d="M18.6174 34.8982H73.9799V58.691H18.6174V34.8982Z" fill="white"/>
</mask>
<g mask="url(#mask2_29_515)">
<path d="M20.6807 35.9117H71.2642C72.2352 35.9117 73.024 36.6962 73.024 37.6545V58.725H18.9209V37.6545C18.9209 36.6962 19.7138 35.9117 20.6807 35.9117Z" fill="#949191"/>
</g>
</g>
<g opacity="0.9">
<mask id="mask3_29_515" style="mask-type:luminance" maskUnits="userSpaceOnUse" x="0" y="2" width="17" height="11">
<path d="M0 2.33228H16.4484V12.1021H0V2.33228Z" fill="white"/>
</mask>
<g mask="url(#mask3_29_515)">
<path d="M0.898845 2.84955H15.401V11.1056H0.0168457V3.71883C0.0168457 3.23966 0.415442 2.84955 0.898845 2.84955Z" fill="#B3AFB0"/>
</g>
</g>
<g opacity="0.9">
<mask id="mask4_29_515" style="mask-type:luminance" maskUnits="userSpaceOnUse" x="0" y="12" width="17" height="9">
<path d="M0 12.1019H16.4484V20.7862H0V12.1019Z" fill="white"/>
</mask>
<g mask="url(#mask4_29_515)">
<path d="M0.0168457 12.3692H15.401V20.6252H0.0168457V12.3692Z" fill="#B3AFB0"/>
</g>
</g>
<g opacity="0.9">
<mask id="mask5_29_515" style="mask-type:luminance" maskUnits="userSpaceOnUse" x="0" y="21" width="17" height="10">
<path d="M0 21.8718H16.4484V30.5561H0V21.8718Z" fill="white"/>
</mask>
<g mask="url(#mask5_29_515)">
<path d="M0.0168457 21.8889H15.401V30.1449H0.0168457V21.8889Z" fill="#B3AFB0"/>
</g>
</g>
<g opacity="0.9">
<mask id="mask6_29_515" style="mask-type:luminance" maskUnits="userSpaceOnUse" x="0" y="30" width="17" height="11">
<path d="M0 30.5562H16.4484V40.326H0V30.5562Z" fill="white"/>
</mask>
<g mask="url(#mask6_29_515)">
<path d="M0.0168457 31.417H15.401V39.6773H0.0168457V31.417Z" fill="#B3AFB0"/>
</g>
</g>
<g opacity="0.9">
<mask id="mask7_29_515" style="mask-type:luminance" maskUnits="userSpaceOnUse" x="0" y="40" width="17" height="11">
<path d="M0 40.3259H16.4484V50.0958H0V40.3259Z" fill="white"/>
</mask>
<g mask="url(#mask7_29_515)">
<path d="M0.0168457 40.9366H15.401V49.1969H0.0168457V40.9366Z" fill="#B3AFB0"/>
</g>
</g>
<g opacity="0.9">
<mask id="mask8_29_515" style="mask-type:luminance" maskUnits="userSpaceOnUse" x="0" y="50" width="17" height="9">
<path d="M0 50.0959H16.4484V58.6912H0V50.0959Z" fill="white"/>
</mask>
<g mask="url(#mask8_29_515)">
<path d="M0.0168457 50.4606H15.401V58.7166H0.898845C0.415442 58.7166 0.0168457 58.3222 0.0168457 57.8431V50.4606Z" fill="#B3AFB0"/>
</g>
</g>
<path opacity="0.9" d="M10.2619 54.3787C10.2619 54.5865 10.2238 54.7858 10.1432 54.9766C10.0626 55.1674 9.94814 55.3328 9.79973 55.4812C9.65132 55.6254 9.4817 55.7399 9.29089 55.8204C9.09583 55.8968 8.89653 55.9392 8.68875 55.9392C8.47673 55.9392 8.27743 55.8968 8.08238 55.8204C7.89156 55.7399 7.72194 55.6254 7.57353 55.4812C7.42512 55.3328 7.31063 55.1674 7.23006 54.9766C7.15373 54.7858 7.11133 54.5865 7.11133 54.3787C7.11133 54.1709 7.15373 53.9716 7.23006 53.7808C7.31063 53.59 7.42512 53.4204 7.57353 53.2762C7.72194 53.1278 7.89156 53.0175 8.08238 52.937C8.27743 52.8606 8.47673 52.8182 8.68875 52.8182C8.89653 52.8182 9.09583 52.8606 9.29089 52.937C9.4817 53.0175 9.65132 53.1278 9.79973 53.2762C9.94814 53.4204 10.0626 53.59 10.1432 53.7808C10.2238 53.9716 10.2619 54.1709 10.2619 54.3787Z" fill="#949191"/>
<g opacity="0.9">
<mask id="mask9_29_515" style="mask-type:luminance" maskUnits="userSpaceOnUse" x="76" y="2" width="16" height="11">
<path d="M76.1531 2.33221H91.9994V12.1021H76.1531V2.33221Z" fill="white"/>
</mask>
<g mask="url(#mask9_29_515)">
<path d="M91.9363 11.0972H76.5564V2.84119H91.0585C91.5419 2.84119 91.9363 3.2313 91.9363 3.71047V11.0972Z" fill="#B3AFB0"/>
</g>
</g>
<g opacity="0.9">
<mask id="mask10_29_515" style="mask-type:luminance" maskUnits="userSpaceOnUse" x="76" y="12" width="16" height="9">
<path d="M76.1531 12.1021H91.9994V20.7864H76.1531V12.1021Z" fill="white"/>
</mask>
<g mask="url(#mask10_29_515)">
<path d="M91.9363 20.6252H76.5564V12.3692H91.9363V20.6252Z" fill="#B3AFB0"/>
</g>
</g>
<g opacity="0.9">
<mask id="mask11_29_515" style="mask-type:luminance" maskUnits="userSpaceOnUse" x="76" y="21" width="16" height="10">
<path d="M76.1531 21.8718H91.9994V30.5561H76.1531V21.8718Z" fill="white"/>
</mask>
<g mask="url(#mask11_29_515)">
<path d="M91.9363 30.1576H76.5564V21.8973H91.9363V30.1576Z" fill="#B3AFB0"/>
</g>
</g>
<g opacity="0.9">
<mask id="mask12_29_515" style="mask-type:luminance" maskUnits="userSpaceOnUse" x="76" y="30" width="16" height="11">
<path d="M76.1531 30.556H91.9994V40.3259H76.1531V30.556Z" fill="white"/>
</mask>
<g mask="url(#mask12_29_515)">
<path d="M91.9363 39.6687H76.5564V31.4084H91.9363V39.6687Z" fill="#B3AFB0"/>
</g>
</g>
<g opacity="0.9">
<mask id="mask13_29_515" style="mask-type:luminance" maskUnits="userSpaceOnUse" x="76" y="40" width="16" height="11">
<path d="M76.1531 40.326H91.9994V50.0959H76.1531V40.326Z" fill="white"/>
</mask>
<g mask="url(#mask13_29_515)">
<path d="M91.9363 49.1969H76.5564V40.9366H91.9363V49.1969Z" fill="#B3AFB0"/>
</g>
</g>
<g opacity="0.9">
<mask id="mask14_29_515" style="mask-type:luminance" maskUnits="userSpaceOnUse" x="76" y="50" width="16" height="9">
<path d="M76.1531 50.0958H91.9994V58.6911H76.1531V50.0958Z" fill="white"/>
</mask>
<g mask="url(#mask14_29_515)">
<path d="M91.0585 58.7249H76.5564V50.4689H91.9363V57.8556C91.9363 58.3305 91.5419 58.7249 91.0585 58.7249Z" fill="#B3AFB0"/>
</g>
</g>
<path opacity="0.9" d="M84.8459 54.3787C84.8459 54.5865 84.8035 54.7858 84.7229 54.9766C84.6424 55.1674 84.5321 55.3328 84.3837 55.4812C84.2353 55.6254 84.0657 55.7399 83.8706 55.8204C83.6798 55.8968 83.4763 55.9392 83.2685 55.9392C83.0607 55.9392 82.8572 55.8968 82.6664 55.8204C82.4713 55.7399 82.3017 55.6254 82.1533 55.4812C82.0091 55.3328 81.8946 55.1674 81.814 54.9766C81.7335 54.7858 81.6953 54.5865 81.6953 54.3787C81.6953 54.1709 81.7335 53.9716 81.814 53.7808C81.8946 53.59 82.0091 53.4204 82.1533 53.2762C82.3017 53.1278 82.4713 53.0175 82.6664 52.937C82.8572 52.8606 83.0607 52.8182 83.2685 52.8182C83.4763 52.8182 83.6798 52.8606 83.8706 52.937C84.0657 53.0175 84.2353 53.1278 84.3837 53.2762C84.5321 53.4204 84.6424 53.59 84.7229 53.7808C84.8035 53.9716 84.8459 54.1709 84.8459 54.3787Z" fill="#949191"/>
<path opacity="0.9" d="M73.023 8.37893L18.9199 24.7977V18.0555L73.023 1.63672V8.37893Z" fill="#7C4DB3"/>
<g opacity="0.9">
<mask id="mask15_29_515" style="mask-type:luminance" maskUnits="userSpaceOnUse" x="34" y="0" width="18" height="18">
<path d="M34.1802 0H51.1841V17.5297H34.1802V0Z" fill="white"/>
</mask>
<g mask="url(#mask15_29_515)">
<path d="M34.2712 13.8404C34.2712 14.663 34.356 15.4814 34.5341 16.2829C34.5893 16.5373 34.8098 16.7154 35.0727 16.7154H35.0769C35.3356 16.7154 35.5561 16.5331 35.6112 16.2786C36.595 11.7245 40.5809 8.37456 45.2029 8.12014V9.68484C45.2029 9.90534 45.3344 10.1089 45.5422 10.1937C45.75 10.2827 45.9874 10.2318 46.1443 10.075L50.6985 5.51654C50.8045 5.41053 50.8596 5.27484 50.8596 5.12643C50.8596 4.98225 50.8045 4.84232 50.6985 4.73631L46.1443 0.186379C45.9874 0.0294842 45.75 -0.0213994 45.5422 0.0676484C45.3344 0.152457 45.2029 0.355996 45.2029 0.576494V2.37442C39.1222 2.65852 34.2712 7.6961 34.2712 13.8404Z" fill="white"/>
</g>
</g>
<g opacity="0.9">
<mask id="mask16_29_515" style="mask-type:luminance" maskUnits="userSpaceOnUse" x="40" y="9" width="18" height="19">
<path d="M40.332 9.93097H57.7006V27.6812H40.332V9.93097Z" fill="white"/>
</mask>
<g mask="url(#mask16_29_515)">
<path d="M46.3049 27.1045V25.3066C52.3814 25.0225 57.2366 19.9849 57.2366 13.8406C57.2366 13.018 57.1476 12.1953 56.9737 11.3982C56.9186 11.1437 56.6896 10.9656 56.431 10.9656C56.1723 10.9656 55.9476 11.148 55.8924 11.4024C54.9087 15.9566 50.9269 19.3065 46.3049 19.5609V17.9962C46.3049 17.7757 46.1735 17.5722 45.9615 17.4873C45.7579 17.3983 45.5205 17.4492 45.3593 17.6061L40.8051 22.1645C40.7034 22.2705 40.6398 22.4062 40.6398 22.5546C40.6398 22.6988 40.7034 22.8387 40.8051 22.9447L45.3593 27.4947C45.4653 27.6007 45.6095 27.6558 45.7537 27.6558C45.8258 27.6558 45.8978 27.6473 45.9615 27.6134C46.1735 27.5286 46.3049 27.325 46.3049 27.1045Z" fill="white"/>
</g>
</g>
</svg>
