<svg width="19" height="19" viewBox="0 0 19 19" fill="none" xmlns="http://www.w3.org/2000/svg">
<g clip-path="url(#clip0_871_3224)">
<path d="M16.5094 9.22235V9.91278C16.5084 11.5311 15.9844 13.1058 15.0154 14.4019C14.0464 15.6981 12.6844 16.6463 11.1325 17.1052C9.58061 17.564 7.92195 17.5089 6.40391 16.9481C4.88587 16.3873 3.58979 15.3507 2.70897 13.9931C1.82815 12.6355 1.40979 11.0295 1.51627 9.41471C1.62275 7.79989 2.24837 6.26275 3.29983 5.03254C4.35129 3.80234 5.77225 2.94498 7.35079 2.58833C8.92933 2.23168 10.5809 2.39485 12.0591 3.05351M16.5094 3.90904L9.00468 11.4212L6.75328 9.16982" stroke="#5BAF65" stroke-width="1.50094" stroke-linecap="round" stroke-linejoin="round"/>
</g>
<defs>
<clipPath id="clip0_871_3224">
<rect width="18.0112" height="18.0112" fill="white" transform="translate(0 0.907227)"/>
</clipPath>
</defs>
</svg>
