<svg width="90" height="57" viewBox="0 0 90 57" fill="none" xmlns="http://www.w3.org/2000/svg">
<g opacity="0.9">
<mask id="mask0_6_968" style="mask-type:luminance" maskUnits="userSpaceOnUse" x="-1" y="0" width="91" height="57">
<path d="M-0.00158691 0.0620117H89.3594V57H-0.00158691V0.0620117Z" fill="white"/>
</mask>
<g mask="url(#mask0_6_968)">
<path d="M89.289 3.59592V56.1762C89.289 56.6499 88.9059 57.0247 88.4364 57.0247H0.871232C0.401691 57.0247 0.0145264 56.6499 0.0145264 56.1762V3.59592C0.0145264 3.1305 0.401691 2.75157 0.871232 2.75157H14.9574V0.906361C14.9574 0.440939 15.3405 0.0620117 15.8141 0.0620117H73.4935C73.963 0.0620117 74.3461 0.440939 74.3461 0.906361V2.75157H88.4364C88.9059 2.75157 89.289 3.1305 89.289 3.59592Z" fill="#CDC9CA"/>
</g>
</g>
<g opacity="0.9">
<mask id="mask1_6_968" style="mask-type:luminance" maskUnits="userSpaceOnUse" x="17" y="0" width="55" height="26">
<path d="M17.3953 0.0620117H71.17V25.9526H17.3953V0.0620117Z" fill="white"/>
</mask>
<g mask="url(#mask1_6_968)">
<path d="M18.3777 0.0620117H70.9291V23.9097C70.9291 24.8406 70.163 25.6025 69.2198 25.6025H20.087C19.1479 25.6025 18.3777 24.8406 18.3777 23.9097V0.0620117Z" fill="#5D2D94"/>
</g>
</g>
<g opacity="0.9">
<mask id="mask2_6_968" style="mask-type:luminance" maskUnits="userSpaceOnUse" x="17" y="34" width="55" height="23">
<path d="M17.3953 34.3879H71.17V57H17.3953V34.3879Z" fill="white"/>
</mask>
<g mask="url(#mask2_6_968)">
<path d="M20.087 34.8739H69.2198C70.163 34.8739 70.9291 35.6359 70.9291 36.5667V57.0329H18.3777V36.5667C18.3777 35.6359 19.1479 34.8739 20.087 34.8739Z" fill="#949191"/>
</g>
</g>
<g opacity="0.9">
<mask id="mask3_6_968" style="mask-type:luminance" maskUnits="userSpaceOnUse" x="-1" y="2" width="17" height="10">
<path d="M-0.00158691 2.75568H15.2873V11.1909H-0.00158691V2.75568Z" fill="white"/>
</mask>
<g mask="url(#mask3_6_968)">
<path d="M0.871232 2.75989H14.9574V10.7791H0.0145264V3.60424C0.0145264 3.13881 0.401691 2.75989 0.871232 2.75989Z" fill="#B3AFB0"/>
</g>
</g>
<g opacity="0.9">
<mask id="mask4_6_968" style="mask-type:luminance" maskUnits="userSpaceOnUse" x="-1" y="11" width="17" height="10">
<path d="M-0.00158691 11.1909H15.2873V20.6806H-0.00158691V11.1909Z" fill="white"/>
</mask>
<g mask="url(#mask4_6_968)">
<path d="M0.0145264 12.0065H14.9574V20.0257H0.0145264V12.0065Z" fill="#B3AFB0"/>
</g>
</g>
<g opacity="0.9">
<mask id="mask5_6_968" style="mask-type:luminance" maskUnits="userSpaceOnUse" x="-1" y="20" width="17" height="11">
<path d="M-0.00158691 20.6805H15.2873V30.1702H-0.00158691V20.6805Z" fill="white"/>
</mask>
<g mask="url(#mask5_6_968)">
<path d="M0.0145264 21.2532H14.9574V29.2724H0.0145264V21.2532Z" fill="#B3AFB0"/>
</g>
</g>
<g opacity="0.9">
<mask id="mask6_6_968" style="mask-type:luminance" maskUnits="userSpaceOnUse" x="-1" y="30" width="17" height="9">
<path d="M-0.00158691 30.1702H15.2873V38.6054H-0.00158691V30.1702Z" fill="white"/>
</mask>
<g mask="url(#mask6_6_968)">
<path d="M0.0145264 30.5079H14.9574V38.5313H0.0145264V30.5079Z" fill="#B3AFB0"/>
</g>
</g>
<g opacity="0.9">
<mask id="mask7_6_968" style="mask-type:luminance" maskUnits="userSpaceOnUse" x="-1" y="39" width="17" height="10">
<path d="M-0.00158691 39.6599H15.2873V48.0952H-0.00158691V39.6599Z" fill="white"/>
</mask>
<g mask="url(#mask7_6_968)">
<path d="M0.0145264 39.7548H14.9574V47.7781H0.0145264V39.7548Z" fill="#B3AFB0"/>
</g>
</g>
<g opacity="0.9">
<mask id="mask8_6_968" style="mask-type:luminance" maskUnits="userSpaceOnUse" x="-1" y="48" width="17" height="9">
<path d="M-0.00158691 48.0952H15.2873V57H-0.00158691V48.0952Z" fill="white"/>
</mask>
<g mask="url(#mask8_6_968)">
<path d="M0.0145264 49.0054H14.9574V57.0246H0.871232C0.401691 57.0246 0.0145264 56.6416 0.0145264 56.1762V49.0054Z" fill="#B3AFB0"/>
</g>
</g>
<path opacity="0.9" d="M9.9665 52.8111C9.9665 53.0129 9.92943 53.2065 9.85117 53.3919C9.77292 53.5772 9.66171 53.7378 9.51755 53.882C9.3734 54.022 9.20865 54.1332 9.0233 54.2115C8.83384 54.2856 8.64025 54.3268 8.43843 54.3268C8.2325 54.3268 8.03891 54.2856 7.84945 54.2115C7.6641 54.1332 7.49935 54.022 7.3552 53.882C7.21104 53.7378 7.09983 53.5772 7.02158 53.3919C6.94744 53.2065 6.90625 53.0129 6.90625 52.8111C6.90625 52.6093 6.94744 52.4157 7.02158 52.2304C7.09983 52.045 7.21104 51.8803 7.3552 51.7402C7.49935 51.5961 7.6641 51.489 7.84945 51.4107C8.03891 51.3366 8.2325 51.2954 8.43843 51.2954C8.64025 51.2954 8.83384 51.3366 9.0233 51.4107C9.20865 51.489 9.3734 51.5961 9.51755 51.7402C9.66171 51.8803 9.77292 52.045 9.85117 52.2304C9.92943 52.4157 9.9665 52.6093 9.9665 52.8111Z" fill="#949191"/>
<g opacity="0.9">
<mask id="mask9_6_968" style="mask-type:luminance" maskUnits="userSpaceOnUse" x="74" y="1" width="16" height="11">
<path d="M74.335 1.70129H89.3603V11.191H74.335V1.70129Z" fill="white"/>
</mask>
<g mask="url(#mask9_6_968)">
<path d="M89.2982 10.7707H74.3594V2.75146H88.4456C88.9151 2.75146 89.2982 3.13039 89.2982 3.59581V10.7707Z" fill="#B3AFB0"/>
</g>
</g>
<g opacity="0.9">
<mask id="mask10_6_968" style="mask-type:luminance" maskUnits="userSpaceOnUse" x="74" y="11" width="16" height="10">
<path d="M74.335 11.1909H89.3603V20.6806H74.335V11.1909Z" fill="white"/>
</mask>
<g mask="url(#mask10_6_968)">
<path d="M89.2982 20.0257H74.3594V12.0065H89.2982V20.0257Z" fill="#B3AFB0"/>
</g>
</g>
<g opacity="0.9">
<mask id="mask11_6_968" style="mask-type:luminance" maskUnits="userSpaceOnUse" x="74" y="20" width="16" height="11">
<path d="M74.335 20.6805H89.3603V30.1702H74.335V20.6805Z" fill="white"/>
</mask>
<g mask="url(#mask11_6_968)">
<path d="M89.2982 29.2848H74.3594V21.2615H89.2982V29.2848Z" fill="#B3AFB0"/>
</g>
</g>
<g opacity="0.9">
<mask id="mask12_6_968" style="mask-type:luminance" maskUnits="userSpaceOnUse" x="74" y="30" width="16" height="9">
<path d="M74.335 30.1702H89.3603V38.6054H74.335V30.1702Z" fill="white"/>
</mask>
<g mask="url(#mask12_6_968)">
<path d="M89.2982 38.5231H74.3594V30.4998H89.2982V38.5231Z" fill="#B3AFB0"/>
</g>
</g>
<g opacity="0.9">
<mask id="mask13_6_968" style="mask-type:luminance" maskUnits="userSpaceOnUse" x="74" y="39" width="16" height="10">
<path d="M74.335 39.6599H89.3603V48.0952H74.335V39.6599Z" fill="white"/>
</mask>
<g mask="url(#mask13_6_968)">
<path d="M89.2982 47.7781H74.3594V39.7548H89.2982V47.7781Z" fill="#B3AFB0"/>
</g>
</g>
<g opacity="0.9">
<mask id="mask14_6_968" style="mask-type:luminance" maskUnits="userSpaceOnUse" x="74" y="48" width="16" height="9">
<path d="M74.335 48.0952H89.3603V57H74.335V48.0952Z" fill="white"/>
</mask>
<g mask="url(#mask14_6_968)">
<path d="M88.4456 57.033H74.3594V49.0138H89.2982V56.1887C89.2982 56.65 88.9151 57.033 88.4456 57.033Z" fill="#B3AFB0"/>
</g>
</g>
<path opacity="0.9" d="M82.4118 52.8111C82.4118 53.0129 82.3706 53.2065 82.2924 53.3919C82.2141 53.5772 82.107 53.7378 81.9629 53.882C81.8187 54.022 81.654 54.1332 81.4645 54.2115C81.2791 54.2856 81.0814 54.3268 80.8796 54.3268C80.6778 54.3268 80.4801 54.2856 80.2948 54.2115C80.1053 54.1332 79.9405 54.022 79.7964 53.882C79.6564 53.7378 79.5451 53.5772 79.4669 53.3919C79.3886 53.2065 79.3516 53.0129 79.3516 52.8111C79.3516 52.6093 79.3886 52.4157 79.4669 52.2304C79.5451 52.045 79.6564 51.8803 79.7964 51.7402C79.9405 51.5961 80.1053 51.489 80.2948 51.4107C80.4801 51.3366 80.6778 51.2954 80.8796 51.2954C81.0814 51.2954 81.2791 51.3366 81.4645 51.4107C81.654 51.489 81.8187 51.5961 81.9629 51.7402C82.107 51.8803 82.2141 52.045 82.2924 52.2304C82.3706 52.4157 82.4118 52.6093 82.4118 52.8111Z" fill="#949191"/>
<path opacity="0.9" d="M70.9284 8.13064L18.377 24.0785V17.5297L70.9284 1.58179V8.13064Z" fill="#7C4DB3"/>
<g opacity="0.9">
<mask id="mask15_6_968" style="mask-type:luminance" maskUnits="userSpaceOnUse" x="57" y="6" width="13" height="18">
<path d="M57.4641 6.97345H69.0296V23.844H57.4641V6.97345Z" fill="white"/>
</mask>
<g mask="url(#mask15_6_968)">
<path d="M68.7989 11.0509L67.3614 7.81766L67.8557 10.8491C67.9133 11.228 67.8845 11.5987 67.7651 11.9611C67.6415 12.3236 67.4479 12.6407 67.1761 12.9085L58.0777 22.0068L61.5086 23.5143C61.6528 23.5884 61.8052 23.6255 61.9658 23.6255C62.4271 23.6173 62.7649 23.4113 62.9749 22.9995L68.77 12.1053C68.9554 11.7593 68.9677 11.4092 68.7989 11.0509Z" fill="white"/>
</g>
</g>
<path opacity="0.9" d="M54.0553 10.5318C54.2859 10.4865 54.4795 10.3794 54.6401 10.2105C54.809 10.0499 54.9161 9.85633 54.9614 9.6298C54.9902 9.51447 54.9696 9.4115 54.8996 9.31265C54.8378 9.26322 54.7678 9.23851 54.6854 9.24263C54.6525 9.24263 54.6195 9.24675 54.5866 9.25087C54.3601 9.30441 54.1665 9.4115 54.0017 9.57625C53.8411 9.73688 53.734 9.93047 53.6805 10.157C53.631 10.2764 53.6516 10.3794 53.7422 10.4741C53.8329 10.5648 53.9358 10.5854 54.0553 10.5359V10.5318Z" fill="white"/>
<path opacity="0.9" d="M54.8834 15.6968C54.6116 15.7174 54.3851 15.8286 54.1997 16.0263C53.8743 16.3517 53.7919 16.7759 53.9402 16.9242C54.035 16.9942 54.1379 17.0148 54.2533 16.986C54.4798 16.9407 54.6734 16.8336 54.834 16.6647C55.0029 16.5041 55.11 16.3105 55.1553 16.0798C55.1841 15.9686 55.1635 15.8616 55.0935 15.7668C55.0358 15.7133 54.9617 15.6927 54.8834 15.6968Z" fill="white"/>
<path opacity="0.9" d="M62.9953 12.2823L55.2561 4.53901C55.1367 4.42368 55.0172 4.42368 54.8978 4.53901L45.8365 13.6003C45.7212 13.7198 45.7212 13.8392 45.8365 13.9586L53.5798 21.6978C53.6992 21.8173 53.8187 21.8173 53.9381 21.6978L62.9953 12.6406C63.1148 12.5212 63.1148 12.4018 62.9953 12.2823ZM52.686 9.99639C52.7725 9.55568 52.9743 9.18087 53.2874 8.86372C53.6045 8.54658 53.9834 8.34476 54.4241 8.25826C54.5271 8.23355 54.6342 8.22531 54.7413 8.22943C54.8525 8.23355 54.9555 8.25003 55.0626 8.27886C55.1655 8.30769 55.2644 8.34888 55.355 8.40654C55.4497 8.46008 55.5321 8.52598 55.6103 8.60424C55.6845 8.67838 55.7504 8.76487 55.808 8.85549C55.8616 8.95022 55.9028 9.04907 55.9357 9.15204C55.9646 9.25501 55.981 9.36209 55.9852 9.46918C55.9893 9.57627 55.9769 9.68336 55.9522 9.79045C55.874 10.2312 55.6721 10.6101 55.3509 10.9231C55.0378 11.2444 54.6589 11.4462 54.2182 11.5245C54.1317 11.5409 54.0452 11.5492 53.9587 11.5492C53.6004 11.5533 53.2915 11.4338 53.032 11.1826C52.7107 10.8449 52.5954 10.4495 52.686 9.99639ZM56.1499 16.2405C56.0717 16.6853 55.8698 17.0601 55.5444 17.3731C55.2314 17.6985 54.8566 17.8962 54.4118 17.9786C54.3294 17.9909 54.2429 17.9992 54.1564 17.9992C53.794 18.0074 53.4851 17.8838 53.2256 17.6326C52.6489 17.056 52.7643 16.0386 53.4892 15.3137C54.21 14.5888 55.2314 14.4776 55.808 15.0542C56.1252 15.392 56.2405 15.7874 56.1499 16.2405ZM58.1928 13.6415C58.1763 13.7651 58.1228 13.868 58.0281 13.9504C57.9333 14.0328 57.8221 14.074 57.6944 14.074C57.6739 14.074 57.6491 14.074 57.6285 14.0699L51.0715 13.1637C50.9355 13.1472 50.8243 13.0813 50.7378 12.9701C50.6555 12.8589 50.6225 12.7354 50.6431 12.5995C50.6596 12.4594 50.7255 12.3482 50.8367 12.2658C50.9479 12.1835 51.0715 12.1505 51.2074 12.167L57.7645 13.0731C57.9004 13.0937 58.0116 13.1555 58.0981 13.2667C58.1805 13.3779 58.2134 13.5015 58.1928 13.6415Z" fill="white"/>
<g opacity="0.9">
<mask id="mask16_6_968" style="mask-type:luminance" maskUnits="userSpaceOnUse" x="42" y="0" width="25" height="25">
<path d="M42.9325 0.646729H66.9532V24.5768H42.9325V0.646729Z" fill="white"/>
</mask>
<g mask="url(#mask16_6_968)">
<path d="M65.5502 2.98223C65.5173 2.77217 65.4349 2.58683 65.3031 2.42208C64.8912 2.57447 64.5288 2.80512 64.2281 3.12227C63.8245 3.48472 63.5732 3.93367 63.4661 4.46499C63.5485 4.5762 63.6144 4.69564 63.668 4.82332C63.7215 4.95512 63.7586 5.08692 63.7833 5.22284C63.8039 5.36288 63.808 5.4988 63.7998 5.63884C63.7874 5.77888 63.7586 5.91068 63.7174 6.0466C63.6762 6.1784 63.6185 6.30196 63.5444 6.42141C63.4703 6.54085 63.3838 6.64794 63.289 6.74679C63.1902 6.84564 63.079 6.93214 62.9636 7.00215C62.8442 7.07629 62.7165 7.13396 62.5847 7.17514C62.4529 7.22045 62.317 7.24516 62.177 7.25752C62.041 7.26576 61.901 7.26164 61.7651 7.24104C61.6292 7.21633 61.4932 7.17926 61.3656 7.12572C61.2379 7.07217 61.1184 7.00627 61.0031 6.9239C60.8919 6.84152 60.7931 6.74679 60.7024 6.64382C60.6118 6.53673 60.5336 6.42141 60.4718 6.29784C60.41 6.17428 60.3606 6.04248 60.3276 5.91068C60.2947 5.77476 60.2782 5.63472 60.2782 5.4988C60.2782 5.46585 60.2823 5.44114 60.2864 5.40819C59.9775 4.18079 60.3565 2.73098 61.3409 1.4624L56.526 0.675716C56.4601 0.663359 56.3901 0.659241 56.3201 0.659241C55.937 0.663359 55.6116 0.799279 55.3439 1.07112L43.3789 13.0362C43.1235 13.2874 42.9835 13.5963 42.967 13.9588C42.9464 14.3171 43.0658 14.6219 43.3171 14.8773L52.6626 24.2186C52.9015 24.4575 53.1857 24.5729 53.5234 24.5687C53.9065 24.5687 54.2318 24.4287 54.5037 24.1569L66.4646 12.1959C66.7982 11.8705 66.93 11.4751 66.8641 11.0138L65.5502 2.98223ZM63.7091 13.3492L54.6478 22.4105C54.5325 22.5299 54.3966 22.6206 54.2401 22.6823C54.0877 22.7482 53.9271 22.7812 53.7582 22.7812C53.5934 22.7812 53.4328 22.7482 53.2763 22.6823C53.1239 22.6206 52.988 22.5299 52.8685 22.4105L45.1294 14.6672C45.0099 14.5519 44.9193 14.416 44.8575 14.2594C44.7916 14.107 44.7587 13.9464 44.7587 13.7775C44.7587 13.6128 44.7916 13.4522 44.8575 13.2956C44.9193 13.1432 45.0099 13.0073 45.1294 12.8879L54.1907 3.82658C54.306 3.71125 54.4419 3.62064 54.5984 3.55474C54.7508 3.49296 54.9114 3.46001 55.0762 3.46001C55.2451 3.46001 55.4057 3.49296 55.5581 3.55474C55.7146 3.62064 55.8505 3.71125 55.9659 3.82658L63.7091 11.5699C63.8286 11.6893 63.9192 11.8252 63.981 11.9776C64.0469 12.1341 64.0798 12.2948 64.0798 12.4595C64.0798 12.6284 64.0469 12.789 63.981 12.9414C63.9192 13.0979 63.8286 13.2339 63.7091 13.3492Z" fill="white"/>
</g>
</g>
<g opacity="0.9">
<mask id="mask17_6_968" style="mask-type:luminance" maskUnits="userSpaceOnUse" x="60" y="0" width="9" height="7">
<path d="M60.627 0.0620117H68.0078V6.97332H60.627V0.0620117Z" fill="white"/>
</mask>
<g mask="url(#mask17_6_968)">
<path d="M67.2513 0.704579C66.8106 0.276227 66.2834 0.0702884 65.6697 0.090882C65.4349 0.090882 65.2043 0.115595 64.9736 0.169139C64.0593 0.391552 63.2767 0.844618 62.6259 1.5201C61.242 2.90401 60.7972 4.73274 61.5715 5.8654C61.6663 6.0178 61.8022 6.11253 61.9752 6.1496C62.1523 6.18667 62.3129 6.15372 62.4612 6.05075C62.6053 5.9519 62.696 5.81186 62.7248 5.63475C62.7536 5.46176 62.7165 5.30113 62.6095 5.15698C62.2511 4.62977 62.4941 3.43121 63.5115 2.40975C63.9934 1.90726 64.57 1.56952 65.2414 1.39653C65.3814 1.3677 65.5214 1.35123 65.6656 1.34711C65.9333 1.33063 66.164 1.41301 66.3617 1.59423C66.6788 1.90726 66.6211 2.43035 66.5594 2.71454C66.5347 2.81339 66.5058 2.91224 66.4729 3.00697L66.8106 4.92632L66.9877 4.68332C67.3749 4.17259 67.6385 3.6042 67.7868 2.98226C67.9886 2.05966 67.7991 1.24826 67.2513 0.704579Z" fill="white"/>
</g>
</g>
</svg>
