<svg preserveAspectRatio="none" width="100%" height="100%" overflow="visible" style="display: block;" viewBox="0 0 62 29" fill="none" xmlns="http://www.w3.org/2000/svg">
<g id="Group">
<path id="Vector" d="M12.7468 4.61855L11.8835 4.6243L12.7042 4.65876C13.1558 4.67887 13.5306 4.69898 13.5363 4.70472C13.542 4.71334 13.5619 4.69323 13.5761 4.66738C13.5959 4.63579 13.2495 4.61568 12.7468 4.61855ZM17.3445 3.99815C17.2763 3.98666 17.1655 3.98666 17.0974 3.99815C17.0292 4.01251 17.086 4.024 17.2195 4.024C17.3558 4.024 17.4126 4.01251 17.3445 3.99815ZM16.4556 4.71621C16.4556 4.7478 16.4641 4.77365 16.4783 4.77365C16.4925 4.77365 16.5181 4.7478 16.5351 4.71621C16.555 4.68461 16.5436 4.66164 16.5124 4.66164C16.4812 4.66164 16.4556 4.68461 16.4556 4.71621ZM16.0041 3.77412C15.9501 3.75975 15.8536 3.75975 15.7854 3.77412C15.7173 3.7856 15.7599 3.79709 15.8791 3.79997C16.0012 3.79997 16.0552 3.78848 16.0041 3.77412ZM13.9225 4.676C13.8544 4.69036 13.9112 4.70185 14.0446 4.70185C14.1809 4.70185 14.2377 4.69036 14.1696 4.676C14.1014 4.66451 13.9907 4.66451 13.9225 4.676ZM14.9562 4.65302C14.6609 4.65302 14.4024 4.66738 14.3854 4.68461C14.3712 4.70185 14.8227 4.71334 15.3907 4.70759C16.2057 4.69898 16.3392 4.69036 16.0154 4.65589C15.7911 4.63579 15.5327 4.60132 15.4418 4.58121C15.3168 4.55536 15.3026 4.55824 15.3878 4.59845C15.4617 4.63579 15.331 4.65015 14.9562 4.65302ZM16.5635 5.21311C16.6686 5.21311 16.7112 5.20162 16.6601 5.18726C16.6061 5.17289 16.5209 5.17289 16.467 5.18726C16.4158 5.20162 16.4584 5.21311 16.5635 5.21311ZM11.5428 3.83156C11.4888 3.84592 11.52 3.85741 11.6109 3.85741C11.7018 3.86028 11.7444 3.84879 11.7075 3.83156C11.6706 3.8172 11.5967 3.8172 11.5428 3.83156ZM16.2256 5.18726C16.1801 5.20449 16.1943 5.21885 16.2597 5.22172C16.3165 5.22459 16.3477 5.21023 16.3307 5.19013C16.3108 5.17289 16.2653 5.17002 16.2256 5.18726ZM14.8028 3.77412C14.7574 3.79422 14.7716 3.80571 14.8341 3.80858C14.8937 3.81145 14.925 3.79709 14.9079 3.77986C14.888 3.75976 14.8426 3.75688 14.8028 3.77412ZM15.402 3.77412C15.3481 3.75975 15.2515 3.75975 15.1834 3.77412C15.1152 3.7856 15.1578 3.79709 15.2771 3.79997C15.3992 3.79997 15.4532 3.78848 15.402 3.77412ZM14.4734 3.77412C14.4308 3.79422 14.4422 3.80571 14.5075 3.80858C14.5643 3.81145 14.5955 3.79709 14.5785 3.77986C14.5586 3.75976 14.5132 3.75688 14.4734 3.77412ZM15.03 3.40934C15.1067 3.40934 15.1379 3.39498 15.101 3.38062C15.0613 3.36339 15.0016 3.36339 14.9619 3.38062C14.925 3.39498 14.9562 3.40934 15.03 3.40934ZM14.8682 3.13648C14.9732 3.06467 14.8937 3.06755 14.6211 3.14222C14.5018 3.17669 14.0872 3.19967 13.701 3.19392C12.9683 3.18531 12.7866 3.21116 12.7866 3.32317C12.7866 3.37487 12.9598 3.38062 13.4852 3.34902C14.4479 3.28871 15.2686 3.20829 15.0045 3.19967C14.8398 3.19105 14.8057 3.17669 14.8682 3.13648ZM14.5529 3.8689C14.3343 3.8689 14.1554 3.85167 14.1554 3.82869C14.1554 3.80571 13.9765 3.78848 13.7578 3.79422C13.5391 3.79709 13.0195 3.80571 12.5992 3.80858C12.1817 3.81145 11.8523 3.82582 11.8693 3.84305C11.9006 3.87752 12.1704 3.889 14.5671 3.95507C15.3793 3.97517 16.0552 4.00389 16.0666 4.01826C16.1006 4.04985 16.4016 4.03836 16.6459 3.98953C16.8617 3.94932 15.4929 3.87177 14.5529 3.8689ZM8.84497 4.8311C8.96708 4.79089 8.9614 4.78514 8.77681 4.7794C8.66322 4.77653 8.57235 4.7995 8.57235 4.8311C8.57235 4.89429 8.64902 4.89429 8.84497 4.8311ZM2.64855 5.75309C2.5946 5.73873 2.4952 5.73585 2.42705 5.75021C2.36173 5.76457 2.40433 5.77606 2.5236 5.77606C2.64287 5.77606 2.69967 5.76457 2.64855 5.75309ZM4.46602 6.12935C4.42058 6.10063 4.33539 6.07765 4.27575 6.08052C4.18488 6.08339 4.19056 6.09201 4.30131 6.12935C4.49441 6.19254 4.56257 6.19254 4.46602 6.12935ZM2.62867 4.71621L2.50656 4.62717C2.481 4.60994 2.45545 4.59845 2.42989 4.58983C2.38445 4.62143 2.33901 4.65589 2.29358 4.68749C2.33333 4.70472 2.39297 4.71621 2.45545 4.71621H2.62867ZM2.85302 6.18679C2.88993 6.24998 3.10008 6.24998 3.3443 6.18679C3.47493 6.15233 3.43801 6.14084 3.16255 6.13509C2.94673 6.13222 2.8303 6.14945 2.85302 6.18679ZM2.64003 4.45196C2.62867 4.45771 2.61447 4.46632 2.60311 4.47494H2.79622L2.64003 4.45196ZM3.42381 4.24229C3.40677 4.22506 3.27614 4.20495 3.13699 4.19921C3.10292 4.19921 3.07168 4.19633 3.04044 4.19346C3.00352 4.21644 2.96661 4.23942 2.93253 4.2624C3.23071 4.2624 3.43517 4.25665 3.42381 4.24229ZM3.04328 4.75355C3.26763 4.75355 3.36134 4.74493 3.24775 4.73344C3.137 4.71908 2.94957 4.71908 2.83882 4.73344C2.72523 4.74493 2.81894 4.75355 3.04328 4.75355ZM9.27094 5.8651C9.21698 5.85074 9.13179 5.85074 9.07783 5.8651C9.02672 5.87946 9.06931 5.89095 9.17438 5.89095C9.27946 5.89095 9.32205 5.87946 9.27094 5.8651ZM4.13944 6.12648C4.13944 6.09775 4.10252 6.0719 4.05709 6.0719C4.01165 6.0719 3.97473 6.04893 3.97473 6.02308C3.97473 5.99435 3.88102 5.95702 3.76743 5.93978C3.65668 5.92542 3.48345 5.89383 3.3869 5.87085C3.24775 5.84213 3.20799 5.85361 3.20799 5.91968C3.20799 6.00584 3.25059 6.0202 3.83842 6.1552C4.01733 6.19828 4.21327 6.22988 4.27575 6.22988C4.36662 6.22701 4.36378 6.22413 4.26155 6.20115C4.1934 6.18967 4.13944 6.1552 4.13944 6.12648ZM8.85917 5.86223C8.79101 5.85074 8.68026 5.85074 8.61211 5.86223C8.54679 5.87659 8.60075 5.88808 8.73706 5.88808C8.87053 5.88808 8.92732 5.87659 8.85917 5.86223ZM6.43683 4.60132C6.43683 4.63291 6.46239 4.66164 6.49078 4.66164C6.52202 4.66164 6.54758 4.65015 6.54758 4.63579C6.54758 4.62143 6.52202 4.59558 6.49078 4.57547C6.46239 4.55536 6.43683 4.56685 6.43683 4.60132ZM4.28711 4.79663C4.27007 4.77653 4.22179 4.77653 4.18204 4.79089C4.13944 4.80812 4.1508 4.82248 4.21611 4.82535C4.27291 4.82823 4.30699 4.81386 4.28711 4.79663ZM6.72365 4.4893C7.03602 4.53813 9.20846 4.56398 9.16587 4.5209C9.15167 4.50654 8.60359 4.48356 7.94476 4.46632C7.12406 4.44909 6.73501 4.42037 6.70945 4.37441C6.65549 4.28537 6.16421 4.2308 6.16421 4.3141C6.16421 4.38303 6.30052 4.42611 6.72365 4.4893ZM8.54963 3.5587C8.60643 3.60178 8.6973 3.64199 8.74842 3.64199C8.87905 3.64487 9.10907 3.52998 9.14031 3.44094C9.16303 3.38349 9.09203 3.37487 8.83077 3.39498C8.44172 3.4237 8.4048 3.44668 8.54963 3.5587ZM8.17194 4.71908C8.23725 4.71621 8.30825 4.69036 8.32529 4.65876C8.35653 4.60994 7.52447 4.6243 7.02466 4.68461C6.94231 4.69323 6.83724 4.70472 6.7918 4.71046C6.74921 4.71334 6.71229 4.73919 6.71229 4.76504C6.71229 4.79089 7.0417 4.81099 7.44495 4.80812C7.8482 4.80525 8.14922 4.78227 8.11514 4.75929C8.07823 4.73631 8.10094 4.71908 8.17194 4.71908ZM4.94594 3.77412C4.89482 3.75975 4.79543 3.75975 4.72728 3.77412C4.65912 3.7856 4.70172 3.79709 4.82383 3.79997C4.9431 3.79997 4.9999 3.78848 4.94594 3.77412ZM6.66969 3.64774C6.94515 3.65061 6.95367 3.65348 6.8344 3.73678C6.73785 3.80858 6.72365 3.84592 6.76908 3.93209C6.84008 4.06996 6.96219 4.06708 7.07862 3.92634C7.20073 3.77986 7.36828 3.77699 7.36828 3.92634C7.36828 4.02113 7.39384 4.03262 7.54719 3.99815C7.72041 3.96081 7.834 3.96081 9.01536 3.98666C9.33341 3.99241 9.63443 3.97517 9.68271 3.94932C9.73666 3.91486 9.60887 3.89762 9.31637 3.89762C8.95572 3.89762 8.84497 3.87464 8.76546 3.79709C8.71434 3.74252 8.62915 3.70805 8.58087 3.72242C8.49284 3.75114 8.04983 3.77124 7.834 3.75975C7.74881 3.75688 7.74029 3.74252 7.79993 3.70518C7.83968 3.67933 7.86524 3.62763 7.85104 3.59029C7.83684 3.54434 7.78289 3.56157 7.68634 3.63912C7.60682 3.70518 7.50459 3.75688 7.45915 3.75688C7.3484 3.75688 7.28308 3.64199 7.3626 3.59029C7.39952 3.56731 7.19221 3.54434 6.90539 3.53859C6.57314 3.52998 6.38287 3.54721 6.38287 3.58455C6.38287 3.61901 6.51066 3.64487 6.66969 3.64774ZM19.656 5.88808H19.9855L19.656 5.845C19.4771 5.82202 19.2187 5.80479 19.0824 5.80479L18.8353 5.80766L19.0824 5.84787C19.2187 5.86798 19.4771 5.88808 19.656 5.88808ZM18.9603 5.12981C18.9063 5.11545 18.8098 5.11545 18.7416 5.12981C18.6735 5.1413 18.7161 5.15279 18.8353 5.15566C18.9575 5.15566 19.0114 5.14417 18.9603 5.12981ZM17.015 3.3203C16.9469 3.30881 16.8361 3.30881 16.768 3.3203C16.7027 3.33466 16.7566 3.34615 16.8929 3.34615C17.0292 3.34615 17.0832 3.33466 17.015 3.3203ZM16.6629 3.43519C16.6203 3.4553 16.6317 3.46679 16.697 3.46966C16.7538 3.47253 16.7879 3.45817 16.768 3.44094C16.7509 3.42083 16.7027 3.41796 16.6629 3.43519ZM16.4954 3.10201C16.4755 3.08191 16.43 3.08191 16.3903 3.09627C16.3449 3.1135 16.359 3.12786 16.4215 3.13073C16.4812 3.13361 16.5124 3.11925 16.4954 3.10201ZM11.6819 4.62143C11.6393 4.63866 11.6507 4.65302 11.716 4.65589C11.7728 4.65876 11.804 4.6444 11.787 4.62717C11.77 4.60706 11.7217 4.60706 11.6819 4.62143ZM17.2195 5.84787C17.2195 5.87659 17.2309 5.90244 17.2451 5.90244C17.2593 5.90244 17.2848 5.87659 17.3019 5.84787C17.3217 5.81628 17.3104 5.79043 17.2791 5.79043C17.2479 5.79043 17.2195 5.81628 17.2195 5.84787ZM11.4093 5.52618C11.3639 5.54341 11.3781 5.55777 11.4405 5.56065C11.4973 5.56352 11.5314 5.54916 11.5144 5.52905C11.4945 5.51182 11.4491 5.50895 11.4093 5.52618ZM19.6986 6.227C19.6617 6.22988 19.6447 6.2069 19.6617 6.18105C19.6958 6.1236 19.5567 6.10924 19.5027 6.16669C19.4629 6.2069 19.0256 6.2069 16.7964 6.14945C15.4106 6.11786 15.1947 6.1236 15.2231 6.19254C15.2459 6.2586 15.2061 6.27009 15.0187 6.24998C14.8398 6.23275 14.8114 6.21839 14.8937 6.18392C14.9931 6.14658 14.9903 6.13797 14.854 6.10063C14.7716 6.08052 14.7177 6.03744 14.7347 6.01159C14.7517 5.98286 14.6722 5.95989 14.5586 5.95989C14.4479 5.95989 14.3684 5.94553 14.3854 5.92829C14.4024 5.91106 14.7091 5.88234 15.0669 5.8651C15.4219 5.84787 15.7655 5.81053 15.8252 5.78468C15.8933 5.75596 15.7968 5.74447 15.5639 5.75309C15.3623 5.7617 15.1947 5.75596 15.1947 5.73872C15.1947 5.72149 15.0953 5.70139 14.9761 5.69851C14.8568 5.69277 14.7688 5.71 14.783 5.73298C14.8 5.75883 14.7688 5.79043 14.7148 5.80191C14.5955 5.83638 13.7919 5.80191 13.6073 5.75883C13.5335 5.73872 13.4909 5.74447 13.5107 5.76745C13.5675 5.82489 13.4483 5.95989 13.3404 5.95701C13.2637 5.95701 13.2637 5.9484 13.3489 5.89957C13.4454 5.83925 13.4312 5.73298 13.329 5.73298C13.2978 5.73298 13.2892 5.75883 13.3063 5.79043C13.3262 5.82202 13.3034 5.84787 13.258 5.84787C13.2126 5.84787 13.1643 5.82489 13.1472 5.79617C13.1302 5.77032 12.8264 5.74447 12.4714 5.74447C12.0624 5.74447 11.8779 5.75883 11.9659 5.79043C12.0539 5.81915 11.8864 5.83351 11.5002 5.83064L10.8981 5.82489L11.3639 5.7933C11.7728 5.76745 11.804 5.75596 11.6109 5.72149C11.4888 5.69851 11.3184 5.67554 11.2276 5.67266C11.0657 5.66692 11.0657 5.66692 11.1992 5.62096C11.3951 5.5549 11.2673 5.5549 10.9209 5.62096C10.7249 5.65543 10.3018 5.65256 9.66567 5.61235C8.56383 5.54341 7.78573 5.54628 7.76017 5.62384C7.74881 5.65256 7.70053 5.67841 7.64942 5.67554C7.57274 5.67554 7.5699 5.66979 7.6409 5.62096C7.69769 5.58362 7.62102 5.56639 7.37964 5.56639C6.95935 5.56352 6.27212 5.45437 6.27212 5.38544C6.27212 5.35959 6.20681 5.33661 6.12161 5.33087C5.67293 5.31076 6.79748 5.20162 7.42224 5.20736C8.64334 5.21598 11.006 5.27055 11.9119 5.31363C12.3777 5.33374 12.744 5.33661 12.727 5.31651C12.7099 5.2964 12.3265 5.26481 11.8779 5.2447C11.4292 5.22747 11.0515 5.20162 11.0401 5.19013C10.9833 5.13843 11.114 5.09247 11.3894 5.06949C11.5541 5.05513 11.6762 5.02067 11.662 4.99194C11.645 4.96609 11.6564 4.94312 11.6876 4.94312C11.7217 4.94312 11.7472 4.98045 11.7472 5.02641C11.7472 5.09822 11.8466 5.11258 12.3067 5.11832C12.6162 5.11832 12.9797 5.1413 13.116 5.16715L13.3602 5.21023L13.1529 5.21885C13.0138 5.22459 12.9485 5.25044 12.9627 5.29353C12.9939 5.38544 14.4564 5.4314 14.5075 5.34236C14.5331 5.30215 14.4592 5.28204 14.286 5.28204C14.144 5.28204 14.0446 5.26193 14.0673 5.23896C14.0901 5.21598 14.4422 5.18151 14.8483 5.16428C15.402 5.1413 15.6008 5.11258 15.6377 5.05226C15.6747 4.99194 15.7002 4.98907 15.7286 5.0379C15.7599 5.08673 15.8053 5.08386 15.9075 5.02641C16.0325 4.95748 16.0353 4.94886 15.9416 4.91152C15.8848 4.88854 15.757 4.90003 15.6576 4.93737C15.4816 5.00343 15.101 4.99482 14.5103 4.91439C14.303 4.88567 14.1724 4.9029 13.9623 4.98907C13.7124 5.09247 13.5988 5.09822 12.7696 5.06949C12.2641 5.05226 11.8409 5.01779 11.8267 4.99482C11.8125 4.96897 11.8864 4.96322 11.9915 4.98333C12.1022 5.00056 12.1846 4.99194 12.1846 4.96035C12.1846 4.90003 11.6393 4.8311 11.185 4.8311C11.043 4.8311 10.9265 4.80812 10.9265 4.78514C10.9265 4.75929 11.0799 4.69036 11.2673 4.63291C11.4576 4.57547 11.645 4.4893 11.6904 4.44622C11.7586 4.37441 11.7359 4.36867 11.5115 4.39739C11.344 4.4175 11.2559 4.40888 11.2559 4.36867C11.2559 4.27963 10.7561 4.34856 10.5375 4.46632C10.4069 4.53526 10.1683 4.56398 9.59183 4.58121C9.16586 4.5927 8.74558 4.6243 8.6547 4.65302C8.49 4.70472 9.25674 4.70472 10.2421 4.64728C10.4835 4.63579 10.6113 4.63579 10.529 4.64728C10.103 4.70759 10.5801 4.92014 11.2559 4.96609C11.4207 4.97758 11.0515 4.98045 10.4324 4.97184C9.7821 4.96609 9.50096 4.97471 9.76222 4.99482C10.2933 5.0379 10.5062 5.16428 10.0746 5.17864C9.92409 5.18438 9.7679 5.18151 9.72246 5.17577C9.64579 5.16428 8.63482 5.07811 8.27133 5.04939C8.16626 5.04364 8.21738 5.02354 8.40764 5.00056C8.58655 4.97758 8.29405 4.96322 7.69769 4.96322C6.70661 4.96609 6.70093 4.96609 7.39668 5.00056L8.10662 5.03215L7.23197 5.04652C6.74921 5.05513 6.24372 5.08673 6.10741 5.11832C5.58773 5.24183 5.54514 5.23896 5.34351 5.05513L5.1504 4.8828L5.45142 4.91152C5.61897 4.92588 5.95122 4.95173 6.18977 4.96609C6.61574 4.98907 6.61858 4.98907 6.30052 4.94024C6.11877 4.91152 5.8064 4.87418 5.60193 4.85408C5.39747 4.83684 5.24412 4.7995 5.26116 4.77365C5.27536 4.7478 5.23276 4.71621 5.1646 4.70472C5.08509 4.69036 5.1504 4.66164 5.34351 4.62143L5.64453 4.56111L5.1788 4.55536C4.92322 4.54962 4.31835 4.53526 3.83842 4.5209C3.35566 4.50654 3.0092 4.50941 3.07168 4.52664C3.13131 4.54387 3.20515 4.57834 3.23355 4.59845C3.26479 4.62143 3.6652 4.63579 4.12524 4.63579C4.87211 4.63291 4.96014 4.64153 4.96014 4.7277C4.96014 4.78801 4.90334 4.8311 4.80963 4.84546C4.68184 4.86557 4.68752 4.87131 4.85223 4.87705C4.9999 4.88567 5.09361 4.93737 5.2356 5.09247L5.42586 5.2964L4.60233 5.26193C4.1508 5.24183 3.65952 5.19587 3.50901 5.16428C3.06032 5.06949 1.97836 5.0063 1.91305 5.07524C1.83069 5.15853 2.22258 5.22459 2.79906 5.22459C3.31306 5.22459 3.41813 5.23896 3.39258 5.30502C3.37554 5.35097 3.40393 5.39693 3.46357 5.41129C3.51753 5.42565 3.41529 5.44288 3.23355 5.4515L2.90697 5.46299L3.3727 5.54054C3.62828 5.58075 3.90942 5.61809 3.99745 5.61809C4.08548 5.62096 4.20476 5.66405 4.26155 5.71862C4.34107 5.7933 4.59665 5.83638 5.44006 5.91106C6.03358 5.96563 6.69241 6.01159 6.90255 6.01159C7.40236 6.01733 7.86524 5.95701 7.82832 5.8967C7.81129 5.86798 7.905 5.845 8.03563 5.83925L8.27133 5.83351L8.07823 5.79043C7.9192 5.75596 7.91068 5.74734 8.02427 5.73585C8.40196 5.70426 10.0263 5.75021 10.1257 5.79617C10.3898 5.92255 10.4949 6.00584 10.4381 6.04031C10.3614 6.08914 9.87865 6.01733 9.91273 5.96276C9.92409 5.93978 9.85025 5.91968 9.74518 5.91393C9.63727 5.91106 9.56628 5.93116 9.58331 5.95989C9.60319 5.99148 9.38737 6.00297 9.03524 5.99148C8.71718 5.97999 8.47012 5.98574 8.48716 6.00584C8.54395 6.06329 10.6142 6.16669 10.8073 6.1236C10.9095 6.10063 11.1736 6.09775 11.3951 6.11499C11.7444 6.14084 11.8012 6.16094 11.8012 6.24998C11.8012 6.35338 11.6762 6.38785 11.4036 6.36487C11.3525 6.362 11.3099 6.39359 11.3099 6.43668C11.3099 6.47976 11.2929 6.56018 11.273 6.61188C11.2418 6.69518 11.2673 6.7038 11.4775 6.68082C11.6109 6.66359 11.9886 6.68943 12.3209 6.73252C12.6503 6.77847 12.9967 6.80145 13.0876 6.78709C13.1785 6.76986 13.3262 6.78996 13.417 6.83305C13.6329 6.93645 13.7266 6.93932 13.5533 6.83592L13.417 6.7555L13.5817 6.74688C14.0759 6.72103 15.6037 6.76699 15.7542 6.81007C15.8706 6.84454 15.9416 6.84166 15.9643 6.80145C15.9842 6.76986 16.1404 6.73826 16.3108 6.73252C16.6373 6.72103 16.7424 6.64061 16.4414 6.63486C16.342 6.63199 16.2 6.61763 16.1262 6.60614C15.8195 6.55444 14.2832 6.48263 13.3347 6.47402C12.7724 6.46827 12.301 6.43955 12.2698 6.41083C12.2357 6.37636 12.284 6.35626 12.4061 6.35338C12.6389 6.35338 12.8377 6.24711 12.6219 6.23849C12.4913 6.23275 12.4913 6.22988 12.6418 6.18392C12.8264 6.12648 14.5245 6.09775 14.5785 6.14945C14.6183 6.19254 14.445 6.2069 14.1099 6.19254C13.9821 6.18967 13.8345 6.20977 13.7834 6.23849C13.701 6.28732 13.701 6.29307 13.8004 6.29019C13.86 6.28732 13.9821 6.3103 14.073 6.33615C14.1639 6.362 14.3485 6.38211 14.4848 6.37923C15.2856 6.35913 15.3651 6.35338 15.331 6.29881C15.314 6.26722 15.331 6.24137 15.3708 6.23849C16.3335 6.20115 16.9696 6.20403 17.1655 6.24711C17.5006 6.32179 20.0678 6.36487 20.0678 6.29594C20.0678 6.24998 19.9059 6.21839 19.6986 6.227ZM18.3043 5.58362C18.2617 5.60086 18.2759 5.61235 18.3384 5.61522C18.3952 5.61809 18.4293 5.6066 18.4094 5.5865C18.3923 5.56926 18.3441 5.56639 18.3043 5.58362ZM9.08351 6.43955C9.06363 6.38785 8.98128 6.35626 8.86769 6.35626C8.66038 6.35626 8.61495 6.44817 8.80521 6.48551C9.06079 6.53721 9.11759 6.52572 9.08351 6.43955ZM4.72444 6.20977C4.7074 6.18967 4.65912 6.18679 4.61936 6.20403C4.57677 6.22126 4.59097 6.23562 4.65344 6.23849C4.71024 6.24137 4.74432 6.22701 4.72444 6.20977ZM3.50901 7.53387C3.81002 7.55972 4.28995 7.5827 4.57677 7.5827C5.07657 7.5827 5.08225 7.57983 4.76703 7.53674C4.58813 7.51089 4.06277 7.45058 3.60272 7.40462C2.8445 7.32707 2.07207 7.17197 2.00392 7.0858C1.98688 7.0657 1.86477 7.04559 1.7313 7.04272C1.59783 7.03698 1.47004 7.014 1.44448 6.98815C1.42176 6.96517 1.63759 6.96804 1.92441 6.99389C2.97229 7.09155 2.64571 6.89049 1.48424 6.72103C1.18322 6.67507 0.850965 6.61763 0.743053 6.58891C0.575505 6.54295 0.601064 6.53721 0.950358 6.53146C1.16902 6.52859 1.34793 6.50274 1.34793 6.47402C1.34793 6.44529 1.18038 6.40221 0.975916 6.37923C0.666379 6.34477 0.626621 6.33041 0.731694 6.28158C0.856645 6.22413 0.899241 6.12935 0.797009 6.12935C0.734533 6.12935 0.640821 6.14658 0.535749 6.17243C0.433517 6.27583 0.336964 6.37923 0.237571 6.48263C0.285847 6.48838 0.319925 6.50274 0.331284 6.51997C0.354002 6.56018 0.308565 6.58029 0.200654 6.58029C0.177935 6.58029 0.160897 6.58316 0.143858 6.58316C0.1183 6.61188 0.0899017 6.64061 0.0643437 6.66646C0.101261 6.7038 0.180775 6.75262 0.302886 6.81294C0.453395 6.88187 0.564146 6.95942 0.547108 6.98528C0.532908 7.01113 0.637981 7.0341 0.78281 7.0341C0.92764 7.0341 1.08099 7.06283 1.12642 7.09442C1.18606 7.1375 1.04407 7.14612 0.620942 7.12889C0.0217467 7.10016 -0.123083 7.14038 0.0984212 7.26963C0.234731 7.34718 1.73982 7.37877 1.69438 7.30122C1.65179 7.23229 1.84205 7.25239 2.41853 7.37303C2.71671 7.43334 3.20799 7.50802 3.50901 7.53387ZM8.15774 3.69657C8.21454 3.69944 8.24577 3.68508 8.22874 3.66497C8.2117 3.64774 8.16342 3.64487 8.12366 3.6621C8.08107 3.67933 8.09243 3.69369 8.15774 3.69657ZM8.14922 3.43806C8.1123 3.42083 8.03847 3.42083 7.98451 3.43519C7.93056 3.44955 7.9618 3.46104 8.05267 3.46391C8.14354 3.46391 8.18614 3.45243 8.14922 3.43806ZM22.8451 5.58362C22.8082 5.59799 22.8394 5.61235 22.9133 5.61235C22.99 5.61235 23.0212 5.59799 22.9814 5.58362C22.9445 5.56639 22.882 5.56639 22.8451 5.58362ZM9.87297 3.49264C9.92409 3.507 10.0292 3.51849 10.1058 3.52136C10.2279 3.5271 10.2223 3.51849 10.0576 3.44381C9.95533 3.39785 9.85025 3.36051 9.8247 3.36051C9.73666 3.36051 9.77358 3.46391 9.87297 3.49264ZM9.92693 3.71954C10.3359 3.61614 10.3557 3.59604 10.0632 3.59316C9.84174 3.58742 9.77642 3.60753 9.77642 3.67359C9.77642 3.73678 9.81334 3.74827 9.92693 3.71954ZM5.9569 4.71621C6.0705 4.71621 6.16421 4.70759 6.16421 4.6961C6.16421 4.64728 5.89159 4.6243 5.82343 4.66738C5.778 4.69897 5.82627 4.71621 5.9569 4.71621ZM6.8628 3.47253C7.15529 3.47253 7.26037 3.4553 7.20357 3.41796C7.09566 3.34615 6.43683 3.34615 6.43683 3.41796C6.43683 3.44955 6.61574 3.47253 6.8628 3.47253ZM9.62591 4.79376C9.58899 4.77653 9.52652 4.77653 9.4896 4.79376C9.45268 4.80812 9.48108 4.82248 9.55776 4.82248C9.63159 4.82248 9.66283 4.80812 9.62591 4.79376ZM10.5346 3.88326C11.4235 3.85741 11.5229 3.83156 10.7618 3.82294C10.3841 3.8172 10.049 3.83443 10.015 3.85741C9.97804 3.88039 10.2137 3.89188 10.5346 3.88326ZM22.5725 5.18726C22.5327 5.20449 22.564 5.21598 22.6407 5.21598C22.7145 5.21598 22.7457 5.20449 22.7088 5.18726C22.6719 5.17289 22.6094 5.17289 22.5725 5.18726ZM1.28545 5.47735C1.26273 5.49746 1.24286 5.51469 1.22014 5.5348C1.42744 5.57788 1.47572 5.54916 1.28545 5.47735ZM2.03232 5.83638L1.18322 5.75596C1.1179 5.75021 1.05259 5.74447 0.987275 5.7416C0.950358 5.77606 0.913441 5.80766 0.876523 5.84213C1.05543 5.83638 1.26841 5.83064 1.45584 5.83351L2.03232 5.83638ZM18.3554 3.66497C18.3384 3.64774 18.2901 3.64487 18.2503 3.6621C18.2078 3.67933 18.2191 3.69369 18.2844 3.69657C18.3412 3.69944 18.3725 3.68508 18.3554 3.66497ZM19.1506 4.45484C19.1136 4.4376 19.0512 4.4376 19.0143 4.45484C18.9773 4.4692 19.0057 4.48356 19.0824 4.48356C19.1562 4.48356 19.1875 4.4692 19.1506 4.45484ZM22.1693 5.16428C22.2289 5.16715 22.2601 5.15279 22.2431 5.13556C22.2232 5.11545 22.1778 5.11545 22.138 5.12981C22.0926 5.14992 22.1068 5.16141 22.1693 5.16428ZM21.4763 5.12981C21.4082 5.1413 21.4508 5.15279 21.5729 5.15566C21.6922 5.15566 21.749 5.14417 21.695 5.12981C21.6439 5.11545 21.5445 5.11545 21.4763 5.12981ZM22.1323 6.26147C22.0954 6.27583 22.1267 6.29019 22.2033 6.29019C22.2772 6.29019 22.3084 6.27583 22.2715 6.26147C22.2317 6.24711 22.1721 6.24711 22.1323 6.26147ZM22.0983 6.40796C21.9478 6.31317 21.925 6.27871 21.9875 6.23275C22.0528 6.18679 22.0528 6.18105 21.9847 6.20115C21.9364 6.21552 21.908 6.27009 21.9194 6.32753C21.9307 6.39934 21.9108 6.41657 21.8455 6.39072C21.7972 6.37062 21.6098 6.35626 21.4309 6.35626C21.252 6.35626 21.1072 6.33615 21.1072 6.31317C21.1072 6.29019 21.2747 6.27583 21.4763 6.28158C21.7319 6.28732 21.8058 6.27583 21.7092 6.24424C21.5189 6.17818 20.826 6.17818 20.9709 6.24137C21.1072 6.30455 21.1043 6.30455 20.6329 6.31892C20.0479 6.33328 20.0792 6.41083 20.6727 6.41657C20.9567 6.41944 21.3997 6.44242 21.6553 6.4654C21.9108 6.48838 22.1579 6.51136 22.2033 6.5171C22.2459 6.51997 22.2005 6.47115 22.0983 6.40796ZM20.3944 5.06949C20.3944 4.96609 19.8747 4.87705 19.1136 4.85408C18.398 4.8311 17.4524 4.76216 16.8503 4.69036C16.7538 4.676 16.6743 4.69036 16.6743 4.72195C16.6743 4.75068 16.7907 4.77365 16.9327 4.77365C17.0747 4.77365 17.512 4.81386 17.9039 4.85982C18.2958 4.90865 18.9972 4.98045 19.4658 5.02354C19.9315 5.06375 20.3319 5.10109 20.3546 5.10396C20.3773 5.1097 20.3944 5.09247 20.3944 5.06949ZM20.2581 6.18679C20.3632 6.23275 20.8743 6.26434 20.8289 6.22126C20.8175 6.20977 20.6585 6.18679 20.4767 6.17243C20.2808 6.15233 20.1928 6.15807 20.2581 6.18679ZM21.2435 5.11258C21.1838 5.08673 21.0106 5.06662 20.8601 5.06949L20.5875 5.07524L20.8885 5.11258C21.3202 5.16715 21.3684 5.16715 21.2435 5.11258ZM57.3258 17.8797C57.3258 16.7739 56.3177 15.7628 55.2244 15.7628C54.1311 15.7628 53.2735 16.7825 53.2735 17.8883C53.2735 18.9941 54.2532 19.8816 55.3465 19.8816C56.4398 19.8816 57.3258 18.9855 57.3258 17.8797ZM52.112 9.92357C52.112 9.68518 52.0609 9.45253 51.9728 9.23424C51.9757 9.25721 51.9785 9.27732 51.9785 9.3003C51.9785 10.363 51.1237 11.2247 50.073 11.2247C49.258 11.2247 48.514 10.7134 48.2158 9.98963C48.2499 11.0265 49.1756 11.8508 50.2065 11.8508C51.26 11.8508 52.112 10.9863 52.112 9.92357ZM49.488 22.0588C49.488 20.953 48.4799 19.9419 47.3866 19.9419C46.2933 19.9419 45.4356 20.9616 45.4356 22.0703C45.4356 23.1732 46.4154 24.0607 47.5087 24.0607C48.602 24.0607 49.488 23.1646 49.488 22.0588ZM44.862 13.8269C44.862 12.7613 43.8936 11.7905 42.8401 11.7905C41.7894 11.7905 40.963 12.77 40.963 13.8356C40.963 14.8983 41.9058 15.7513 42.9565 15.7513C44.0101 15.7513 44.862 14.8897 44.862 13.8269ZM61.0176 16.7853C61.0176 23.4949 55.639 28.9349 49.0024 28.9349C42.3687 28.9349 36.4193 23.5523 36.4193 16.8428C36.4193 10.1304 41.6275 3.94358 48.2641 3.94358C54.8978 3.94358 61.0176 10.0729 61.0176 16.7853ZM12.8888 8.27491C12.9002 8.27778 12.9087 8.28353 12.9201 8.28927C12.9229 8.28927 12.9257 8.28927 12.9257 8.29214C12.9144 8.28353 12.9002 8.28065 12.8888 8.27491ZM7.51879 24.5433C7.51595 24.5433 7.51311 24.5433 7.51027 24.5404C7.41656 24.5117 7.32 24.4829 7.22345 24.4513C7.32284 24.4858 7.4194 24.5145 7.51879 24.5433ZM11.5683 17.9601L15.4787 18.2358L14.746 14.1142L11.716 14.7489L11.0259 10.3286L8.12082 10.857L8.03563 14.6628L5.00558 15.5733L4.44046 17.265L7.99587 18.1295L7.26321 20.2665L11.8835 21.0477L11.5683 17.9601ZM18.3213 16.4263C18.3213 21.1023 14.5728 24.8937 9.94965 24.8937C9.11191 24.8937 8.29405 24.7702 7.51027 24.5404C4.62504 23.1703 2.51792 20.3096 2.51792 16.9749C2.51792 12.296 6.14717 7.98194 10.7703 7.98194C11.503 7.98194 12.2243 8.09109 12.9201 8.28927C15.9984 9.74549 18.3213 12.9739 18.3213 16.4263ZM48.1562 1.88131L47.4576 -1.90735e-06L35.4169 0.315944L35.2862 2.04216C41.7439 1.94737 47.0231 1.86982 47.6507 1.86982C47.8182 1.86982 47.9886 1.8727 48.1562 1.88131ZM22.1494 2.23747C16.2653 2.32364 11.2673 2.39831 9.7111 2.41555L10.4154 0.0631873L21.5786 0.697951L22.1494 2.23747Z" fill="var(--fill-0, #B3C4C6)"/>
</g>
</svg>
