<svg preserveAspectRatio="none" width="100%" height="100%" overflow="visible" style="display: block;" viewBox="0 0 53 14" fill="none" xmlns="http://www.w3.org/2000/svg">
<path id="Vector" d="M43.014 9.07002C41.9155 9.07002 41.0539 10.0797 41.0539 11.1747C41.0539 12.2697 42.0382 13.1485 43.1367 13.1485C44.2351 13.1485 45.1253 12.2612 45.1253 11.1662C45.1253 10.0712 44.1125 9.07002 43.014 9.07002ZM38.4461 0.998299C37.3904 0.998299 36.5602 1.96816 36.5602 3.02334C36.5602 4.07568 37.5074 4.92039 38.5631 4.92039C39.6216 4.92039 40.4776 4.06714 40.4776 3.01481C40.4776 1.95962 39.5018 0.998299 38.4461 0.998299ZM50.8887 4.93177C49.7902 4.93177 48.9286 5.94144 48.9286 7.03644C48.9286 8.13144 49.9129 9.01029 51.0114 9.01029C52.1098 9.01029 53 8.12291 53 7.02791C53 5.93291 51.9871 4.93177 50.8887 4.93177ZM6.59647 3.85383L10.3341 3.89365L10.2913 7.45453L6.72201 7.41187L6.76195 10.0911L2.8132 9.96593L2.856 7.2014L0 7.03644L0.125538 3.89365L2.89879 3.76851L2.98154 0L6.59647 0.167805V3.85383Z" fill="var(--fill-0, #2B2560)"/>
</svg>
