<svg preserveAspectRatio="none" width="100%" height="100%" overflow="visible" style="display: block;" viewBox="0 0 2 0" fill="none" xmlns="http://www.w3.org/2000/svg">
<path id="Vector" opacity="0.9" d="M1.66667 0C1.66667 0 1.64648 0 1.60386 0C1.56124 0 1.50067 0 1.42216 0C1.34365 0 1.25393 0 1.15298 0C1.0498 0 0.94437 0 0.834455 0C0.722297 0 0.616869 0 0.513683 0C0.412741 0 0.323015 0 0.244504 0C0.165994 0 0.105429 0 0.0628084 0C0.0224319 0 0 0 0 0C0 0 0.0224319 0 0.0628084 0C0.105429 0 0.165994 0 0.244504 0C0.323015 0 0.412741 0 0.513683 0C0.616869 0 0.722297 0 0.834455 0C0.94437 0 1.0498 0 1.15298 0C1.25393 0 1.34365 0 1.42216 0C1.50067 0 1.56124 0 1.60386 0C1.64648 0 1.66667 0 1.66667 0Z" fill="var(--fill-0, #949191)"/>
</svg>
