<svg preserveAspectRatio="none" width="100%" height="100%" overflow="visible" style="display: block;" viewBox="0 0 12 12" fill="none" xmlns="http://www.w3.org/2000/svg">
<g id="Group 13923">
<path id="icon" d="M10.3822 12L6.44197 7.8C6.12925 8.06667 5.76963 8.27778 5.3631 8.43333C4.95656 8.58889 4.52397 8.66667 4.06532 8.66667C2.92912 8.66667 1.96751 8.24722 1.18051 7.40833C0.393502 6.56944 0 5.54444 0 4.33333C0 3.12222 0.393502 2.09722 1.18051 1.25833C1.96751 0.419444 2.92912 0 4.06532 0C5.20153 0 6.16313 0.419444 6.95014 1.25833C7.73714 2.09722 8.13064 3.12222 8.13064 4.33333C8.13064 4.82222 8.05768 5.28333 7.91174 5.71667C7.76581 6.15 7.56775 6.53333 7.31758 6.86667L11.2578 11.0667L10.3822 12ZM4.06532 7.33333C4.84711 7.33333 5.51164 7.04167 6.05889 6.45833C6.60615 5.875 6.87977 5.16667 6.87977 4.33333C6.87977 3.5 6.60615 2.79167 6.05889 2.20833C5.51164 1.625 4.84711 1.33333 4.06532 1.33333C3.28353 1.33333 2.61901 1.625 2.07175 2.20833C1.5245 2.79167 1.25087 3.5 1.25087 4.33333C1.25087 5.16667 1.5245 5.875 2.07175 6.45833C2.61901 7.04167 3.28353 7.33333 4.06532 7.33333Z" fill="var(--fill-0, #1D1B20)"/>
</g>
</svg>
