<svg preserveAspectRatio="none" width="100%" height="100%" overflow="visible" style="display: block;" viewBox="0 0 9 14" fill="none" xmlns="http://www.w3.org/2000/svg">
<g id="Group">
<path id="Vector" d="M8.02343 0.984486C8.02343 1.37125 7.98867 1.70176 7.92609 1.98305H4.99206C5.05464 2.24675 5.0894 2.57374 5.0894 2.96754C5.0894 3.34376 5.05464 3.67075 4.99206 3.95204C5.05464 4.21574 5.0894 4.54273 5.0894 4.93653C5.0894 5.3233 5.05464 5.65381 4.99206 5.93509C5.05464 6.19879 5.0894 6.52579 5.0894 6.91959C5.0894 7.2958 5.05464 7.6228 4.99206 7.90408C5.05464 8.16779 5.0894 8.50181 5.0894 8.90264C5.0894 9.27886 5.05464 9.60585 4.99206 9.88714C5.05464 10.1508 5.0894 10.4778 5.0894 10.8716C5.0894 11.2584 5.05464 11.5854 4.99206 11.8561C5.05464 12.1304 5.0894 12.4609 5.0894 12.8547C5.0894 13.2309 5.05464 13.5579 4.99206 13.8392H3.03141C2.96536 13.5579 2.93407 13.2309 2.93407 12.8547C2.93407 12.4609 2.96536 12.1304 3.03141 11.8561C2.96536 11.5854 2.93407 11.2584 2.93407 10.8716C2.93407 10.4778 2.96536 10.1508 3.03141 9.88714C2.96536 9.60585 2.93407 9.27886 2.93407 8.90264C2.93407 8.50181 2.96536 8.16779 3.03141 7.90408C2.96536 7.6228 2.93407 7.2958 2.93407 6.91959C2.93407 6.52579 2.96536 6.19879 3.03141 5.93509C2.96536 5.65381 2.93407 5.3233 2.93407 4.93653C2.93407 4.54273 2.96536 4.21574 3.03141 3.95204C2.96536 3.67075 2.93407 3.34376 2.93407 2.96754C2.93407 2.57374 2.96536 2.24675 3.03141 1.98305H0.0973856C0.031335 1.70176 4.82168e-05 1.37125 4.82168e-05 0.984486C4.82168e-05 0.590687 0.031335 0.263695 0.0973856 -9.6533e-06H7.92609C7.98867 0.263695 8.02343 0.590687 8.02343 0.984486Z" fill="var(--fill-0, #FF00FF)"/>
</g>
</svg>
