<svg preserveAspectRatio="none" width="100%" height="100%" overflow="visible" style="display: block;" viewBox="0 0 94 22" fill="none" xmlns="http://www.w3.org/2000/svg">
<g id="Rectangle 52">
<path d="M84 0C89.5228 1.6175e-07 94 4.47715 94 10V12C94 17.5228 89.5228 22 84 22H10C4.47715 22 2.13783e-07 17.5228 0 12V10C0 4.47715 4.47715 1.67918e-08 10 0H84Z" fill="var(--fill-0, #DDDDF3)"/>
<path d="M84 0C89.5228 1.6175e-07 94 4.47715 94 10V12C94 17.5228 89.5228 22 84 22H10C4.47715 22 2.13783e-07 17.5228 0 12V10C0 4.47715 4.47715 1.67918e-08 10 0H84Z" stroke="var(--stroke-0, #211C49)"/>
</g>
</svg>
