<svg preserveAspectRatio="none" width="100%" height="100%" overflow="visible" style="display: block;" viewBox="0 0 9 14" fill="none" xmlns="http://www.w3.org/2000/svg">
<g id="Group">
<path id="Vector" d="M7.92601 1.98304C7.98859 2.24674 8.02335 2.57374 8.02335 2.96753C8.02335 3.34375 7.98859 3.67075 7.92601 3.95203C7.98859 4.21573 8.02335 4.54273 8.02335 4.93653C8.02335 5.32329 7.98859 5.6538 7.92601 5.93508C7.98859 6.19879 8.02335 6.52578 8.02335 6.91958C8.02335 7.2958 7.98859 7.62279 7.92601 7.90408C7.98859 8.16778 8.02335 8.5018 8.02335 8.90263C8.02335 9.27885 7.98859 9.60585 7.92601 9.88713C7.98859 10.1508 8.02335 10.4778 8.02335 10.8716C8.02335 11.2584 7.98859 11.5854 7.92601 11.8561H6.93873C7.00131 12.1304 7.03607 12.4609 7.03607 12.8547C7.03607 13.2309 7.00131 13.5579 6.93873 13.8392H1.08459C1.01853 13.5579 0.987248 13.2309 0.987248 12.8547C0.987248 12.4609 1.01853 12.1304 1.08459 11.8561H0.0973064C0.0312558 11.5854 -3.09921e-05 11.2584 -3.09921e-05 10.8716C-3.09921e-05 10.4778 0.0312558 10.1508 0.0973064 9.88713C0.0312558 9.60585 -3.09921e-05 9.27885 -3.09921e-05 8.90263C-3.09921e-05 8.5018 0.0312558 8.16778 0.0973064 7.90408C0.0312558 7.62279 -3.09921e-05 7.2958 -3.09921e-05 6.91958C-3.09921e-05 6.52578 0.0312558 6.19879 0.0973064 5.93508C0.0312558 5.6538 -3.09921e-05 5.32329 -3.09921e-05 4.93653C-3.09921e-05 4.54273 0.0312558 4.21573 0.0973064 3.95203C0.0312558 3.67075 -3.09921e-05 3.34375 -3.09921e-05 2.96753C-3.09921e-05 2.57374 0.0312558 2.24674 0.0973064 1.98304C0.0312558 1.70176 -3.09921e-05 1.37125 -3.09921e-05 0.98448C-3.09921e-05 0.590682 0.0312558 0.263689 0.0973064 -1.51843e-05H2.05796C2.12053 0.263689 2.1553 0.590682 2.1553 0.98448C2.1553 1.37125 2.12053 1.70176 2.05796 1.98304C2.12053 2.24674 2.1553 2.57374 2.1553 2.96753C2.1553 3.34375 2.12053 3.67075 2.05796 3.95203C2.12053 4.21573 2.1553 4.54273 2.1553 4.93653C2.1553 5.32329 2.12053 5.6538 2.05796 5.93508C2.12053 6.19879 2.1553 6.52578 2.1553 6.91958C2.1553 7.2958 2.12053 7.62279 2.05796 7.90408C2.12053 8.16778 2.1553 8.5018 2.1553 8.90263C2.1553 9.27885 2.12053 9.60585 2.05796 9.88713C2.12053 10.1508 2.1553 10.4778 2.1553 10.8716C2.1553 11.2584 2.12053 11.5854 2.05796 11.8561H5.96536C5.89931 11.5854 5.86802 11.2584 5.86802 10.8716C5.86802 10.4778 5.89931 10.1508 5.96536 9.88713C5.89931 9.60585 5.86802 9.27885 5.86802 8.90263C5.86802 8.5018 5.89931 8.16778 5.96536 7.90408C5.89931 7.62279 5.86802 7.2958 5.86802 6.91958C5.86802 6.52578 5.89931 6.19879 5.96536 5.93508C5.89931 5.6538 5.86802 5.32329 5.86802 4.93653C5.86802 4.54273 5.89931 4.21573 5.96536 3.95203C5.89931 3.67075 5.86802 3.34375 5.86802 2.96753C5.86802 2.57374 5.89931 2.24674 5.96536 1.98304C5.89931 1.70176 5.86802 1.37125 5.86802 0.98448C5.86802 0.590682 5.89931 0.263689 5.96536 -1.51843e-05H7.92601C7.98859 0.263689 8.02335 0.590682 8.02335 0.98448C8.02335 1.37125 7.98859 1.70176 7.92601 1.98304Z" fill="var(--fill-0, #FF00FF)"/>
</g>
</svg>
