<svg preserveAspectRatio="none" width="100%" height="100%" overflow="visible" style="display: block;" viewBox="0 0 9 14" fill="none" xmlns="http://www.w3.org/2000/svg">
<g id="Group">
<path id="Vector" d="M7.92602 5.9351C7.9886 6.1988 8.02336 6.52579 8.02336 6.91959C8.02336 7.29581 7.9886 7.6228 7.92602 7.90409C7.9886 8.16779 8.02336 8.50182 8.02336 8.90265C8.02336 9.27886 7.9886 9.60586 7.92602 9.88714H6.93874C7.00132 10.1508 7.03608 10.4778 7.03608 10.8716C7.03608 11.2584 7.00132 11.5854 6.93874 11.8561H5.96537C6.02794 12.1304 6.06271 12.4609 6.06271 12.8547C6.06271 13.2309 6.02794 13.5579 5.96537 13.8392H0.0973185C0.0312679 13.5579 -1.88612e-05 13.2309 -1.88612e-05 12.8547C-1.88612e-05 12.4609 0.0312679 12.1304 0.0973185 11.8561C0.0312679 11.5854 -1.88612e-05 11.2584 -1.88612e-05 10.8716C-1.88612e-05 10.4778 0.0312679 10.1508 0.0973185 9.88714C0.0312679 9.60586 -1.88612e-05 9.27886 -1.88612e-05 8.90265C-1.88612e-05 8.50182 0.0312679 8.16779 0.0973185 7.90409C0.0312679 7.6228 -1.88612e-05 7.29581 -1.88612e-05 6.91959C-1.88612e-05 6.52579 0.0312679 6.1988 0.0973185 5.9351C0.0312679 5.65381 -1.88612e-05 5.3233 -1.88612e-05 4.93654C-1.88612e-05 4.54274 0.0312679 4.21575 0.0973185 3.95204C0.0312679 3.67076 -1.88612e-05 3.34376 -1.88612e-05 2.96755C-1.88612e-05 2.57375 0.0312679 2.24675 0.0973185 1.98305C0.0312679 1.70177 -1.88612e-05 1.37126 -1.88612e-05 0.984491C-1.88612e-05 0.590693 0.0312679 0.2637 0.0973185 -4.06497e-06H5.96537C6.02794 0.2637 6.06271 0.590693 6.06271 0.984491C6.06271 1.37126 6.02794 1.70177 5.96537 1.98305H6.93874C7.00132 2.24675 7.03608 2.57375 7.03608 2.96755C7.03608 3.34376 7.00132 3.67076 6.93874 3.95204H7.92602C7.9886 4.21575 8.02336 4.54274 8.02336 4.93654C8.02336 5.3233 7.9886 5.65381 7.92602 5.9351ZM5.96537 9.88714C5.89932 9.60586 5.86803 9.27886 5.86803 8.90265C5.86803 8.50182 5.89932 8.16779 5.96537 7.90409C5.89932 7.6228 5.86803 7.29581 5.86803 6.91959C5.86803 6.52579 5.89932 6.1988 5.96537 5.9351C5.89932 5.65381 5.86803 5.3233 5.86803 4.93654C5.86803 4.54274 5.89932 4.21575 5.96537 3.95204H4.992C4.92595 3.67076 4.89466 3.34376 4.89466 2.96755C4.89466 2.57375 4.92595 2.24675 4.992 1.98305H2.05797C2.12055 2.24675 2.15531 2.57375 2.15531 2.96755C2.15531 3.34376 2.12055 3.67076 2.05797 3.95204C2.12055 4.21575 2.15531 4.54274 2.15531 4.93654C2.15531 5.3233 2.12055 5.65381 2.05797 5.9351C2.12055 6.1988 2.15531 6.52579 2.15531 6.91959C2.15531 7.29581 2.12055 7.6228 2.05797 7.90409C2.12055 8.16779 2.15531 8.50182 2.15531 8.90265C2.15531 9.27886 2.12055 9.60586 2.05797 9.88714C2.12055 10.1508 2.15531 10.4778 2.15531 10.8716C2.15531 11.2584 2.12055 11.5854 2.05797 11.8561H4.992C4.92595 11.5854 4.89466 11.2584 4.89466 10.8716C4.89466 10.4778 4.92595 10.1508 4.992 9.88714H5.96537Z" fill="var(--fill-0, #F1F9EE)"/>
</g>
</svg>
