<svg preserveAspectRatio="none" width="100%" height="100%" overflow="visible" style="display: block;" viewBox="0 0 36 19" fill="none" xmlns="http://www.w3.org/2000/svg">
<path id="Vector" d="M33.9381 11.333C33.9381 10.3219 32.9687 9.39736 31.9174 9.39736C30.8661 9.39736 30.0414 10.3297 30.0414 11.3409C30.0414 12.3521 30.9835 13.1637 32.0348 13.1637C33.0861 13.1637 33.9381 12.3442 33.9381 11.333ZM26.4014 15.1545C26.4014 14.1433 25.432 13.2188 24.3807 13.2188C23.3294 13.2188 22.5047 14.1512 22.5047 15.165C22.5047 16.1735 23.4468 16.9851 24.4981 16.9851C25.5494 16.9851 26.4014 16.1657 26.4014 15.1545ZM34.3777 12.922L25.0825 17.8334C23.7445 18.5399 22.0706 18.2169 21.123 17.0665L20.8035 16.6778C19.5611 15.1702 20.0826 12.9457 21.8794 12.1026L31.4941 7.57987C33.0588 6.84447 34.9457 7.47744 35.6939 8.99026C36.4093 10.4295 35.8304 12.1525 34.3777 12.922ZM28.9245 4.05784C28.9245 3.83984 28.8754 3.6271 28.7907 3.4275C28.7552 2.47936 27.8432 1.62577 26.852 1.62577C25.8389 1.62577 25.047 2.524 25.047 3.49578C25.047 3.7164 25.0934 3.92652 25.1781 4.11824C25.2108 5.06638 26.101 5.82017 27.0923 5.82017C28.1053 5.82017 28.9245 5.02961 28.9245 4.05784ZM21.9531 7.62715C21.9531 6.65275 21.022 5.76501 20.0089 5.76501C18.9986 5.76501 18.2039 6.66062 18.2039 7.63503C18.2039 8.60681 19.1105 9.38685 20.1209 9.38685C21.1339 9.38685 21.9531 8.59893 21.9531 7.62715ZM29.7082 5.71511L19.4573 9.99356C18.0865 10.5635 16.4945 9.94103 15.9266 8.61206C15.4105 7.4039 15.9211 6.01715 17.1117 5.38944L26.7072 0.317807C27.8487 -0.28627 29.2741 -0.00786974 30.0824 0.971787L30.7377 1.76497C31.8272 3.08606 31.3193 5.04275 29.7082 5.71511ZM9.94093 8.16294L6.787 9.81234C6.29002 10.0697 6.13437 10.8235 6.47024 11.3304L6.67231 11.6377C6.9208 12.0133 7.35771 12.121 7.70997 11.8898L10.6618 9.93578C11.0277 9.69415 11.1834 9.16098 11.025 8.6961C10.8502 8.18395 10.3614 7.94495 9.94093 8.16294ZM4.73354 8.27062C4.89192 8.7355 4.73627 9.26867 4.37036 9.5103L1.4185 11.4644C1.06625 11.6955 0.629339 11.5878 0.378118 11.2122L0.178779 10.9076C-0.157094 10.398 -0.00144496 9.64424 0.492806 9.38685L3.64673 7.73746C4.06998 7.51947 4.55877 7.75847 4.73354 8.27062Z" fill="var(--fill-0, #F1F9EE)"/>
</svg>
