<svg preserveAspectRatio="none" width="100%" height="100%" overflow="visible" style="display: block;" viewBox="0 0 9 14" fill="none" xmlns="http://www.w3.org/2000/svg">
<g id="Group">
<path id="Vector" d="M7.92638 9.88713C7.98895 10.1508 8.02371 10.4778 8.02371 10.8716C8.02371 11.2584 7.98895 11.5854 7.92638 11.8561H6.9391C7.00167 12.1304 7.03643 12.4609 7.03643 12.8547C7.03643 13.2309 7.00167 13.5579 6.9391 13.8392H2.05832C1.99227 13.5579 1.96099 13.2309 1.96099 12.8547C1.96099 12.4609 1.99227 12.1304 2.05832 11.8561H1.08495C1.0189 11.5854 0.987612 11.2584 0.987612 10.8716C0.987612 10.4778 1.0189 10.1508 1.08495 9.88713H0.0976704C0.0316198 9.60585 0.000333015 9.27886 0.000333015 8.90264C0.000333015 8.50181 0.0316198 8.16778 0.0976704 7.90408C0.0316198 7.62279 0.000333015 7.2958 0.000333015 6.91958C0.000333015 6.52579 0.0316198 6.19879 0.0976704 5.93509C0.0316198 5.6538 0.000333015 5.32329 0.000333015 4.93653C0.000333015 4.54273 0.0316198 4.21574 0.0976704 3.95203H1.08495C1.0189 3.67075 0.987612 3.34376 0.987612 2.96754C0.987612 2.57374 1.0189 2.24675 1.08495 1.98304H2.05832C1.99227 1.70176 1.96099 1.37125 1.96099 0.984483C1.96099 0.590685 1.99227 0.263692 2.05832 -1.20776e-05H6.9391C7.00167 0.263692 7.03643 0.590685 7.03643 0.984483C7.03643 1.37125 7.00167 1.70176 6.9391 1.98304H7.92638C7.98895 2.24675 8.02371 2.57374 8.02371 2.96754C8.02371 3.34376 7.98895 3.67075 7.92638 3.95203H5.96572C5.89967 3.67075 5.86839 3.34376 5.86839 2.96754C5.86839 2.57374 5.89967 2.24675 5.96572 1.98304H3.0317C3.09427 2.24675 3.12903 2.57374 3.12903 2.96754C3.12903 3.34376 3.09427 3.67075 3.0317 3.95203H2.05832C2.1209 4.21574 2.15566 4.54273 2.15566 4.93653C2.15566 5.32329 2.1209 5.6538 2.05832 5.93509C2.1209 6.19879 2.15566 6.52579 2.15566 6.91958C2.15566 7.2958 2.1209 7.62279 2.05832 7.90408C2.1209 8.16778 2.15566 8.50181 2.15566 8.90264C2.15566 9.27886 2.1209 9.60585 2.05832 9.88713H3.0317C3.09427 10.1508 3.12903 10.4778 3.12903 10.8716C3.12903 11.2584 3.09427 11.5854 3.0317 11.8561H5.96572C5.89967 11.5854 5.86839 11.2584 5.86839 10.8716C5.86839 10.4778 5.89967 10.1508 5.96572 9.88713H7.92638Z" fill="var(--fill-0, #00FFFF)"/>
</g>
</svg>
