<svg preserveAspectRatio="none" width="100%" height="100%" overflow="visible" style="display: block;" viewBox="0 0 9 14" fill="none" xmlns="http://www.w3.org/2000/svg">
<g id="Group">
<path id="Vector" d="M7.92581 11.8561C7.98838 12.1304 8.02314 12.4609 8.02314 12.8547C8.02314 13.2309 7.98838 13.5579 7.92581 13.8392H5.96515C5.8991 13.5579 5.86782 13.2309 5.86782 12.8547C5.86782 12.4609 5.8991 12.1304 5.96515 11.8561H5.22817C5.16212 11.5854 5.13083 11.2584 5.13083 10.8716C5.13083 10.4778 5.16212 10.1508 5.22817 9.88714H4.50509C4.43904 9.60585 4.40776 9.27886 4.40776 8.90264C4.40776 8.50181 4.43904 8.16779 4.50509 7.90408H2.05775C2.12033 8.16779 2.15509 8.50181 2.15509 8.90264C2.15509 9.27886 2.12033 9.60585 2.05775 9.88714C2.12033 10.1508 2.15509 10.4778 2.15509 10.8716C2.15509 11.2584 2.12033 11.5854 2.05775 11.8561C2.12033 12.1304 2.15509 12.4609 2.15509 12.8547C2.15509 13.2309 2.12033 13.5579 2.05775 13.8392H0.0971006C0.03105 13.5579 -0.000236749 13.2309 -0.000236749 12.8547C-0.000236749 12.4609 0.03105 12.1304 0.0971006 11.8561C0.03105 11.5854 -0.000236749 11.2584 -0.000236749 10.8716C-0.000236749 10.4778 0.03105 10.1508 0.0971006 9.88714C0.03105 9.60585 -0.000236749 9.27886 -0.000236749 8.90264C-0.000236749 8.50181 0.03105 8.16779 0.0971006 7.90408C0.03105 7.6228 -0.000236749 7.2958 -0.000236749 6.91959C-0.000236749 6.52579 0.03105 6.1988 0.0971006 5.93509C0.03105 5.65381 -0.000236749 5.3233 -0.000236749 4.93653C-0.000236749 4.54273 0.03105 4.21574 0.0971006 3.95204C0.03105 3.67075 -0.000236749 3.34376 -0.000236749 2.96754C-0.000236749 2.57374 0.03105 2.24675 0.0971006 1.98305C0.03105 1.70176 -0.000236749 1.37125 -0.000236749 0.984487C-0.000236749 0.590689 0.03105 0.263696 0.0971006 -8.54196e-06H6.93853C7.0011 0.263696 7.03586 0.590689 7.03586 0.984487C7.03586 1.37125 7.0011 1.70176 6.93853 1.98305H7.92581C7.98838 2.24675 8.02314 2.57374 8.02314 2.96754C8.02314 3.34376 7.98838 3.67075 7.92581 3.95204H7.42521C7.48779 4.21574 7.52255 4.54273 7.52255 4.93653C7.52255 5.3233 7.48779 5.65381 7.42521 5.93509H5.96515C6.02773 6.1988 6.06249 6.52579 6.06249 6.91959C6.06249 7.2958 6.02773 7.6228 5.96515 7.90408H6.45184C6.51441 8.16779 6.54918 8.50181 6.54918 8.90264C6.54918 9.27886 6.51441 9.60585 6.45184 9.88714H7.18882C7.2514 10.1508 7.28616 10.4778 7.28616 10.8716C7.28616 11.2584 7.2514 11.5854 7.18882 11.8561H7.92581ZM5.47847 5.93509C5.41242 5.65381 5.38113 5.3233 5.38113 4.93653C5.38113 4.54273 5.41242 4.21574 5.47847 3.95204C5.41242 3.67075 5.38113 3.34376 5.38113 2.96754C5.38113 2.57374 5.41242 2.24675 5.47847 1.98305H2.05775C2.12033 2.24675 2.15509 2.57374 2.15509 2.96754C2.15509 3.34376 2.12033 3.67075 2.05775 3.95204C2.12033 4.21574 2.15509 4.54273 2.15509 4.93653C2.15509 5.3233 2.12033 5.65381 2.05775 5.93509H5.47847Z" fill="var(--fill-0, #00FFFF)"/>
</g>
</svg>
