<svg preserveAspectRatio="none" width="100%" height="100%" overflow="visible" style="display: block;" viewBox="0 0 9 14" fill="none" xmlns="http://www.w3.org/2000/svg">
<g id="Group">
<path id="Vector" d="M7.92604 9.88713C7.98862 10.1508 8.02338 10.4778 8.02338 10.8716C8.02338 11.2584 7.98862 11.5854 7.92604 11.8561H6.93876C7.00134 12.1304 7.0361 12.4609 7.0361 12.8547C7.0361 13.2309 7.00134 13.5579 6.93876 13.8392H2.05799C1.99194 13.5579 1.96065 13.2309 1.96065 12.8547C1.96065 12.4609 1.99194 12.1304 2.05799 11.8561H1.08462C1.01857 11.5854 0.98728 11.2584 0.98728 10.8716C0.98728 10.4778 1.01857 10.1508 1.08462 9.88713H0.0973379C0.0312873 9.60585 5.35808e-07 9.27886 5.35808e-07 8.90264C5.35808e-07 8.50181 0.0312873 8.16778 0.0973379 7.90408C0.0312873 7.62279 5.35808e-07 7.2958 5.35808e-07 6.91958C5.35808e-07 6.52579 0.0312873 6.19879 0.0973379 5.93509C0.0312873 5.6538 5.35808e-07 5.32329 5.35808e-07 4.93653C5.35808e-07 4.54273 0.0312873 4.21574 0.0973379 3.95203H1.08462C1.01857 3.67075 0.98728 3.34376 0.98728 2.96754C0.98728 2.57374 1.01857 2.24675 1.08462 1.98304H2.05799C1.99194 1.70176 1.96065 1.37125 1.96065 0.984483C1.96065 0.590685 1.99194 0.263693 2.05799 -1.17578e-05H6.93876C7.00134 0.263693 7.0361 0.590685 7.0361 0.984483C7.0361 1.37125 7.00134 1.70176 6.93876 1.98304H7.92604C7.98862 2.24675 8.02338 2.57374 8.02338 2.96754C8.02338 3.34376 7.98862 3.67075 7.92604 3.95203H5.96539C5.89934 3.67075 5.86805 3.34376 5.86805 2.96754C5.86805 2.57374 5.89934 2.24675 5.96539 1.98304H3.03136C3.09394 2.24675 3.1287 2.57374 3.1287 2.96754C3.1287 3.34376 3.09394 3.67075 3.03136 3.95203H2.05799C2.12057 4.21574 2.15533 4.54273 2.15533 4.93653C2.15533 5.32329 2.12057 5.6538 2.05799 5.93509C2.12057 6.19879 2.15533 6.52579 2.15533 6.91958C2.15533 7.2958 2.12057 7.62279 2.05799 7.90408C2.12057 8.16778 2.15533 8.50181 2.15533 8.90264C2.15533 9.27886 2.12057 9.60585 2.05799 9.88713H3.03136C3.09394 10.1508 3.1287 10.4778 3.1287 10.8716C3.1287 11.2584 3.09394 11.5854 3.03136 11.8561H5.96539C5.89934 11.5854 5.86805 11.2584 5.86805 10.8716C5.86805 10.4778 5.89934 10.1508 5.96539 9.88713H7.92604Z" fill="var(--fill-0, #F1F9EE)"/>
</g>
</svg>
