<svg preserveAspectRatio="none" width="100%" height="100%" overflow="visible" style="display: block;" viewBox="0 0 9 14" fill="none" xmlns="http://www.w3.org/2000/svg">
<g id="Group">
<path id="Vector" d="M7.92563 5.93509C7.98821 6.1988 8.02297 6.52579 8.02297 6.91959C8.02297 7.2958 7.98821 7.6228 7.92563 7.90408C7.98821 8.16779 8.02297 8.50181 8.02297 8.90264C8.02297 9.27886 7.98821 9.60585 7.92563 9.88714H7.18865C7.25122 10.1508 7.28599 10.4778 7.28599 10.8716C7.28599 11.2584 7.25122 11.5854 7.18865 11.8561H5.96498C6.02755 12.1304 6.06232 12.4609 6.06232 12.8547C6.06232 13.2309 6.02755 13.5579 5.96498 13.8392H2.05758C1.99153 13.5579 1.96024 13.2309 1.96024 12.8547C1.96024 12.4609 1.99153 12.1304 2.05758 11.8561H0.83391C0.767859 11.5854 0.736572 11.2584 0.736572 10.8716C0.736572 10.4778 0.767859 10.1508 0.83391 9.88714H0.0969267C0.0308761 9.60585 -0.000410689 9.27886 -0.000410689 8.90264C-0.000410689 8.50181 0.0308761 8.16779 0.0969267 7.90408C0.0308761 7.6228 -0.000410689 7.2958 -0.000410689 6.91959C-0.000410689 6.52579 0.0308761 6.1988 0.0969267 5.93509C0.0308761 5.65381 -0.000410689 5.3233 -0.000410689 4.93653C-0.000410689 4.54273 0.0308761 4.21574 0.0969267 3.95204H0.83391C0.767859 3.67075 0.736572 3.34376 0.736572 2.96754C0.736572 2.57374 0.767859 2.24675 0.83391 1.98305H2.05758C1.99153 1.70176 1.96024 1.37125 1.96024 0.984487C1.96024 0.590689 1.99153 0.263696 2.05758 -8.54196e-06H5.96498C6.02755 0.263696 6.06232 0.590689 6.06232 0.984487C6.06232 1.37125 6.02755 1.70176 5.96498 1.98305H7.18865C7.25122 2.24675 7.28599 2.57374 7.28599 2.96754C7.28599 3.34376 7.25122 3.67075 7.18865 3.95204H7.92563C7.98821 4.21574 8.02297 4.54273 8.02297 4.93653C8.02297 5.3233 7.98821 5.65381 7.92563 5.93509ZM5.96498 9.88714C5.89893 9.60585 5.86764 9.27886 5.86764 8.90264C5.86764 8.50181 5.89893 8.16779 5.96498 7.90408C5.89893 7.6228 5.86764 7.2958 5.86764 6.91959C5.86764 6.52579 5.89893 6.1988 5.96498 5.93509C5.89893 5.65381 5.86764 5.3233 5.86764 4.93653C5.86764 4.54273 5.89893 4.21574 5.96498 3.95204H5.228C5.16195 3.67075 5.13066 3.34376 5.13066 2.96754C5.13066 2.57374 5.16195 2.24675 5.228 1.98305H2.79456C2.85714 2.24675 2.8919 2.57374 2.8919 2.96754C2.8919 3.34376 2.85714 3.67075 2.79456 3.95204H2.05758C2.12015 4.21574 2.15492 4.54273 2.15492 4.93653C2.15492 5.3233 2.12015 5.65381 2.05758 5.93509C2.12015 6.1988 2.15492 6.52579 2.15492 6.91959C2.15492 7.2958 2.12015 7.6228 2.05758 7.90408C2.12015 8.16779 2.15492 8.50181 2.15492 8.90264C2.15492 9.27886 2.12015 9.60585 2.05758 9.88714H2.79456C2.85714 10.1508 2.8919 10.4778 2.8919 10.8716C2.8919 11.2584 2.85714 11.5854 2.79456 11.8561H5.228C5.16195 11.5854 5.13066 11.2584 5.13066 10.8716C5.13066 10.4778 5.16195 10.1508 5.228 9.88714H5.96498Z" fill="var(--fill-0, #00FFFF)"/>
</g>
</svg>
