<svg preserveAspectRatio="none" width="100%" height="100%" overflow="visible" style="display: block;" viewBox="0 0 9 14" fill="none" xmlns="http://www.w3.org/2000/svg">
<g id="Group">
<path id="Vector" d="M7.9258 1.98305C7.98837 2.24675 8.02313 2.57374 8.02313 2.96754C8.02313 3.34376 7.98837 3.67075 7.9258 3.95204C7.98837 4.21574 8.02313 4.54273 8.02313 4.93653C8.02313 5.3233 7.98837 5.65381 7.9258 5.93509C7.98837 6.1988 8.02313 6.52579 8.02313 6.91959C8.02313 7.2958 7.98837 7.6228 7.9258 7.90408C7.98837 8.16779 8.02313 8.50181 8.02313 8.90264C8.02313 9.27886 7.98837 9.60585 7.9258 9.88714C7.98837 10.1508 8.02313 10.4778 8.02313 10.8716C8.02313 11.2584 7.98837 11.5854 7.9258 11.8561C7.98837 12.1304 8.02313 12.4609 8.02313 12.8547C8.02313 13.2309 7.98837 13.5579 7.9258 13.8392H5.96514C5.89909 13.5579 5.86781 13.2309 5.86781 12.8547C5.86781 12.4609 5.89909 12.1304 5.96514 11.8561C5.89909 11.5854 5.86781 11.2584 5.86781 10.8716C5.86781 10.4778 5.89909 10.1508 5.96514 9.88714C5.89909 9.60585 5.86781 9.27886 5.86781 8.90264C5.86781 8.50181 5.89909 8.16779 5.96514 7.90408H2.05774C2.12032 8.16779 2.15508 8.50181 2.15508 8.90264C2.15508 9.27886 2.12032 9.60585 2.05774 9.88714C2.12032 10.1508 2.15508 10.4778 2.15508 10.8716C2.15508 11.2584 2.12032 11.5854 2.05774 11.8561C2.12032 12.1304 2.15508 12.4609 2.15508 12.8547C2.15508 13.2309 2.12032 13.5579 2.05774 13.8392H0.0970918C0.0310412 13.5579 -0.000245538 13.2309 -0.000245538 12.8547C-0.000245538 12.4609 0.0310412 12.1304 0.0970918 11.8561C0.0310412 11.5854 -0.000245538 11.2584 -0.000245538 10.8716C-0.000245538 10.4778 0.0310412 10.1508 0.0970918 9.88714C0.0310412 9.60585 -0.000245538 9.27886 -0.000245538 8.90264C-0.000245538 8.50181 0.0310412 8.16779 0.0970918 7.90408C0.0310412 7.6228 -0.000245538 7.2958 -0.000245538 6.91959C-0.000245538 6.52579 0.0310412 6.1988 0.0970918 5.93509C0.0310412 5.65381 -0.000245538 5.3233 -0.000245538 4.93653C-0.000245538 4.54273 0.0310412 4.21574 0.0970918 3.95204C0.0310412 3.67075 -0.000245538 3.34376 -0.000245538 2.96754C-0.000245538 2.57374 0.0310412 2.24675 0.0970918 1.98305C0.0310412 1.70176 -0.000245538 1.37125 -0.000245538 0.984487C-0.000245538 0.590689 0.0310412 0.263696 0.0970918 -8.54196e-06H2.05774C2.12032 0.263696 2.15508 0.590689 2.15508 0.984487C2.15508 1.37125 2.12032 1.70176 2.05774 1.98305C2.12032 2.24675 2.15508 2.57374 2.15508 2.96754C2.15508 3.34376 2.12032 3.67075 2.05774 3.95204C2.12032 4.21574 2.15508 4.54273 2.15508 4.93653C2.15508 5.3233 2.12032 5.65381 2.05774 5.93509H5.96514C5.89909 5.65381 5.86781 5.3233 5.86781 4.93653C5.86781 4.54273 5.89909 4.21574 5.96514 3.95204C5.89909 3.67075 5.86781 3.34376 5.86781 2.96754C5.86781 2.57374 5.89909 2.24675 5.96514 1.98305C5.89909 1.70176 5.86781 1.37125 5.86781 0.984487C5.86781 0.590689 5.89909 0.263696 5.96514 -8.54196e-06H7.9258C7.98837 0.263696 8.02313 0.590689 8.02313 0.984487C8.02313 1.37125 7.98837 1.70176 7.9258 1.98305Z" fill="var(--fill-0, #00FFFF)"/>
</g>
</svg>
