<svg preserveAspectRatio="none" width="100%" height="100%" overflow="visible" style="display: block;" viewBox="0 0 2 0" fill="none" xmlns="http://www.w3.org/2000/svg">
<path id="Vector" opacity="0.9" d="M1.66667 0C1.66667 0 1.64424 0 1.60162 0C1.55899 0 1.50067 0 1.42216 0C1.34365 0 1.25393 0 1.15074 0C1.0498 0 0.942127 0 0.832212 0C0.722297 0 0.614625 0 0.513683 0C0.410498 0 0.320771 0 0.242261 0C0.165993 0 0.105428 0 0.0628084 0C0.0201883 0 0 0 0 0C0 0 0.0201883 0 0.0628084 0C0.105428 0 0.165993 0 0.242261 0C0.320771 0 0.410498 0 0.513683 0C0.614625 0 0.722297 0 0.832212 0C0.942127 0 1.0498 0 1.15074 0C1.25393 0 1.34365 0 1.42216 0C1.50067 0 1.55899 0 1.60162 0C1.64424 0 1.66667 0 1.66667 0Z" fill="var(--fill-0, #949191)"/>
</svg>
