<svg preserveAspectRatio="none" width="100%" height="100%" overflow="visible" style="display: block;" viewBox="0 0 9 14" fill="none" xmlns="http://www.w3.org/2000/svg">
<g id="Group">
<path id="Vector" d="M7.9256 9.88714C7.98818 10.1508 8.02294 10.4778 8.02294 10.8716C8.02294 11.2584 7.98818 11.5854 7.9256 11.8561H6.93833C7.0009 12.1304 7.03566 12.4609 7.03566 12.8547C7.03566 13.2309 7.0009 13.5579 6.93833 13.8392H2.05755C1.9915 13.5579 1.96021 13.2309 1.96021 12.8547C1.96021 12.4609 1.9915 12.1304 2.05755 11.8561H1.08418C1.01813 11.5854 0.986841 11.2584 0.986841 10.8716C0.986841 10.4778 1.01813 10.1508 1.08418 9.88714H0.0968989C0.0308483 9.60586 -0.000438445 9.27887 -0.000438445 8.90265C-0.000438445 8.50182 0.0308483 8.16779 0.0968989 7.90409C0.0308483 7.6228 -0.000438445 7.29581 -0.000438445 6.91959C-0.000438445 6.52579 0.0308483 6.1988 0.0968989 5.9351C0.0308483 5.65381 -0.000438445 5.3233 -0.000438445 4.93654C-0.000438445 4.54274 0.0308483 4.21575 0.0968989 3.95204H1.08418C1.01813 3.67076 0.986841 3.34377 0.986841 2.96755C0.986841 2.57375 1.01813 2.24676 1.08418 1.98305H2.05755C1.9915 1.70177 1.96021 1.37126 1.96021 0.984493C1.96021 0.590694 1.9915 0.263702 2.05755 -2.7133e-06H6.93833C7.0009 0.263702 7.03566 0.590694 7.03566 0.984493C7.03566 1.37126 7.0009 1.70177 6.93833 1.98305H7.9256C7.98818 2.24676 8.02294 2.57375 8.02294 2.96755C8.02294 3.34377 7.98818 3.67076 7.9256 3.95204H5.96495C5.8989 3.67076 5.86761 3.34377 5.86761 2.96755C5.86761 2.57375 5.8989 2.24676 5.96495 1.98305H3.03093C3.0935 2.24676 3.12826 2.57375 3.12826 2.96755C3.12826 3.34377 3.0935 3.67076 3.03093 3.95204H2.05755C2.12013 4.21575 2.15489 4.54274 2.15489 4.93654C2.15489 5.3233 2.12013 5.65381 2.05755 5.9351C2.12013 6.1988 2.15489 6.52579 2.15489 6.91959C2.15489 7.29581 2.12013 7.6228 2.05755 7.90409C2.12013 8.16779 2.15489 8.50182 2.15489 8.90265C2.15489 9.27887 2.12013 9.60586 2.05755 9.88714H3.03093C3.0935 10.1508 3.12826 10.4778 3.12826 10.8716C3.12826 11.2584 3.0935 11.5854 3.03093 11.8561H5.96495C5.8989 11.5854 5.86761 11.2584 5.86761 10.8716C5.86761 10.4778 5.8989 10.1508 5.96495 9.88714H7.9256Z" fill="var(--fill-0, #FF00FF)"/>
</g>
</svg>
