<svg preserveAspectRatio="none" width="100%" height="100%" overflow="visible" style="display: block;" viewBox="0 0 81 79" fill="none" xmlns="http://www.w3.org/2000/svg">
<path id="Track" fill-rule="evenodd" clip-rule="evenodd" d="M31.7789 2.50119C32.6349 4.56768 31.6536 6.9368 29.5871 7.79277L26.8127 8.94198L24.3058 10.247L21.9222 11.7655L19.68 13.486L17.5963 15.3953L15.687 17.479L13.9665 19.7212L12.448 22.1048L11.143 24.6117L10.0614 27.2227L9.21159 29.9181L8.59989 32.6773L8.23099 35.4793L8.10772 38.3028L8.23099 41.1264L8.59989 43.9284L9.21159 46.6876L10.0614 49.383L11.143 51.994L12.448 54.5009L13.9665 56.8845L15.687 59.1267L17.5963 61.2104L19.68 63.1197L21.9222 64.8402L24.3058 66.3587L26.8126 67.6637L29.4237 68.7452L32.1191 69.5951L34.8783 70.2068L37.6804 70.5757L40.5039 70.699L43.3273 70.5757L46.1294 70.2068L48.8886 69.5951L51.584 68.7452L54.1951 67.6637L56.7019 66.3587L59.0855 64.8402L61.3277 63.1197L63.4114 61.2104L65.3207 59.1267L67.0412 56.8845L68.5597 54.5009L69.8647 51.9941L70.9463 49.3829L71.7961 46.6876L72.4078 43.9284L72.7767 41.1263L72.9 38.3028L72.7767 35.4794L72.3847 32.502C72.0928 30.2844 73.6538 28.25 75.8715 27.958C78.0891 27.6661 80.1235 29.2271 80.4154 31.4447L80.8536 34.7727L81.0077 38.3028L80.8536 41.833L80.3924 45.3363L79.6276 48.786L78.565 52.156L77.2128 55.4205L75.5812 58.5548L73.6827 61.5349L71.5316 64.3382L69.1444 66.9434L66.5392 69.3306L63.7359 71.4817L60.7558 73.3802L57.6215 75.0118L54.357 76.364L50.987 77.4266L47.5373 78.1914L44.034 78.6526L40.5039 78.8067L36.9737 78.6526L33.4704 78.1914L30.0207 77.4266L26.6507 76.364L23.3862 75.0118L20.2519 73.3802L17.2718 71.4817L14.4685 69.3306L11.8633 66.9434L9.4761 64.3382L7.32504 61.5349L5.42649 58.5548L3.7949 55.4205L2.44268 52.156L1.38013 48.786L0.615345 45.3363L0.154128 41.833L0 38.3028L0.154128 34.7727L0.615345 31.2694L1.38013 27.8197L2.44268 24.4497L3.7949 21.1852L5.42649 18.0509L7.32504 15.0708L9.4761 12.2675L11.8633 9.6623L14.4685 7.2751L17.2718 5.12404L20.2519 3.22548L23.3862 1.59389L26.4874 0.309348C28.5538 -0.546621 30.923 0.434701 31.7789 2.50119Z" fill="var(--fill-0, #E8DEF8)"/>
</svg>
