<svg preserveAspectRatio="none" width="100%" height="100%" overflow="visible" style="display: block;" viewBox="0 0 9 14" fill="none" xmlns="http://www.w3.org/2000/svg">
<g id="Group">
<path id="Vector" d="M8.02313 10.8716C8.02313 11.2584 7.98837 11.5854 7.9258 11.8561C7.98837 12.1304 8.02313 12.4609 8.02313 12.8547C8.02313 13.2309 7.98837 13.5579 7.9258 13.8392H5.96514C5.89909 13.5579 5.86781 13.2309 5.86781 12.8547C5.86781 12.4609 5.89909 12.1304 5.96514 11.8561C5.89909 11.5854 5.86781 11.2584 5.86781 10.8716C5.86781 10.4778 5.89909 10.1508 5.96514 9.88713H2.05774C2.12032 10.1508 2.15508 10.4778 2.15508 10.8716C2.15508 11.2584 2.12032 11.5854 2.05774 11.8561C2.12032 12.1304 2.15508 12.4609 2.15508 12.8547C2.15508 13.2309 2.12032 13.5579 2.05774 13.8392H0.0970908C0.0310402 13.5579 -0.000246613 13.2309 -0.000246613 12.8547C-0.000246613 12.4609 0.0310402 12.1304 0.0970908 11.8561C0.0310402 11.5854 -0.000246613 11.2584 -0.000246613 10.8716C-0.000246613 10.4778 0.0310402 10.1508 0.0970908 9.88713H0.834074C0.768023 9.60585 0.736736 9.27885 0.736736 8.90264C0.736736 8.50181 0.768023 8.16778 0.834074 7.90408C0.768023 7.62279 0.736736 7.2958 0.736736 6.91958C0.736736 6.52578 0.768023 6.19879 0.834074 5.93509H1.32076C1.25471 5.6538 1.22342 5.32329 1.22342 4.93653C1.22342 4.54273 1.25471 4.21574 1.32076 3.95203H2.05774C1.99169 3.67075 1.96041 3.34375 1.96041 2.96754C1.96041 2.57374 1.99169 2.24675 2.05774 1.98304H2.54443C2.47838 1.70176 2.44709 1.37125 2.44709 0.984482C2.44709 0.590684 2.47838 0.263691 2.54443 -1.32873e-05H5.47846C5.54103 0.263691 5.57579 0.590684 5.57579 0.984482C5.57579 1.37125 5.54103 1.70176 5.47846 1.98304H5.96514C6.02772 2.24675 6.06248 2.57374 6.06248 2.96754C6.06248 3.34375 6.02772 3.67075 5.96514 3.95203H6.70213C6.7647 4.21574 6.79946 4.54273 6.79946 4.93653C6.79946 5.32329 6.7647 5.6538 6.70213 5.93509H7.18881C7.25139 6.19879 7.28615 6.52578 7.28615 6.91958C7.28615 7.2958 7.25139 7.62279 7.18881 7.90408C7.25139 8.16778 7.28615 8.50181 7.28615 8.90264C7.28615 9.27885 7.25139 9.60585 7.18881 9.88713H7.9258C7.98837 10.1508 8.02313 10.4778 8.02313 10.8716ZM5.22816 7.90408C5.16211 7.62279 5.13082 7.2958 5.13082 6.91958C5.13082 6.52578 5.16211 6.19879 5.22816 5.93509H4.74147C4.67542 5.6538 4.64414 5.32329 4.64414 4.93653C4.64414 4.54273 4.67542 4.21574 4.74147 3.95203H3.28141C3.34399 4.21574 3.37875 4.54273 3.37875 4.93653C3.37875 5.32329 3.34399 5.6538 3.28141 5.93509H2.79473C2.8573 6.19879 2.89206 6.52578 2.89206 6.91958C2.89206 7.2958 2.8573 7.62279 2.79473 7.90408H5.22816Z" fill="var(--fill-0, #F1F9EE)"/>
</g>
</svg>
