<svg preserveAspectRatio="none" width="100%" height="100%" overflow="visible" style="display: block;" viewBox="0 0 9 14" fill="none" xmlns="http://www.w3.org/2000/svg">
<g id="Group">
<path id="Vector" d="M7.9256 1.98305C7.98817 2.24675 8.02293 2.57374 8.02293 2.96754C8.02293 3.34376 7.98817 3.67075 7.9256 3.95204C7.98817 4.21574 8.02293 4.54273 8.02293 4.93653C8.02293 5.3233 7.98817 5.65381 7.9256 5.93509C7.98817 6.19879 8.02293 6.52579 8.02293 6.91959C8.02293 7.2958 7.98817 7.6228 7.9256 7.90408C7.98817 8.16779 8.02293 8.50181 8.02293 8.90264C8.02293 9.27886 7.98817 9.60585 7.9256 9.88714C7.98817 10.1508 8.02293 10.4778 8.02293 10.8716C8.02293 11.2584 7.98817 11.5854 7.9256 11.8561C7.98817 12.1304 8.02293 12.4609 8.02293 12.8547C8.02293 13.2309 7.98817 13.5579 7.9256 13.8392H5.96494C5.89889 13.5579 5.86761 13.2309 5.86761 12.8547C5.86761 12.4609 5.89889 12.1304 5.96494 11.8561C5.89889 11.5854 5.86761 11.2584 5.86761 10.8716C5.86761 10.4778 5.89889 10.1508 5.96494 9.88714C5.89889 9.60585 5.86761 9.27886 5.86761 8.90264C5.86761 8.50181 5.89889 8.16779 5.96494 7.90408H2.05754C2.12012 8.16779 2.15488 8.50181 2.15488 8.90264C2.15488 9.27886 2.12012 9.60585 2.05754 9.88714C2.12012 10.1508 2.15488 10.4778 2.15488 10.8716C2.15488 11.2584 2.12012 11.5854 2.05754 11.8561C2.12012 12.1304 2.15488 12.4609 2.15488 12.8547C2.15488 13.2309 2.12012 13.5579 2.05754 13.8392H0.0968901C0.0308396 13.5579 -0.000447235 13.2309 -0.000447235 12.8547C-0.000447235 12.4609 0.0308396 12.1304 0.0968901 11.8561C0.0308396 11.5854 -0.000447235 11.2584 -0.000447235 10.8716C-0.000447235 10.4778 0.0308396 10.1508 0.0968901 9.88714C0.0308396 9.60585 -0.000447235 9.27886 -0.000447235 8.90264C-0.000447235 8.50181 0.0308396 8.16779 0.0968901 7.90408C0.0308396 7.6228 -0.000447235 7.2958 -0.000447235 6.91959C-0.000447235 6.52579 0.0308396 6.19879 0.0968901 5.93509C0.0308396 5.65381 -0.000447235 5.3233 -0.000447235 4.93653C-0.000447235 4.54273 0.0308396 4.21574 0.0968901 3.95204C0.0308396 3.67075 -0.000447235 3.34376 -0.000447235 2.96754C-0.000447235 2.57374 0.0308396 2.24675 0.0968901 1.98305C0.0308396 1.70176 -0.000447235 1.37125 -0.000447235 0.984486C-0.000447235 0.590687 0.0308396 0.263695 0.0968901 -9.6533e-06H2.05754C2.12012 0.263695 2.15488 0.590687 2.15488 0.984486C2.15488 1.37125 2.12012 1.70176 2.05754 1.98305C2.12012 2.24675 2.15488 2.57374 2.15488 2.96754C2.15488 3.34376 2.12012 3.67075 2.05754 3.95204C2.12012 4.21574 2.15488 4.54273 2.15488 4.93653C2.15488 5.3233 2.12012 5.65381 2.05754 5.93509H5.96494C5.89889 5.65381 5.86761 5.3233 5.86761 4.93653C5.86761 4.54273 5.89889 4.21574 5.96494 3.95204C5.89889 3.67075 5.86761 3.34376 5.86761 2.96754C5.86761 2.57374 5.89889 2.24675 5.96494 1.98305C5.89889 1.70176 5.86761 1.37125 5.86761 0.984486C5.86761 0.590687 5.89889 0.263695 5.96494 -9.6533e-06H7.9256C7.98817 0.263695 8.02293 0.590687 8.02293 0.984486C8.02293 1.37125 7.98817 1.70176 7.9256 1.98305Z" fill="var(--fill-0, #FF00FF)"/>
</g>
</svg>
