<svg preserveAspectRatio="none" width="100%" height="100%" overflow="visible" style="display: block;" viewBox="0 0 2 0" fill="none" xmlns="http://www.w3.org/2000/svg">
<path id="Vector" opacity="0.9" d="M1.64444 0C1.64444 0 1.62231 0 1.58026 0C1.53821 0 1.48066 0 1.4032 0C1.32574 0 1.23721 0 1.1354 0C1.0358 0 0.929565 0 0.821116 0C0.712667 0 0.60643 0 0.506834 0C0.405024 0 0.316494 0 0.239031 0C0.16378 0 0.104022 0 0.061971 0C0.0199191 0 0 0 0 0C0 0 0.0199191 0 0.061971 0C0.104022 0 0.16378 0 0.239031 0C0.316494 0 0.405024 0 0.506834 0C0.60643 0 0.712667 0 0.821116 0C0.929565 0 1.0358 0 1.1354 0C1.23721 0 1.32574 0 1.4032 0C1.48066 0 1.53821 0 1.58026 0C1.62231 0 1.64444 0 1.64444 0Z" fill="var(--fill-0, #949191)"/>
</svg>
