<svg preserveAspectRatio="none" width="100%" height="100%" overflow="visible" style="display: block;" viewBox="0 0 67 32" fill="none" xmlns="http://www.w3.org/2000/svg">
<g id="Group">
<path id="Vector" d="M66.8966 17.1472C66.2662 25.089 59.1497 31.4136 51.2182 31.4854C44.1925 31.5486 39.717 26.6802 36.7296 22.2857L25.5039 23.11C23.0844 26.2896 18.1318 27.5304 13.8579 27.5304C6.55113 27.5304 -0.000262292 21.6021 -0.000262292 14.209C-0.000262292 6.81582 5.73611 1.21766e-06 13.0429 1.21766e-06C14.3776 1.21766e-06 15.6896 0.226908 16.9476 0.637638C23.144 0.522748 37.9279 0.34467 46.6319 0.244141C48.1427 -0.267117 55.2421 1.01677 56.8637 1.4792C67.0869 4.39739 66.9619 16.3516 66.8966 17.1472Z" fill="var(--fill-0, #2E1E54)"/>
</g>
</svg>
