<svg preserveAspectRatio="none" width="100%" height="100%" overflow="visible" style="display: block;" viewBox="0 0 2 0" fill="none" xmlns="http://www.w3.org/2000/svg">
<path id="Vector" opacity="0.9" d="M1.64444 0C1.64444 0 1.62453 0 1.58247 0C1.54042 0 1.48066 0 1.4032 0C1.32574 0 1.23721 0 1.13761 0C1.0358 0 0.931778 0 0.823329 0C0.712667 0 0.608644 0 0.506834 0C0.407238 0 0.318708 0 0.241244 0C0.163781 0 0.104023 0 0.061971 0C0.0221328 0 0 0 0 0C0 0 0.0221328 0 0.061971 0C0.104023 0 0.163781 0 0.241244 0C0.318708 0 0.407238 0 0.506834 0C0.608644 0 0.712667 0 0.823329 0C0.931778 0 1.0358 0 1.13761 0C1.23721 0 1.32574 0 1.4032 0C1.48066 0 1.54042 0 1.58247 0C1.62453 0 1.64444 0 1.64444 0Z" fill="var(--fill-0, #949191)"/>
</svg>
