<svg preserveAspectRatio="none" width="100%" height="100%" overflow="visible" style="display: block;" viewBox="0 0 9 14" fill="none" xmlns="http://www.w3.org/2000/svg">
<g id="Group">
<path id="Vector" d="M8.02371 0.984491C8.02371 1.37126 7.98895 1.70177 7.92638 1.98305H4.99235C5.05492 2.24675 5.08969 2.57375 5.08969 2.96755C5.08969 3.34376 5.05492 3.67076 4.99235 3.95204C5.05492 4.21575 5.08969 4.54274 5.08969 4.93654C5.08969 5.3233 5.05492 5.65381 4.99235 5.9351C5.05492 6.1988 5.08969 6.52579 5.08969 6.91959C5.08969 7.29581 5.05492 7.6228 4.99235 7.90409C5.05492 8.16779 5.08969 8.50181 5.08969 8.90265C5.08969 9.27886 5.05492 9.60586 4.99235 9.88714C5.05492 10.1508 5.08969 10.4778 5.08969 10.8716C5.08969 11.2584 5.05492 11.5854 4.99235 11.8561C5.05492 12.1304 5.08969 12.4609 5.08969 12.8547C5.08969 13.2309 5.05492 13.5579 4.99235 13.8392H3.0317C2.96565 13.5579 2.93436 13.2309 2.93436 12.8547C2.93436 12.4609 2.96565 12.1304 3.0317 11.8561C2.96565 11.5854 2.93436 11.2584 2.93436 10.8716C2.93436 10.4778 2.96565 10.1508 3.0317 9.88714C2.96565 9.60586 2.93436 9.27886 2.93436 8.90265C2.93436 8.50181 2.96565 8.16779 3.0317 7.90409C2.96565 7.6228 2.93436 7.29581 2.93436 6.91959C2.93436 6.52579 2.96565 6.1988 3.0317 5.9351C2.96565 5.65381 2.93436 5.3233 2.93436 4.93654C2.93436 4.54274 2.96565 4.21575 3.0317 3.95204C2.96565 3.67076 2.93436 3.34376 2.93436 2.96755C2.93436 2.57375 2.96565 2.24675 3.0317 1.98305H0.0976704C0.0316198 1.70177 0.000333015 1.37126 0.000333015 0.984491C0.000333015 0.590693 0.0316198 0.2637 0.0976704 -4.47605e-06H7.92638C7.98895 0.2637 8.02371 0.590693 8.02371 0.984491Z" fill="var(--fill-0, #00FFFF)"/>
</g>
</svg>
