<svg preserveAspectRatio="none" width="100%" height="100%" overflow="visible" style="display: block;" viewBox="0 0 9 14" fill="none" xmlns="http://www.w3.org/2000/svg">
<g id="Group">
<path id="Vector" d="M7.9258 5.9351C7.98837 6.1988 8.02313 6.52579 8.02313 6.91959C8.02313 7.29581 7.98837 7.6228 7.9258 7.90409C7.98837 8.16779 8.02313 8.50182 8.02313 8.90265C8.02313 9.27887 7.98837 9.60586 7.9258 9.88714H7.18881C7.25139 10.1508 7.28615 10.4778 7.28615 10.8716C7.28615 11.2584 7.25139 11.5854 7.18881 11.8561H5.96514C6.02772 12.1304 6.06248 12.4609 6.06248 12.8547C6.06248 13.2309 6.02772 13.5579 5.96514 13.8392H2.05774C1.99169 13.5579 1.96041 13.2309 1.96041 12.8547C1.96041 12.4609 1.99169 12.1304 2.05774 11.8561H0.834074C0.768023 11.5854 0.736736 11.2584 0.736736 10.8716C0.736736 10.4778 0.768023 10.1508 0.834074 9.88714H0.0970908C0.0310402 9.60586 -0.000246613 9.27887 -0.000246613 8.90265C-0.000246613 8.50182 0.0310402 8.16779 0.0970908 7.90409C0.0310402 7.6228 -0.000246613 7.29581 -0.000246613 6.91959C-0.000246613 6.52579 0.0310402 6.1988 0.0970908 5.9351C0.0310402 5.65381 -0.000246613 5.3233 -0.000246613 4.93654C-0.000246613 4.54274 0.0310402 4.21575 0.0970908 3.95204H0.834074C0.768023 3.67076 0.736736 3.34377 0.736736 2.96755C0.736736 2.57375 0.768023 2.24676 0.834074 1.98305H2.05774C1.99169 1.70177 1.96041 1.37126 1.96041 0.984492C1.96041 0.590694 1.99169 0.263701 2.05774 -2.80404e-06H5.96514C6.02772 0.263701 6.06248 0.590694 6.06248 0.984492C6.06248 1.37126 6.02772 1.70177 5.96514 1.98305H7.18881C7.25139 2.24676 7.28615 2.57375 7.28615 2.96755C7.28615 3.34377 7.25139 3.67076 7.18881 3.95204H7.9258C7.98837 4.21575 8.02313 4.54274 8.02313 4.93654C8.02313 5.3233 7.98837 5.65381 7.9258 5.9351ZM5.96514 9.88714C5.89909 9.60586 5.86781 9.27887 5.86781 8.90265C5.86781 8.50182 5.89909 8.16779 5.96514 7.90409C5.89909 7.6228 5.86781 7.29581 5.86781 6.91959C5.86781 6.52579 5.89909 6.1988 5.96514 5.9351C5.89909 5.65381 5.86781 5.3233 5.86781 4.93654C5.86781 4.54274 5.89909 4.21575 5.96514 3.95204H5.22816C5.16211 3.67076 5.13082 3.34377 5.13082 2.96755C5.13082 2.57375 5.16211 2.24676 5.22816 1.98305H2.79473C2.8573 2.24676 2.89206 2.57375 2.89206 2.96755C2.89206 3.34377 2.8573 3.67076 2.79473 3.95204H2.05774C2.12032 4.21575 2.15508 4.54274 2.15508 4.93654C2.15508 5.3233 2.12032 5.65381 2.05774 5.9351C2.12032 6.1988 2.15508 6.52579 2.15508 6.91959C2.15508 7.29581 2.12032 7.6228 2.05774 7.90409C2.12032 8.16779 2.15508 8.50182 2.15508 8.90265C2.15508 9.27887 2.12032 9.60586 2.05774 9.88714H2.79473C2.8573 10.1508 2.89206 10.4778 2.89206 10.8716C2.89206 11.2584 2.8573 11.5854 2.79473 11.8561H5.22816C5.16211 11.5854 5.13082 11.2584 5.13082 10.8716C5.13082 10.4778 5.16211 10.1508 5.22816 9.88714H5.96514Z" fill="var(--fill-0, #F1F9EE)"/>
</g>
</svg>
