<svg preserveAspectRatio="none" width="100%" height="100%" overflow="visible" style="display: block;" viewBox="0 0 9 14" fill="none" xmlns="http://www.w3.org/2000/svg">
<g id="Group">
<path id="Vector" d="M8.02311 10.8716C8.02311 11.2584 7.98834 11.5854 7.92577 11.8561C7.98834 12.1304 8.02311 12.4609 8.02311 12.8547C8.02311 13.2309 7.98834 13.5579 7.92577 13.8392H5.96512C5.89907 13.5579 5.86778 13.2309 5.86778 12.8547C5.86778 12.4609 5.89907 12.1304 5.96512 11.8561C5.89907 11.5854 5.86778 11.2584 5.86778 10.8716C5.86778 10.4778 5.89907 10.1508 5.96512 9.88714H2.05772C2.12029 10.1508 2.15505 10.4778 2.15505 10.8716C2.15505 11.2584 2.12029 11.5854 2.05772 11.8561C2.12029 12.1304 2.15505 12.4609 2.15505 12.8547C2.15505 13.2309 2.12029 13.5579 2.05772 13.8392H0.0970641C0.0310135 13.5579 -0.000273295 13.2309 -0.000273295 12.8547C-0.000273295 12.4609 0.0310135 12.1304 0.0970641 11.8561C0.0310135 11.5854 -0.000273295 11.2584 -0.000273295 10.8716C-0.000273295 10.4778 0.0310135 10.1508 0.0970641 9.88714H0.834047C0.767996 9.60585 0.73671 9.27886 0.73671 8.90264C0.73671 8.50181 0.767996 8.16779 0.834047 7.90408C0.767996 7.6228 0.73671 7.2958 0.73671 6.91959C0.73671 6.52579 0.767996 6.19879 0.834047 5.93509H1.32073C1.25468 5.65381 1.2234 5.3233 1.2234 4.93653C1.2234 4.54273 1.25468 4.21574 1.32073 3.95204H2.05772C1.99167 3.67075 1.96038 3.34376 1.96038 2.96754C1.96038 2.57374 1.99167 2.24675 2.05772 1.98305H2.5444C2.47835 1.70176 2.44707 1.37125 2.44707 0.984486C2.44707 0.590687 2.47835 0.263695 2.5444 -9.6533e-06H5.47843C5.541 0.263695 5.57577 0.590687 5.57577 0.984486C5.57577 1.37125 5.541 1.70176 5.47843 1.98305H5.96512C6.02769 2.24675 6.06245 2.57374 6.06245 2.96754C6.06245 3.34376 6.02769 3.67075 5.96512 3.95204H6.7021C6.76467 4.21574 6.79944 4.54273 6.79944 4.93653C6.79944 5.3233 6.76467 5.65381 6.7021 5.93509H7.18879C7.25136 6.19879 7.28612 6.52579 7.28612 6.91959C7.28612 7.2958 7.25136 7.6228 7.18879 7.90408C7.25136 8.16779 7.28612 8.50181 7.28612 8.90264C7.28612 9.27886 7.25136 9.60585 7.18879 9.88714H7.92577C7.98834 10.1508 8.02311 10.4778 8.02311 10.8716ZM5.22813 7.90408C5.16208 7.6228 5.1308 7.2958 5.1308 6.91959C5.1308 6.52579 5.16208 6.19879 5.22813 5.93509H4.74145C4.6754 5.65381 4.64411 5.3233 4.64411 4.93653C4.64411 4.54273 4.6754 4.21574 4.74145 3.95204H3.28139C3.34396 4.21574 3.37872 4.54273 3.37872 4.93653C3.37872 5.3233 3.34396 5.65381 3.28139 5.93509H2.7947C2.85727 6.19879 2.89204 6.52579 2.89204 6.91959C2.89204 7.2958 2.85727 7.6228 2.7947 7.90408H5.22813Z" fill="var(--fill-0, #FF00FF)"/>
</g>
</svg>
