<svg preserveAspectRatio="none" width="100%" height="100%" overflow="visible" style="display: block;" viewBox="0 0 9 14" fill="none" xmlns="http://www.w3.org/2000/svg">
<g id="Group">
<path id="Vector" d="M8.02298 0.984487C8.02298 1.37125 7.98822 1.70176 7.92564 1.98305H4.99161C5.05419 2.24675 5.08895 2.57374 5.08895 2.96754C5.08895 3.34376 5.05419 3.67075 4.99161 3.95204C5.05419 4.21574 5.08895 4.54273 5.08895 4.93653C5.08895 5.3233 5.05419 5.65381 4.99161 5.93509C5.05419 6.1988 5.08895 6.52579 5.08895 6.91959C5.08895 7.2958 5.05419 7.6228 4.99161 7.90408C5.05419 8.16779 5.08895 8.50181 5.08895 8.90264C5.08895 9.27886 5.05419 9.60585 4.99161 9.88714C5.05419 10.1508 5.08895 10.4778 5.08895 10.8716C5.08895 11.2584 5.05419 11.5854 4.99161 11.8561C5.05419 12.1304 5.08895 12.4609 5.08895 12.8547C5.08895 13.2309 5.05419 13.5579 4.99161 13.8392H3.03096C2.96491 13.5579 2.93362 13.2309 2.93362 12.8547C2.93362 12.4609 2.96491 12.1304 3.03096 11.8561C2.96491 11.5854 2.93362 11.2584 2.93362 10.8716C2.93362 10.4778 2.96491 10.1508 3.03096 9.88714C2.96491 9.60585 2.93362 9.27886 2.93362 8.90264C2.93362 8.50181 2.96491 8.16779 3.03096 7.90408C2.96491 7.6228 2.93362 7.2958 2.93362 6.91959C2.93362 6.52579 2.96491 6.1988 3.03096 5.93509C2.96491 5.65381 2.93362 5.3233 2.93362 4.93653C2.93362 4.54273 2.96491 4.21574 3.03096 3.95204C2.96491 3.67075 2.93362 3.34376 2.93362 2.96754C2.93362 2.57374 2.96491 2.24675 3.03096 1.98305H0.0969355C0.0308849 1.70176 -0.000401899 1.37125 -0.000401899 0.984487C-0.000401899 0.590689 0.0308849 0.263696 0.0969355 -8.54196e-06H7.92564C7.98822 0.263696 8.02298 0.590689 8.02298 0.984487Z" fill="var(--fill-0, #00FFFF)"/>
</g>
</svg>
