<svg preserveAspectRatio="none" width="100%" height="100%" overflow="visible" style="display: block;" viewBox="0 0 35 24" fill="none" xmlns="http://www.w3.org/2000/svg">
<path id="Active indicator (Stroke)" fill-rule="evenodd" clip-rule="evenodd" d="M0.0351082 3.52183C0.327064 1.30421 2.36147 -0.256847 4.57909 0.0351082L7.90705 0.473244L11.3568 1.23803L14.7268 2.30058L17.9913 3.6528L21.1256 5.28439L24.1057 7.18294L26.909 9.334L29.5142 11.7212L31.9014 14.3264L33.9448 16.9894C35.3064 18.7639 34.9717 21.3063 33.1972 22.668C31.4227 24.0296 28.8803 23.6949 27.5186 21.9204L25.6905 19.5379L23.7812 17.4542L21.6975 15.5449L19.4553 13.8244L17.0717 12.3059L14.5648 11.0009L11.9538 9.91934L9.25837 9.06949L6.49916 8.45779L3.52183 8.06581C1.30421 7.77385 -0.256847 5.73944 0.0351082 3.52183Z" fill="var(--fill-0, #6750A4)"/>
</svg>
