<svg preserveAspectRatio="none" width="100%" height="100%" overflow="visible" style="display: block;" viewBox="0 0 9 14" fill="none" xmlns="http://www.w3.org/2000/svg">
<g id="Group">
<path id="Vector" d="M7.9256 11.8561C7.98818 12.1304 8.02294 12.4609 8.02294 12.8547C8.02294 13.2309 7.98818 13.5579 7.9256 13.8392H5.96495C5.8989 13.5579 5.86761 13.2309 5.86761 12.8547C5.86761 12.4609 5.8989 12.1304 5.96495 11.8561H5.22797C5.16192 11.5854 5.13063 11.2584 5.13063 10.8716C5.13063 10.4778 5.16192 10.1508 5.22797 9.88714H4.50489C4.43884 9.60585 4.40755 9.27886 4.40755 8.90264C4.40755 8.50181 4.43884 8.16779 4.50489 7.90408H2.05755C2.12013 8.16779 2.15489 8.50181 2.15489 8.90264C2.15489 9.27886 2.12013 9.60585 2.05755 9.88714C2.12013 10.1508 2.15489 10.4778 2.15489 10.8716C2.15489 11.2584 2.12013 11.5854 2.05755 11.8561C2.12013 12.1304 2.15489 12.4609 2.15489 12.8547C2.15489 13.2309 2.12013 13.5579 2.05755 13.8392H0.0968989C0.0308483 13.5579 -0.000438445 13.2309 -0.000438445 12.8547C-0.000438445 12.4609 0.0308483 12.1304 0.0968989 11.8561C0.0308483 11.5854 -0.000438445 11.2584 -0.000438445 10.8716C-0.000438445 10.4778 0.0308483 10.1508 0.0968989 9.88714C0.0308483 9.60585 -0.000438445 9.27886 -0.000438445 8.90264C-0.000438445 8.50181 0.0308483 8.16779 0.0968989 7.90408C0.0308483 7.6228 -0.000438445 7.2958 -0.000438445 6.91959C-0.000438445 6.52579 0.0308483 6.19879 0.0968989 5.93509C0.0308483 5.65381 -0.000438445 5.3233 -0.000438445 4.93653C-0.000438445 4.54273 0.0308483 4.21574 0.0968989 3.95204C0.0308483 3.67075 -0.000438445 3.34376 -0.000438445 2.96754C-0.000438445 2.57374 0.0308483 2.24675 0.0968989 1.98305C0.0308483 1.70176 -0.000438445 1.37125 -0.000438445 0.984486C-0.000438445 0.590687 0.0308483 0.263695 0.0968989 -9.6533e-06H6.93833C7.0009 0.263695 7.03566 0.590687 7.03566 0.984486C7.03566 1.37125 7.0009 1.70176 6.93833 1.98305H7.9256C7.98818 2.24675 8.02294 2.57374 8.02294 2.96754C8.02294 3.34376 7.98818 3.67075 7.9256 3.95204H7.42501C7.48759 4.21574 7.52235 4.54273 7.52235 4.93653C7.52235 5.3233 7.48759 5.65381 7.42501 5.93509H5.96495C6.02753 6.19879 6.06229 6.52579 6.06229 6.91959C6.06229 7.2958 6.02753 7.6228 5.96495 7.90408H6.45164C6.51421 8.16779 6.54898 8.50181 6.54898 8.90264C6.54898 9.27886 6.51421 9.60585 6.45164 9.88714H7.18862C7.25119 10.1508 7.28596 10.4778 7.28596 10.8716C7.28596 11.2584 7.25119 11.5854 7.18862 11.8561H7.9256ZM5.47826 5.93509C5.41221 5.65381 5.38093 5.3233 5.38093 4.93653C5.38093 4.54273 5.41221 4.21574 5.47826 3.95204C5.41221 3.67075 5.38093 3.34376 5.38093 2.96754C5.38093 2.57374 5.41221 2.24675 5.47826 1.98305H2.05755C2.12013 2.24675 2.15489 2.57374 2.15489 2.96754C2.15489 3.34376 2.12013 3.67075 2.05755 3.95204C2.12013 4.21574 2.15489 4.54273 2.15489 4.93653C2.15489 5.3233 2.12013 5.65381 2.05755 5.93509H5.47826Z" fill="var(--fill-0, #FF00FF)"/>
</g>
</svg>
