<svg preserveAspectRatio="none" width="100%" height="100%" overflow="visible" style="display: block;" viewBox="0 0 9 14" fill="none" xmlns="http://www.w3.org/2000/svg">
<g id="Group">
<path id="Vector" d="M7.92629 5.93509C7.98886 6.1988 8.02362 6.52579 8.02362 6.91959C8.02362 7.29581 7.98886 7.6228 7.92629 7.90409C7.98886 8.16779 8.02362 8.50181 8.02362 8.90264C8.02362 9.27886 7.98886 9.60586 7.92629 9.88714H6.93901C7.00158 10.1508 7.03635 10.4778 7.03635 10.8716C7.03635 11.2584 7.00158 11.5854 6.93901 11.8561H5.96563C6.02821 12.1304 6.06297 12.4609 6.06297 12.8547C6.06297 13.2309 6.02821 13.5579 5.96563 13.8392H0.0975817C0.0315311 13.5579 0.000244362 13.2309 0.000244362 12.8547C0.000244362 12.4609 0.0315311 12.1304 0.0975817 11.8561C0.0315311 11.5854 0.000244362 11.2584 0.000244362 10.8716C0.000244362 10.4778 0.0315311 10.1508 0.0975817 9.88714C0.0315311 9.60586 0.000244362 9.27886 0.000244362 8.90264C0.000244362 8.50181 0.0315311 8.16779 0.0975817 7.90409C0.0315311 7.6228 0.000244362 7.29581 0.000244362 6.91959C0.000244362 6.52579 0.0315311 6.1988 0.0975817 5.93509C0.0315311 5.65381 0.000244362 5.3233 0.000244362 4.93654C0.000244362 4.54274 0.0315311 4.21574 0.0975817 3.95204C0.0315311 3.67076 0.000244362 3.34376 0.000244362 2.96754C0.000244362 2.57375 0.0315311 2.24675 0.0975817 1.98305C0.0315311 1.70176 0.000244362 1.37126 0.000244362 0.98449C0.000244362 0.590692 0.0315311 0.263699 0.0975817 -5.41665e-06H5.96563C6.02821 0.263699 6.06297 0.590692 6.06297 0.98449C6.06297 1.37126 6.02821 1.70176 5.96563 1.98305H6.93901C7.00158 2.24675 7.03635 2.57375 7.03635 2.96754C7.03635 3.34376 7.00158 3.67076 6.93901 3.95204H7.92629C7.98886 4.21574 8.02362 4.54274 8.02362 4.93654C8.02362 5.3233 7.98886 5.65381 7.92629 5.93509ZM5.96563 9.88714C5.89958 9.60586 5.8683 9.27886 5.8683 8.90264C5.8683 8.50181 5.89958 8.16779 5.96563 7.90409C5.89958 7.6228 5.8683 7.29581 5.8683 6.91959C5.8683 6.52579 5.89958 6.1988 5.96563 5.93509C5.89958 5.65381 5.8683 5.3233 5.8683 4.93654C5.8683 4.54274 5.89958 4.21574 5.96563 3.95204H4.99226C4.92621 3.67076 4.89492 3.34376 4.89492 2.96754C4.89492 2.57375 4.92621 2.24675 4.99226 1.98305H2.05823C2.12081 2.24675 2.15557 2.57375 2.15557 2.96754C2.15557 3.34376 2.12081 3.67076 2.05823 3.95204C2.12081 4.21574 2.15557 4.54274 2.15557 4.93654C2.15557 5.3233 2.12081 5.65381 2.05823 5.93509C2.12081 6.1988 2.15557 6.52579 2.15557 6.91959C2.15557 7.29581 2.12081 7.6228 2.05823 7.90409C2.12081 8.16779 2.15557 8.50181 2.15557 8.90264C2.15557 9.27886 2.12081 9.60586 2.05823 9.88714C2.12081 10.1508 2.15557 10.4778 2.15557 10.8716C2.15557 11.2584 2.12081 11.5854 2.05823 11.8561H4.99226C4.92621 11.5854 4.89492 11.2584 4.89492 10.8716C4.89492 10.4778 4.92621 10.1508 4.99226 9.88714H5.96563Z" fill="var(--fill-0, #00FFFF)"/>
</g>
</svg>
