<svg width="180" height="162" viewBox="0 0 180 162" fill="none" xmlns="http://www.w3.org/2000/svg">
<path fill-rule="evenodd" clip-rule="evenodd" d="M1.57031 129.036C1.57031 133.756 5.45173 137.638 10.1725 137.638H153.754C158.475 137.638 162.356 133.756 162.356 129.036V119.349H1.57031V129.036Z" fill="#EDECF7"/>
<path fill-rule="evenodd" clip-rule="evenodd" d="M20.4921 13.8826H143.476V8.00884C143.476 4.47603 140.575 1.57422 137.042 1.57422H26.8917C23.3588 1.57422 20.457 4.47603 20.457 8.00884V13.8826H20.4921Z" fill="#EDECF7"/>
<path fill-rule="evenodd" clip-rule="evenodd" d="M143.474 67.3153L135.887 66.5811L139.314 101.934L139.523 104.172L148.999 94.6955L162.322 108.019L177.289 93.0538L163.966 79.7288L173.443 70.2541C166.695 69.588 150.398 68.0144 143.474 67.3153Z" fill="#EDECF7"/>
<mask id="mask0_844_1917" style="mask-type:luminance" maskUnits="userSpaceOnUse" x="0" y="16" width="165" height="124">
<path d="M0 16.8447H164.346V139.492H0V16.8447Z" fill="white"/>
</mask>
<g mask="url(#mask0_844_1917)">
<path d="M153.757 139.212H10.1758C4.58058 139.212 0 134.632 0 129.036V27.1709C0 21.5776 4.54553 16.9951 10.1758 16.9951H20.4919C22.5894 17.0302 22.5543 20.1423 20.4919 20.1774H10.1758C6.32946 20.1774 3.18226 23.3246 3.18226 27.1709V129.036C3.18226 132.883 6.32946 136.03 10.1758 136.03H153.757C157.604 136.03 160.751 132.883 160.751 129.036V108.019C160.751 107.146 161.45 106.445 162.324 106.445C163.199 106.445 163.898 107.146 163.898 108.019V129.036C163.933 134.632 159.387 139.212 153.757 139.212ZM162.359 70.7429C161.485 70.7429 160.786 70.0438 160.786 69.1693V27.1709C160.786 23.3246 157.639 20.1774 153.792 20.1774H143.476C141.414 20.1774 141.414 16.9951 143.476 16.9951H153.792C159.387 16.9951 163.968 21.5776 163.968 27.1709V69.1693C163.933 70.0438 163.234 70.7429 162.359 70.7429Z" fill="#7269BE"/>
</g>
<path d="M100.325 161.277H63.6429C62.523 161.312 61.7187 160.052 62.2095 159.039C64.0265 155.053 64.936 147.989 64.9711 137.952C64.8659 136.974 65.53 136.029 66.5447 136.029H97.4227C98.2971 136.029 98.9963 136.728 98.9963 137.603C98.9612 147.463 99.9409 155.123 101.758 159.039C102.249 160.052 101.444 161.312 100.325 161.277ZM65.9156 158.13H98.0167C96.6534 153.828 95.9192 147.603 95.8491 139.212H68.1183C68.0131 147.568 67.314 153.793 65.9156 158.13Z" fill="#7269BE"/>
<path d="M111.653 161.277H52.2748C50.2124 161.277 50.1774 158.13 52.2748 158.095H111.653C113.715 158.13 113.75 161.277 111.653 161.277Z" fill="#7269BE"/>
<mask id="mask1_844_1917" style="mask-type:luminance" maskUnits="userSpaceOnUse" x="0" y="117" width="165" height="23">
<path d="M0 117.555H164.346V139.492H0V117.555Z" fill="white"/>
</mask>
<g mask="url(#mask1_844_1917)">
<path d="M153.757 139.211H10.1758C4.58058 139.211 0 134.63 0 129.035V119.348C0 118.474 0.699162 117.774 1.5736 117.774H162.324C163.199 117.774 163.898 118.474 163.898 119.348V129.035C163.933 134.63 159.387 139.211 153.757 139.211ZM3.18226 120.922V129.035C3.18226 132.881 6.32946 136.029 10.1758 136.029H153.757C157.604 136.029 160.751 132.881 160.751 129.035V120.922H3.18226Z" fill="#7269BE"/>
</g>
<path d="M143.476 15.4906H20.4916C19.6171 15.4906 18.918 14.7915 18.918 13.917V8.00823C18.918 3.60098 22.5189 0 26.9262 0H137.076C141.484 0 145.085 3.60098 145.085 8.00823V13.917C145.049 14.7564 144.35 15.4906 143.476 15.4906ZM22.0652 12.3084H141.867V8.00823C141.867 5.34985 139.7 3.18226 137.041 3.18226H26.8911C24.2328 3.18226 22.0652 5.34985 22.0652 8.00823V12.3084Z" fill="#7269BE"/>
<path d="M137.881 103.753H26.0517C22.1001 103.753 18.8828 100.15 18.8828 95.7445V13.8822C18.8828 13.0078 19.582 12.3086 20.4564 12.3086H143.441C144.315 12.3086 145.014 13.0078 145.014 13.8822V67.3496C144.979 69.4139 141.867 69.449 141.832 67.3496V15.4909H22.0651V95.7445C22.0651 98.4029 23.849 100.57 26.0517 100.57H137.881C138.196 100.57 138.547 100.535 138.86 100.43C139.7 100.15 140.574 100.641 140.854 101.48C141.343 103.264 139.281 103.823 137.881 103.753Z" fill="#7269BE"/>
<path d="M124.906 30.7028H77.1044C75.04 30.7028 75.005 27.5556 77.1044 27.5205H124.906C126.934 27.5556 126.969 30.7028 124.906 30.7028Z" fill="#7269BE"/>
<path d="M61.0183 54.1669H41.506C39.2683 54.1669 37.4844 52.3479 37.4844 50.1452V30.633C37.4844 28.3953 39.3034 26.6113 41.506 26.6113H61.0183C63.256 26.6113 65.0399 28.4303 65.0399 30.633V50.1452C65.0399 52.3829 63.2209 54.1669 61.0183 54.1669ZM41.506 29.7585C41.0172 29.7585 40.6316 30.1441 40.6316 30.633V50.1452C40.6316 50.636 41.0172 51.0197 41.506 51.0197H61.0183C61.5091 51.0197 61.8927 50.636 61.8927 50.1452V30.633C61.8927 30.1441 61.5091 29.7585 61.0183 29.7585H41.506Z" fill="#7269BE"/>
<path d="M49.2356 46.0884C48.3962 46.474 44.4447 41.7532 43.3268 40.8437C41.8584 39.4104 44.1311 37.1376 45.5645 38.606L49.2356 42.2771L56.3343 35.1784C57.7677 33.7099 60.0405 35.9827 58.572 37.4161L50.3554 45.6346C50.075 45.9151 49.6563 46.0884 49.2356 46.0884Z" fill="#7269BE"/>
<path d="M124.906 42.4528H77.1044C75.04 42.4528 75.005 39.3056 77.1044 39.2705H124.906C126.934 39.2705 126.969 42.4528 124.906 42.4528Z" fill="#7269BE"/>
<path d="M61.0183 88.6454H41.506C39.2683 88.6454 37.4844 86.8264 37.4844 84.6237V65.1115C37.4844 62.8738 39.3034 61.0898 41.506 61.0898H61.0183C63.256 61.0898 65.0399 62.9088 65.0399 65.1115V84.6237C65.0399 86.8264 63.2209 88.6454 61.0183 88.6454ZM41.506 64.237C41.0522 64.237 40.6316 64.6227 40.6316 65.1115V84.6237C40.6316 85.1145 41.0172 85.4982 41.506 85.4982H61.0183C61.5091 85.4982 61.8927 85.1145 61.8927 84.6237V65.1115C61.8927 64.6577 61.5091 64.237 61.0183 64.237H41.506Z" fill="#7269BE"/>
<path d="M124.906 65.1823H77.1044C75.04 65.1823 75.005 62.0351 77.1044 62H124.906C126.934 62 126.969 65.1823 124.906 65.1823Z" fill="#7269BE"/>
<path d="M124.906 76.9313H77.1044C75.04 76.9313 75.005 73.7841 77.1044 73.749H124.906C126.934 73.749 126.969 76.8962 124.906 76.9313Z" fill="#7269BE"/>
<mask id="mask2_844_1917" style="mask-type:luminance" maskUnits="userSpaceOnUse" x="133" y="64" width="47" height="47">
<path d="M133.934 64.707H179.11V110.077H133.934V64.707Z" fill="white"/>
</mask>
<g mask="url(#mask2_844_1917)">
<path d="M162.362 109.592C161.943 109.592 161.558 109.453 161.244 109.138L149.039 96.9347L140.682 105.292C139.808 106.236 138.059 105.64 137.989 104.312L134.318 66.7208C134.212 65.7411 135.052 64.9018 136.066 64.9719L173.658 68.6449C174.951 68.7481 175.58 70.4619 174.637 71.3364L166.278 79.6952L178.484 91.8984C179.113 92.5274 179.113 93.507 178.484 94.1361L163.517 109.103C163.166 109.453 162.747 109.592 162.362 109.592ZM149.039 93.1214C149.46 93.1214 149.878 93.2967 150.159 93.5771L162.362 105.78L175.091 93.0532L162.888 80.8481C162.257 80.2191 162.257 79.2394 162.888 78.6104L170.02 71.4766L137.675 68.3294L140.822 100.676L147.956 93.5421C148.199 93.2967 148.62 93.1214 149.039 93.1214Z" fill="#7269BE"/>
</g>
</svg>
