<svg preserveAspectRatio="none" width="100%" height="100%" overflow="visible" style="display: block;" viewBox="0 0 9 14" fill="none" xmlns="http://www.w3.org/2000/svg">
<g id="Group">
<path id="Vector" d="M8.02305 0.984491C8.02305 1.37126 7.98829 1.70177 7.92571 1.98305H4.99168C5.05426 2.24676 5.08902 2.57375 5.08902 2.96755C5.08902 3.34376 5.05426 3.67076 4.99168 3.95204C5.05426 4.21575 5.08902 4.54274 5.08902 4.93654C5.08902 5.3233 5.05426 5.65381 4.99168 5.9351C5.05426 6.1988 5.08902 6.52579 5.08902 6.91959C5.08902 7.29581 5.05426 7.6228 4.99168 7.90409C5.05426 8.16779 5.08902 8.50182 5.08902 8.90265C5.08902 9.27886 5.05426 9.60586 4.99168 9.88714C5.05426 10.1508 5.08902 10.4778 5.08902 10.8716C5.08902 11.2584 5.05426 11.5854 4.99168 11.8561C5.05426 12.1304 5.08902 12.4609 5.08902 12.8547C5.08902 13.2309 5.05426 13.5579 4.99168 13.8392H3.03103C2.96498 13.5579 2.93369 13.2309 2.93369 12.8547C2.93369 12.4609 2.96498 12.1304 3.03103 11.8561C2.96498 11.5854 2.93369 11.2584 2.93369 10.8716C2.93369 10.4778 2.96498 10.1508 3.03103 9.88714C2.96498 9.60586 2.93369 9.27886 2.93369 8.90265C2.93369 8.50182 2.96498 8.16779 3.03103 7.90409C2.96498 7.6228 2.93369 7.29581 2.93369 6.91959C2.93369 6.52579 2.96498 6.1988 3.03103 5.9351C2.96498 5.65381 2.93369 5.3233 2.93369 4.93654C2.93369 4.54274 2.96498 4.21575 3.03103 3.95204C2.96498 3.67076 2.93369 3.34376 2.93369 2.96755C2.93369 2.57375 2.96498 2.24676 3.03103 1.98305H0.0970054C0.0309548 1.70177 -0.000331944 1.37126 -0.000331944 0.984491C-0.000331944 0.590693 0.0309548 0.2637 0.0970054 -3.83662e-06H7.92571C7.98829 0.2637 8.02305 0.590693 8.02305 0.984491Z" fill="var(--fill-0, #FF00FF)"/>
</g>
</svg>
