<svg preserveAspectRatio="none" width="100%" height="100%" overflow="visible" style="display: block;" viewBox="0 0 9 14" fill="none" xmlns="http://www.w3.org/2000/svg">
<g id="Group">
<path id="Vector" d="M7.92635 1.98304C7.98893 2.24675 8.02369 2.57374 8.02369 2.96754C8.02369 3.34375 7.98893 3.67075 7.92635 3.95203C7.98893 4.21574 8.02369 4.54273 8.02369 4.93653C8.02369 5.32329 7.98893 5.6538 7.92635 5.93509C7.98893 6.19879 8.02369 6.52578 8.02369 6.91958C8.02369 7.2958 7.98893 7.62279 7.92635 7.90408C7.98893 8.16778 8.02369 8.50181 8.02369 8.90264C8.02369 9.27885 7.98893 9.60585 7.92635 9.88713C7.98893 10.1508 8.02369 10.4778 8.02369 10.8716C8.02369 11.2584 7.98893 11.5854 7.92635 11.8561H6.93907C7.00165 12.1304 7.03641 12.4609 7.03641 12.8547C7.03641 13.2309 7.00165 13.5579 6.93907 13.8392H1.08493C1.01887 13.5579 0.987588 13.2309 0.987588 12.8547C0.987588 12.4609 1.01887 12.1304 1.08493 11.8561H0.0976463C0.0315957 11.5854 0.000308942 11.2584 0.000308942 10.8716C0.000308942 10.4778 0.0315957 10.1508 0.0976463 9.88713C0.0315957 9.60585 0.000308942 9.27885 0.000308942 8.90264C0.000308942 8.50181 0.0315957 8.16778 0.0976463 7.90408C0.0315957 7.62279 0.000308942 7.2958 0.000308942 6.91958C0.000308942 6.52578 0.0315957 6.19879 0.0976463 5.93509C0.0315957 5.6538 0.000308942 5.32329 0.000308942 4.93653C0.000308942 4.54273 0.0315957 4.21574 0.0976463 3.95203C0.0315957 3.67075 0.000308942 3.34375 0.000308942 2.96754C0.000308942 2.57374 0.0315957 2.24675 0.0976463 1.98304C0.0315957 1.70176 0.000308942 1.37125 0.000308942 0.984482C0.000308942 0.590684 0.0315957 0.263691 0.0976463 -1.32873e-05H2.0583C2.12087 0.263691 2.15564 0.590684 2.15564 0.984482C2.15564 1.37125 2.12087 1.70176 2.0583 1.98304C2.12087 2.24675 2.15564 2.57374 2.15564 2.96754C2.15564 3.34375 2.12087 3.67075 2.0583 3.95203C2.12087 4.21574 2.15564 4.54273 2.15564 4.93653C2.15564 5.32329 2.12087 5.6538 2.0583 5.93509C2.12087 6.19879 2.15564 6.52578 2.15564 6.91958C2.15564 7.2958 2.12087 7.62279 2.0583 7.90408C2.12087 8.16778 2.15564 8.50181 2.15564 8.90264C2.15564 9.27885 2.12087 9.60585 2.0583 9.88713C2.12087 10.1508 2.15564 10.4778 2.15564 10.8716C2.15564 11.2584 2.12087 11.5854 2.0583 11.8561H5.9657C5.89965 11.5854 5.86836 11.2584 5.86836 10.8716C5.86836 10.4778 5.89965 10.1508 5.9657 9.88713C5.89965 9.60585 5.86836 9.27885 5.86836 8.90264C5.86836 8.50181 5.89965 8.16778 5.9657 7.90408C5.89965 7.62279 5.86836 7.2958 5.86836 6.91958C5.86836 6.52578 5.89965 6.19879 5.9657 5.93509C5.89965 5.6538 5.86836 5.32329 5.86836 4.93653C5.86836 4.54273 5.89965 4.21574 5.9657 3.95203C5.89965 3.67075 5.86836 3.34375 5.86836 2.96754C5.86836 2.57374 5.89965 2.24675 5.9657 1.98304C5.89965 1.70176 5.86836 1.37125 5.86836 0.984482C5.86836 0.590684 5.89965 0.263691 5.9657 -1.32873e-05H7.92635C7.98893 0.263691 8.02369 0.590684 8.02369 0.984482C8.02369 1.37125 7.98893 1.70176 7.92635 1.98304Z" fill="var(--fill-0, #F1F9EE)"/>
</g>
</svg>
