<svg width="15" height="15" viewBox="0 0 15 15" fill="none" xmlns="http://www.w3.org/2000/svg">
<g clip-path="url(#clip0_1584_1446)">
<path d="M4.375 0H2.5C1.83696 0 1.20107 0.263392 0.732233 0.732233C0.263392 1.20107 0 1.83696 0 2.5L0 4.375C0 5.03804 0.263392 5.67393 0.732233 6.14277C1.20107 6.61161 1.83696 6.875 2.5 6.875H4.375C5.03804 6.875 5.67393 6.61161 6.14277 6.14277C6.61161 5.67393 6.875 5.03804 6.875 4.375V2.5C6.875 1.83696 6.61161 1.20107 6.14277 0.732233C5.67393 0.263392 5.03804 0 4.375 0V0ZM5.625 4.375C5.625 4.70652 5.4933 5.02446 5.25888 5.25888C5.02446 5.4933 4.70652 5.625 4.375 5.625H2.5C2.16848 5.625 1.85054 5.4933 1.61612 5.25888C1.3817 5.02446 1.25 4.70652 1.25 4.375V2.5C1.25 2.16848 1.3817 1.85054 1.61612 1.61612C1.85054 1.3817 2.16848 1.25 2.5 1.25H4.375C4.70652 1.25 5.02446 1.3817 5.25888 1.61612C5.4933 1.85054 5.625 2.16848 5.625 2.5V4.375Z" fill="#374957"/>
<path d="M4.375 8.125H2.5C1.83696 8.125 1.20107 8.38839 0.732233 8.85723C0.263392 9.32608 0 9.96196 0 10.625L0 12.5C0 13.163 0.263392 13.7989 0.732233 14.2678C1.20107 14.7366 1.83696 15 2.5 15H4.375C5.03804 15 5.67393 14.7366 6.14277 14.2678C6.61161 13.7989 6.875 13.163 6.875 12.5V10.625C6.875 9.96196 6.61161 9.32608 6.14277 8.85723C5.67393 8.38839 5.03804 8.125 4.375 8.125ZM5.625 12.5C5.625 12.8315 5.4933 13.1495 5.25888 13.3839C5.02446 13.6183 4.70652 13.75 4.375 13.75H2.5C2.16848 13.75 1.85054 13.6183 1.61612 13.3839C1.3817 13.1495 1.25 12.8315 1.25 12.5V10.625C1.25 10.2935 1.3817 9.97554 1.61612 9.74112C1.85054 9.5067 2.16848 9.375 2.5 9.375H4.375C4.70652 9.375 5.02446 9.5067 5.25888 9.74112C5.4933 9.97554 5.625 10.2935 5.625 10.625V12.5Z" fill="#374957"/>
<path d="M13.9332 11.9056L12.5001 13.3369V1.64562L13.9332 3.07687C13.9913 3.1349 14.0602 3.18092 14.1361 3.21231C14.212 3.2437 14.2932 3.25984 14.3753 3.25981C14.4574 3.25978 14.5387 3.24358 14.6145 3.21214C14.6904 3.1807 14.7593 3.13463 14.8173 3.07656C14.8753 3.01849 14.9214 2.94956 14.9527 2.87371C14.9841 2.79785 15.0003 2.71656 15.0002 2.63446C15.0002 2.55237 14.984 2.47109 14.9526 2.39525C14.9211 2.31942 14.8751 2.25052 14.817 2.1925L13.2001 0.57812C12.8486 0.226994 12.372 0.0297699 11.8751 0.0297699C11.3782 0.0297699 10.9017 0.226994 10.5501 0.57812L8.93325 2.1925C8.87518 2.25052 8.82911 2.31942 8.79767 2.39525C8.76623 2.47109 8.75003 2.55237 8.75 2.63446C8.74997 2.71656 8.76611 2.79785 8.7975 2.87371C8.82889 2.94956 8.87491 3.01849 8.93294 3.07656C8.99097 3.13463 9.05986 3.1807 9.1357 3.21214C9.21153 3.24358 9.29281 3.25978 9.3749 3.25981C9.457 3.25984 9.53829 3.2437 9.61415 3.21231C9.69 3.18092 9.75893 3.1349 9.817 3.07687L11.2501 1.64562V13.3369L9.817 11.9056C9.75893 11.8476 9.69 11.8016 9.61415 11.7702C9.53829 11.7388 9.457 11.7227 9.3749 11.7227C9.29281 11.7227 9.21153 11.7389 9.1357 11.7704C9.05986 11.8018 8.99097 11.8479 8.93294 11.9059C8.87491 11.964 8.82889 12.0329 8.7975 12.1088C8.76611 12.1846 8.74997 12.2659 8.75 12.348C8.75003 12.4301 8.76623 12.5114 8.79767 12.5872C8.82911 12.6631 8.87518 12.732 8.93325 12.79L10.5501 14.4044C10.9017 14.7555 11.3782 14.9527 11.8751 14.9527C12.372 14.9527 12.8486 14.7555 13.2001 14.4044L14.817 12.79C14.8751 12.732 14.9211 12.6631 14.9526 12.5872C14.984 12.5114 15.0002 12.4301 15.0002 12.348C15.0003 12.2659 14.9841 12.1846 14.9527 12.1088C14.9214 12.0329 14.8753 11.964 14.8173 11.9059C14.7593 11.8479 14.6904 11.8018 14.6145 11.7704C14.5387 11.7389 14.4574 11.7227 14.3753 11.7227C14.2932 11.7227 14.212 11.7388 14.1361 11.7702C14.0602 11.8016 13.9913 11.8476 13.9332 11.9056Z" fill="#374957"/>
</g>
<defs>
<clipPath id="clip0_1584_1446">
<rect width="15" height="15" fill="white"/>
</clipPath>
</defs>
</svg>
