<svg width="69" height="37" viewBox="0 0 69 37" fill="none" xmlns="http://www.w3.org/2000/svg">
<mask id="mask0_3060_1185" style="mask-type:luminance" maskUnits="userSpaceOnUse" x="1" y="4" width="68" height="33">
<path d="M1.58789 4.8512H68.6211V36.3797H1.58789V4.8512Z" fill="white"/>
</mask>
<g mask="url(#mask0_3060_1185)">
<path d="M68.6098 22.0417C67.9793 29.9834 60.8628 36.3081 52.9313 36.3799C45.9057 36.443 41.4302 31.5746 38.4427 27.1801L27.217 28.0044C24.7975 31.184 19.8449 32.4248 15.5711 32.4248C8.26428 32.4248 1.71289 26.4965 1.71289 19.1034C1.71289 11.7102 7.44926 4.89441 14.756 4.89441C16.0907 4.89441 17.4027 5.12132 18.6607 5.53205C24.8572 5.41716 39.6411 5.23908 48.3451 5.13855C49.8558 4.62729 56.9553 5.91118 58.5768 6.37361C68.8 9.2918 68.6751 21.246 68.6098 22.0417Z" fill="#2E1E54"/>
</g>
<mask id="mask1_3060_1185" style="mask-type:luminance" maskUnits="userSpaceOnUse" x="0" y="0" width="69" height="37">
<path d="M0 0.947876H68.7001V36.2419H0V0.947876Z" fill="white"/>
</mask>
<g mask="url(#mask1_3060_1185)">
<path d="M54.1979 30.0151C60.8345 30.0151 66.2131 24.5751 66.2131 17.8627C66.2131 13.741 63.9015 9.83765 60.5818 7.43933C63.1802 9.84339 64.8954 13.2326 64.8954 16.7856C64.8954 23.4951 59.5168 28.9351 52.8803 28.9351C50.1739 28.9351 47.5812 28.039 45.4627 26.5225C47.7743 28.6853 50.9009 30.0151 54.1979 30.0151ZM46.8343 15.7516C47.8879 15.7516 48.7398 14.8899 48.7398 13.8272C48.7398 12.7616 47.7715 11.7908 46.7179 11.7908C45.6672 11.7908 44.8408 12.7702 44.8408 13.8358C44.8408 14.8985 45.7836 15.7516 46.8343 15.7516ZM49.3135 22.0705C49.3135 23.1734 50.2932 24.061 51.3865 24.061C52.4798 24.061 53.3659 23.1648 53.3659 22.059C53.3659 20.9532 52.3577 19.9422 51.2644 19.9422C50.1711 19.9422 49.3135 20.9618 49.3135 22.0705ZM52.0908 9.93243C52.0908 10.998 53.0336 11.8511 54.0843 11.8511C55.1379 11.8511 55.9898 10.9865 55.9898 9.92381C55.9898 8.86109 55.0186 7.8874 53.9679 7.8874C52.9172 7.8874 52.0908 8.8697 52.0908 9.93243ZM57.1513 17.8885C57.1513 18.9943 58.131 19.8819 59.2243 19.8819C60.3177 19.8819 61.2037 18.9857 61.2037 17.8799C61.2037 16.7741 60.1955 15.7631 59.1022 15.7631C58.0089 15.7631 57.1513 16.7827 57.1513 17.8885ZM19.3566 18.2361L18.6239 14.1144L15.5938 14.7492L14.9038 10.3288L11.9987 10.8573L11.9135 14.663L8.88342 15.5735L8.3183 17.2652L11.8737 18.1298L11.1411 20.2667L15.7614 21.048L15.4462 17.9603L19.3566 18.2361ZM11.3966 24.5435C8.50573 23.1763 6.39577 20.3127 6.39577 16.9752C6.39577 12.2963 10.025 7.98218 14.6482 7.98218C15.3809 7.98218 16.105 8.09133 16.8036 8.29238C15.7131 7.77251 14.5232 7.47667 13.3106 7.47667C8.68748 7.47667 5.05823 11.7879 5.05823 16.4668C5.05823 20.3012 7.84406 23.5124 11.3966 24.5435ZM52.46 33.3756C47.1865 33.3756 42.1714 30.3023 39.184 25.9107L24.4313 24.7216C22.0118 27.9011 18.215 29.9519 13.9411 29.9519C13.3419 29.9519 12.7455 29.9088 12.1605 29.8341C12.2429 29.8772 12.2259 29.8801 12.1236 29.8715C12.0441 29.8657 11.9362 29.8456 11.8794 29.8284C11.8482 29.8169 11.8254 29.7997 11.8084 29.7824C5.40468 28.7685 0.0800781 23.2941 0.0800781 16.6305C0.0800781 9.23735 5.81645 2.42153 13.1261 2.42153C13.1999 2.42153 13.376 2.41866 13.6429 2.41579C14.5573 2.4043 16.7411 1.05722 19.3566 1.01988C21.3501 0.991162 23.5112 2.27505 26.0272 2.23771C30.267 2.17452 34.964 2.10272 39.1641 2.0424C39.1641 2.0424 46.9252 1.01988 47.5528 1.01988C47.7204 1.01988 51.8665 1.87294 52.034 1.87868C60.1927 2.1458 67.3887 8.82662 67.3887 17.1159C67.3887 25.5746 60.8231 33.3756 52.46 33.3756ZM65.2305 28.2717C64.9749 28.5617 64.8471 28.7025 64.583 28.9811C64.8471 28.7283 64.9749 28.5991 65.2277 28.332C65.5769 27.9701 65.8552 27.657 65.8638 27.657C65.8751 27.657 65.8723 27.6283 65.8638 27.5967C65.8552 27.5622 65.5997 27.8494 65.2305 28.2717ZM67.6329 23.9145C67.7068 23.7852 67.7267 23.7278 67.6784 23.7852C67.6301 23.8427 67.5676 23.9489 67.5449 24.0179C67.5165 24.0897 67.5591 24.0437 67.6329 23.9145ZM67.7693 24.9198C67.7494 24.9485 67.7551 24.9887 67.7806 25.0059C67.8062 25.0203 67.8346 25.0232 67.8431 25.0117C67.8516 24.9973 67.8459 24.96 67.8289 24.9255C67.8147 24.891 67.7863 24.8882 67.7693 24.9198ZM66.6759 25.0404C66.7498 24.9312 66.7725 24.8738 66.7299 24.914C66.6873 24.9542 66.6277 25.0433 66.5993 25.1122C66.568 25.1811 66.6049 25.1495 66.6759 25.0404ZM66.1165 27.3037C66.0796 27.3698 66.125 27.3296 66.2187 27.2089C66.3124 27.0912 66.3409 27.0337 66.284 27.0854C66.2273 27.1371 66.1506 27.2348 66.1165 27.3037ZM67.0252 25.9394C67.1048 25.8906 67.0366 26.0227 66.7924 26.3645C66.5993 26.6345 66.4374 26.8729 66.4402 26.8987C66.4431 26.9246 66.7583 26.5282 67.1189 25.9997C67.6329 25.2414 67.6926 25.1007 67.4682 25.3879C67.3121 25.589 67.1189 25.8073 67.048 25.8791C66.9457 25.9796 66.94 25.994 67.0252 25.9394ZM63.7623 28.6939C63.7339 28.7456 63.7652 28.7312 63.8333 28.6623C63.9015 28.5933 63.927 28.5503 63.8873 28.5704C63.8504 28.5876 63.7936 28.6422 63.7623 28.6939ZM66.0427 25.9739C66.0796 25.925 66.091 25.8906 66.0625 25.8934C66.037 25.8992 66.0058 25.9394 65.9944 25.9825C65.9802 26.0313 65.9972 26.0284 66.0427 25.9739ZM66.2301 25.6493C66.2017 25.7154 66.2358 25.6866 66.3125 25.5804C66.3863 25.4741 66.4118 25.4167 66.3692 25.4569C66.3238 25.4942 66.2642 25.5804 66.2301 25.6493ZM65.8297 26.2611C65.8694 26.2123 65.8808 26.1749 65.8524 26.1807C65.8268 26.1835 65.7956 26.2237 65.7814 26.2668C65.7672 26.3157 65.7871 26.3128 65.8297 26.2611ZM65.8439 25.5689C65.8922 25.5028 65.9007 25.4684 65.8638 25.4942C65.8297 25.5172 65.7899 25.5689 65.7786 25.612C65.7701 25.6522 65.7984 25.6349 65.8439 25.5689ZM65.3782 25.7613C65.3299 25.882 65.0857 26.2439 64.8272 26.5569C64.336 27.1486 64.2195 27.3008 64.3019 27.3755C64.3388 27.41 64.4694 27.2807 64.7988 26.8327C65.4037 26.0083 65.8297 25.2501 65.6593 25.4684C65.5542 25.6062 65.5201 25.6235 65.5258 25.5488C65.5343 25.4167 65.4889 25.4856 65.3782 25.7613ZM66.9684 24.9887C67.0167 24.9772 67.1843 24.69 67.2837 24.4401C67.3717 24.2161 66.5198 25.4425 65.9092 26.2582C65.7672 26.4478 65.6337 26.5885 65.6139 26.5742C65.5968 26.5598 65.4662 26.7005 65.3242 26.8872C65.1794 27.0739 64.8244 27.5105 64.5262 27.8494C64.228 28.1855 63.9923 28.4526 64.0179 28.4526C64.0633 28.4497 64.3729 28.3435 65.983 26.2956C66.5311 25.6033 66.9514 24.9944 66.9684 24.9887ZM62.2146 31.4196C62.297 31.3019 62.2885 31.3047 62.1238 31.4282C62.0244 31.5029 61.9562 31.5862 61.9733 31.6092C62.013 31.6609 62.084 31.6063 62.2146 31.4196ZM55.7229 34.9496C55.7541 34.9697 55.862 34.9553 55.9614 34.9151C56.0353 34.8864 56.0693 34.8721 56.1432 34.8433C56.0779 34.8318 56.0438 34.8232 55.9785 34.8117C55.8109 34.7801 55.6235 34.8778 55.7229 34.9496ZM54.9476 34.0764C54.6608 34.1655 54.4933 34.2315 54.5642 34.2344C54.6324 34.2373 54.8937 34.1684 55.1379 34.0764C55.7002 33.8639 55.6121 33.8696 54.9476 34.0764ZM55.9728 34.6509C56.075 34.6107 56.1261 34.5906 56.2284 34.5475C56.1091 34.5791 56.0466 34.5934 55.9273 34.6222C55.7626 34.6624 55.5241 34.7342 55.3991 34.7859C55.3054 34.8204 55.26 34.8376 55.1691 34.8721C55.277 34.8491 55.3338 34.8376 55.4417 34.8146C55.5923 34.7801 55.8308 34.7083 55.9728 34.6509ZM56.7764 34.0563C56.7509 34.0477 56.6146 34.0879 56.4697 34.1454C56.3249 34.2028 56.1971 34.2315 56.1886 34.2114C56.1744 34.177 55.8138 34.3033 55.2344 34.5073C55.0243 34.5791 54.9505 34.6279 54.959 34.6911C54.9675 34.7629 55.118 34.7428 55.9046 34.4441C56.4129 34.2488 56.802 34.0649 56.7764 34.0563ZM56.589 34.6968C56.8247 34.5963 56.9156 34.5417 56.7935 34.5848C56.6714 34.625 56.4811 34.7055 56.3675 34.7658C56.2539 34.8261 56.3533 34.7974 56.589 34.6968ZM63.2313 31.9223C63.1745 31.951 63.0978 32.0142 63.0581 32.063C63.0211 32.1147 63.0666 32.0917 63.1603 32.0142C63.2568 31.9366 63.2881 31.8935 63.2313 31.9223ZM62.8593 32.2238C62.7883 32.2612 62.686 32.3416 62.6321 32.4019C62.5781 32.4594 62.6349 32.4306 62.7599 32.333C62.8848 32.2325 62.9303 32.1836 62.8593 32.2238ZM59.8889 32.7897C59.9059 32.8155 59.9456 32.8241 59.974 32.8069C60.0024 32.7897 60.0195 32.7638 60.011 32.7523C60.0053 32.7409 59.9655 32.7322 59.9286 32.7351C59.8889 32.738 59.8718 32.761 59.8889 32.7897ZM57.8811 34.1425C57.8556 34.1339 57.8073 34.1569 57.776 34.1913C57.7391 34.2287 57.7562 34.2344 57.8215 34.2057C57.8811 34.177 57.9095 34.1482 57.8811 34.1425ZM62.3027 30.9543C62.2828 30.9514 61.7972 31.322 61.2008 31.7384C60.4568 32.2583 60.0734 32.4565 60.0252 32.4364C59.9286 32.3933 59.4402 32.6317 59.4828 32.7035C59.5197 32.7638 59.673 32.7265 60.1018 32.5226C60.4142 32.3761 62.368 30.9572 62.3027 30.9543ZM61.6098 30.1329C61.5927 30.0725 61.5302 30.1128 61.3286 30.2994C61.0219 30.5809 61.002 30.6183 61.1895 30.6154C61.2661 30.6125 61.3627 30.5838 61.4081 30.5522C61.5217 30.466 61.6382 30.2219 61.6098 30.1329ZM61.5501 31.7901C61.6098 31.7471 61.6552 31.6781 61.6552 31.6408C61.6524 31.5805 60.9169 32.1434 60.4852 32.5025C60.4142 32.5628 60.3233 32.6374 60.2836 32.6662C60.241 32.6978 60.2211 32.7409 60.2353 32.7638C60.2495 32.7868 60.5704 32.603 60.9396 32.3416C61.3116 32.0802 61.5672 31.8591 61.5246 31.8648C61.4763 31.8677 61.4877 31.839 61.5501 31.7901ZM57.8584 33.008C57.7988 33.0539 57.847 33.0424 57.9606 32.9821C58.0771 32.9218 58.1253 32.8845 58.0685 32.8988C58.0117 32.9132 57.918 32.962 57.8584 33.008ZM62.0386 30.3655C61.7404 30.6125 61.6325 30.67 61.5189 30.6585C61.4394 30.6527 61.3485 30.6815 61.3144 30.7245C61.2576 30.805 60.8913 31.1094 60.6954 31.2358C60.6215 31.2846 60.6045 31.2789 60.6329 31.2128C60.6556 31.164 60.6442 31.1065 60.613 31.0836C60.5761 31.0577 60.5392 31.1037 60.4994 31.2301C60.4653 31.3306 60.4057 31.4369 60.3659 31.4656C60.2665 31.5345 60.1444 31.4799 60.187 31.388C60.2069 31.3478 60.0138 31.4541 59.7525 31.6149C59.4544 31.8045 59.2897 31.928 59.3095 31.9567C59.3266 31.9855 59.4572 31.9366 59.602 31.8447C59.8519 31.6867 59.8605 31.6839 59.798 31.8246C59.7497 31.9395 59.7582 31.9826 59.8434 32.0285C59.9826 32.1003 60.0933 32.0257 60.1217 31.8361C60.1501 31.6408 60.2978 31.5374 60.3773 31.6609C60.4313 31.7384 60.4596 31.7327 60.5789 31.6092C60.7124 31.4713 60.8288 31.4254 61.8426 30.6412C62.1152 30.4316 62.3538 30.2047 62.3737 30.1501C62.3992 30.0869 62.2856 30.1645 62.0386 30.3655ZM66.923 23.7508C66.8747 23.8053 66.8123 23.9059 66.7867 23.9748C66.7611 24.0437 66.8009 24.0006 66.8747 23.8771C66.9486 23.7508 66.9684 23.6962 66.923 23.7508ZM66.8265 24.1328C66.8179 24.1816 66.835 24.1758 66.8719 24.1213C66.906 24.0696 66.9116 24.0322 66.8861 24.038C66.8605 24.0466 66.835 24.0868 66.8265 24.1328ZM66.4346 24.1902C66.4715 24.1385 66.4772 24.1012 66.4516 24.1098C66.426 24.1155 66.3976 24.1557 66.3891 24.2017C66.3806 24.2477 66.3976 24.2448 66.4346 24.1902ZM64.4268 29.1419C64.4041 29.1908 64.424 29.1879 64.4751 29.1391C64.5234 29.096 64.5376 29.0586 64.5092 29.0615C64.4836 29.0615 64.4439 29.0989 64.4268 29.1419ZM64.8414 30.0007C64.8187 30.0496 64.8386 30.0496 64.8926 29.9979C64.9408 29.9519 64.9579 29.9174 64.9295 29.9174C64.9011 29.9203 64.8613 29.9577 64.8414 30.0007ZM67.6301 25.5976C67.5762 25.6407 67.5052 25.7671 67.4739 25.882C67.4171 26.083 67.1672 26.442 66.7043 26.9246C66.5396 27.0969 66.463 27.2233 66.3834 27.4646C66.2869 27.7489 66.2216 27.8667 65.5798 28.5531C65.1879 28.9696 64.8301 29.2913 64.8017 29.2856C64.7733 29.2798 64.8272 29.2166 64.921 29.1419C65.0203 29.0644 65.0771 28.9897 65.0544 28.9667C65.0118 28.9265 64.5433 29.3258 64.1798 29.6819C64.0662 29.7939 63.9583 29.8715 63.9412 29.8543C63.9242 29.8341 64.0009 29.6647 64.1088 29.478C64.2167 29.2884 64.3047 29.0788 64.3076 29.0127C64.3104 28.9064 64.2905 28.9208 64.1343 29.119C64.0207 29.2654 63.9412 29.3258 63.9157 29.297C63.856 29.2367 63.5096 29.6647 63.4102 29.9146C63.3534 30.0639 63.1802 30.2707 62.7002 30.6987C62.3509 31.0118 62.0017 31.3277 61.9392 31.4139C61.8256 31.5661 62.5128 31.0491 63.2909 30.2736C63.4812 30.084 63.5834 29.9835 63.5238 30.0553C63.2171 30.423 63.7566 30.2276 64.3274 29.725C64.4694 29.6044 64.1798 29.906 63.6629 30.3713C63.1177 30.8595 62.8763 31.0663 63.112 30.8911C63.5948 30.5321 63.856 30.4574 63.4982 30.7935C63.3733 30.9112 63.237 31.029 63.1944 31.0577C63.1205 31.1065 62.1806 31.7672 61.8341 31.9912C61.7347 32.0573 61.7716 32.0084 61.9278 31.8562C62.0755 31.7183 61.8114 31.9136 61.2605 32.3043C60.3517 32.9563 60.3375 32.9505 61.002 32.5312C61.2747 32.3588 61.4081 32.2698 61.6751 32.0889C61.3599 32.3301 61.2008 32.4479 60.8743 32.6748C60.4284 32.9879 59.957 33.3182 59.8434 33.4273C59.3976 33.8409 59.3493 33.8582 59.0568 33.8122C58.9489 33.7921 58.8949 33.7835 58.787 33.7662C58.9091 33.7088 58.9716 33.6829 59.0965 33.6255C59.2669 33.5451 59.6049 33.3756 59.8434 33.2464C60.2665 33.0137 60.2665 33.0108 59.9371 33.1573C59.7469 33.2435 59.4231 33.3928 59.2158 33.4905C59.0085 33.591 58.8381 33.6399 58.8438 33.6083C58.8466 33.5767 58.787 33.5738 58.716 33.5996C58.6308 33.6312 58.6819 33.5709 58.8495 33.4331C58.9546 33.344 59.0085 33.3009 59.1136 33.2119C58.9318 33.3153 58.841 33.3641 58.6564 33.4618C58.4065 33.5968 57.8016 33.8984 57.3103 34.1166C56.8162 34.3321 56.4612 34.4843 56.5294 34.4757C56.5975 34.4642 56.6884 34.4613 56.7282 34.4671C56.7651 34.4728 57.1854 34.3062 57.6483 34.0793C58.4008 33.7059 58.4832 33.6571 58.5229 33.7318C58.5513 33.7863 58.5172 33.8524 58.4292 33.9156C58.3099 34.0018 58.3184 34.0046 58.486 33.9213C58.6365 33.8495 58.7558 33.8467 58.9688 33.9012C59.0852 33.9328 59.142 33.9472 59.2556 33.9759C58.9205 34.1482 58.7501 34.2315 58.4093 34.3924C57.9408 34.6135 57.4069 34.8146 57.2365 34.8577C56.7282 34.9841 55.5525 35.3833 55.5042 35.4723C55.4446 35.5844 55.8961 35.4953 56.5123 35.2397C57.0604 35.0128 57.174 34.9697 57.174 35.0415C57.174 35.0903 57.2223 35.1191 57.2904 35.1047C57.3529 35.0903 57.2535 35.1564 57.0633 35.2483C56.9241 35.3144 56.856 35.346 56.7168 35.412C56.927 35.3546 57.0349 35.3259 57.245 35.2655C57.5318 35.1823 57.8442 35.0731 57.9379 35.03C58.0316 34.9841 58.1736 34.964 58.2588 34.9812C58.3752 35.007 58.6706 34.9266 59.5708 34.5044C60.2041 34.2057 60.8799 33.8266 61.0872 33.6916C61.5814 33.3699 61.9875 33.0022 61.9165 32.9764C61.8852 32.9678 61.9591 32.8816 62.0812 32.7897C62.1664 32.7207 62.2118 32.6863 62.297 32.6173C62.2146 32.6604 62.1749 32.6805 62.0925 32.7179C61.9221 32.8012 61.9108 32.7983 62.0102 32.7121C62.3453 32.4249 63.8276 31.2616 63.9469 31.2214C64.2564 31.1094 64.4041 31.0836 64.3786 31.1582C64.3445 31.253 63.8731 31.5776 63.8674 31.5115C63.8646 31.4828 63.7822 31.5259 63.6885 31.6034C63.5891 31.681 63.5408 31.7499 63.5749 31.7585C63.6118 31.77 63.4272 31.9452 63.0978 32.1951C62.7996 32.422 62.5753 32.6001 62.6008 32.603C62.6633 32.6087 63.6544 31.8505 64.2706 31.3449C64.8414 30.7533 65.364 30.1156 65.8439 29.4407C65.824 29.455 65.8041 29.4665 65.7814 29.4809C65.6621 29.5555 65.6678 29.5354 65.8212 29.3602C65.9149 29.254 65.9802 29.2023 66.0058 29.2137C66.0256 29.1822 66.0483 29.1534 66.0711 29.1218C66.0682 29.119 66.0682 29.1161 66.0682 29.1132C66.0682 29.1046 66.0768 29.0989 66.0881 29.096C66.1506 29.0012 66.2102 28.9064 66.2699 28.8116C66.1648 28.915 66.0114 29.0759 65.8467 29.2568C65.5258 29.6101 65.3867 29.7738 65.4776 29.7221C65.5684 29.6676 65.4463 29.8227 65.1311 30.1415C64.9295 30.3397 64.8301 30.4373 64.6256 30.6298C64.7733 30.4718 64.8471 30.3914 64.992 30.2276C65.31 29.8715 65.3242 29.837 65.1425 29.972C65.0289 30.0553 64.8727 30.1817 64.796 30.2535C64.6569 30.3799 64.6569 30.3799 64.7364 30.2391C64.8528 30.0323 64.7506 30.1386 64.5063 30.4603C64.3644 30.647 64.0094 30.983 63.4272 31.4311C62.4106 32.2095 61.6779 32.7207 61.6978 32.8012C61.7035 32.8328 61.6722 32.8845 61.624 32.9189C61.5473 32.9706 61.5444 32.9649 61.5842 32.8787C61.6154 32.8098 61.5331 32.85 61.3031 33.008C60.9027 33.2837 60.1757 33.614 60.1416 33.5566C60.1274 33.5336 60.0479 33.5537 59.9655 33.5996C59.514 33.8495 60.5562 33.0855 61.144 32.6834C62.2913 31.8964 64.3502 30.1587 65.0942 29.4378C65.4776 29.0673 65.7559 28.7513 65.7303 28.7542C65.7019 28.7542 65.3895 29.0615 65.0203 29.4177C64.654 29.7738 64.3274 30.0553 64.3104 30.0553C64.2252 30.0639 64.3047 29.9289 64.5092 29.6905C64.6313 29.5469 64.7023 29.4263 64.6711 29.4205C64.637 29.4119 64.6313 29.389 64.6569 29.3602C64.6824 29.3373 64.7307 29.343 64.7619 29.3746C64.813 29.4234 64.9068 29.3545 65.2617 28.9725C65.5003 28.7168 65.7899 28.421 65.9092 28.3176C65.9944 28.2458 66.037 28.2085 66.1222 28.1338C66.0625 28.2085 66.0341 28.2458 65.9745 28.3205C65.8751 28.444 65.8467 28.5158 65.8893 28.533C65.9802 28.5675 67.0735 27.2893 67.0394 27.1859C67.0252 27.14 66.9571 27.1974 66.8378 27.3525C66.7384 27.4818 66.6532 27.5593 66.6532 27.5249C66.6504 27.4875 66.8719 27.1515 67.1303 26.7666C67.4824 26.241 67.579 26.0342 67.5563 25.9624C67.5307 25.8963 67.5421 25.8705 67.6017 25.8676C67.6613 25.8676 67.6869 25.8245 67.7039 25.6953C67.7267 25.5373 67.721 25.5287 67.6301 25.5976ZM52.8774 34.3033C52.4884 34.4556 52.4685 34.4642 52.548 34.5389C52.5792 34.5676 52.6389 34.5676 52.6815 34.5389C52.7241 34.5073 52.8575 34.4412 52.974 34.3895C53.3517 34.2229 53.2693 34.1511 52.8774 34.3033ZM60.9822 30.9084C60.9566 30.9055 60.914 30.9342 60.8885 30.9716C60.8629 31.0146 60.8828 31.0175 60.9367 30.9773C60.9879 30.9428 61.0077 30.9112 60.9822 30.9084ZM60.7805 30.7734C60.7379 30.7849 60.6755 30.8308 60.6386 30.8768C60.6016 30.9227 60.6357 30.9141 60.7124 30.8567C60.7891 30.8021 60.8203 30.7648 60.7805 30.7734ZM62.2345 29.6704C62.2856 29.6446 62.3793 29.5814 62.439 29.5297C62.5384 29.4464 62.5299 29.4435 62.3509 29.5038C62.2402 29.5412 62.1351 29.5871 62.1124 29.6044C62.0443 29.6647 62.1408 29.7193 62.2345 29.6704ZM62.4276 29.8054C62.6889 29.4378 62.6889 29.4091 62.4532 29.6101C62.2743 29.7652 62.2317 29.8255 62.2743 29.8744C62.3169 29.9261 62.3538 29.9088 62.4276 29.8054ZM59.3408 33.2033C59.3095 33.255 59.3663 33.2435 59.4913 33.1688C59.602 33.1028 59.6844 33.0424 59.6787 33.0309C59.6531 32.9879 59.3834 33.1286 59.3408 33.2033ZM59.9513 31.3392C59.815 31.3449 59.2329 31.7241 59.2726 31.7844C59.2897 31.8131 59.46 31.7327 59.6815 31.5862C59.9428 31.4167 60.0223 31.3363 59.9513 31.3392ZM62.8678 30.8366C62.8252 30.8509 62.7712 30.894 62.7485 30.9342C62.7286 30.9744 62.7627 30.9601 62.8252 30.9084C62.8905 30.8538 62.9075 30.8193 62.8678 30.8366ZM63.0183 29.4895C63.7055 28.8202 63.7595 28.7197 63.1574 29.2769C62.8593 29.5527 62.598 29.8026 62.5866 29.8456C62.5724 29.8887 62.7712 29.7307 63.0183 29.4895ZM54.6068 35.6418C54.5614 35.6763 54.6182 35.6849 54.746 35.6619C54.8681 35.6389 54.9902 35.5987 55.0158 35.5729C55.0868 35.5039 54.7062 35.57 54.6068 35.6418ZM53.5703 34.131C53.647 34.1052 53.6754 34.0851 53.63 34.0822C53.5874 34.0764 53.5249 34.0965 53.4908 34.1224C53.4567 34.1511 53.4908 34.154 53.5703 34.131ZM54.5983 35.8342C54.5955 35.8342 54.5926 35.8342 54.5898 35.8371C54.7091 35.8314 54.8255 35.8285 54.9448 35.8199C55.0811 35.7682 55.1805 35.7222 55.1862 35.6993C55.1947 35.6677 54.9334 35.7337 54.5983 35.8342ZM54.9505 34.8519C54.8908 34.8548 54.462 34.9869 53.9906 35.1248C53.2011 35.3575 52.9285 35.4436 52.9512 35.5355C52.9569 35.5528 53.451 35.4465 54.036 35.2684C54.9987 34.9754 55.26 34.8261 54.9505 34.8519ZM67.9112 22.6536C67.8857 22.6622 67.8601 22.7081 67.8545 22.7512C67.8488 22.8029 67.8687 22.7972 67.9027 22.7369C67.934 22.6823 67.9368 22.6449 67.9112 22.6536ZM67.9908 24.6067C67.9226 24.6957 67.8885 24.7819 67.9141 24.7962C67.9368 24.8106 68.0277 24.713 68.1072 24.5722C68.1498 24.5004 68.2492 24.3511 68.3713 24.173C68.3883 24.1098 68.4082 24.0466 68.4253 23.9834C68.2719 24.2161 68.1214 24.4343 67.9908 24.6067ZM14.9861 30.9514C14.6056 30.9802 14.4153 30.9888 14.032 31.0003C14.3954 31.006 14.5772 31.0031 14.9435 30.9945C15.4433 30.9802 15.8579 30.9572 15.8665 30.9629C15.8721 30.9687 15.892 30.9486 15.9062 30.9199C15.9233 30.8883 15.5427 30.9112 14.9861 30.9514ZM19.7201 29.5441C19.8592 29.5067 19.916 29.478 19.8422 29.4866C19.7655 29.4924 19.6519 29.5239 19.5837 29.5584C19.5156 29.59 19.5781 29.5843 19.7201 29.5441ZM19.1209 30.3598C19.0839 30.3655 19.0641 30.4 19.0697 30.4287C19.0783 30.4603 19.0953 30.4804 19.1095 30.4775C19.1237 30.4747 19.1464 30.4431 19.1578 30.4086C19.172 30.3713 19.1549 30.3512 19.1209 30.3598ZM18.2576 29.6733C18.3825 29.6446 18.4393 29.6216 18.3825 29.6187C18.3257 29.6187 18.2206 29.6388 18.1525 29.6676C18.0843 29.6963 18.1298 29.6992 18.2576 29.6733ZM16.4287 30.894C16.5764 30.8768 16.636 30.8567 16.5594 30.8538C16.4855 30.8509 16.3634 30.8653 16.2896 30.8883C16.2158 30.9112 16.2782 30.9141 16.4287 30.894ZM16.8007 30.8279C16.7866 30.848 17.2864 30.7906 17.9083 30.6671C18.8 30.4919 18.9391 30.4344 18.5813 30.4804C18.3314 30.512 18.0417 30.535 17.9395 30.535C17.7975 30.535 17.7833 30.5407 17.8827 30.5608C17.9736 30.5809 17.8316 30.6298 17.4227 30.6987C17.0989 30.7533 16.8178 30.8107 16.8007 30.8279ZM19.3054 30.8825C19.4219 30.8538 19.4673 30.8279 19.4048 30.8308C19.3424 30.8308 19.2486 30.8538 19.1919 30.8825C19.1379 30.9112 19.189 30.9112 19.3054 30.8825ZM13.8218 30.2133C13.7821 30.1989 13.7025 30.1989 13.6457 30.2133C13.5889 30.2276 13.623 30.242 13.7196 30.242C13.8161 30.242 13.8616 30.2276 13.8218 30.2133ZM18.9675 30.9716C19.0328 30.9572 19.0641 30.9371 19.0413 30.9227C19.0158 30.9084 18.9647 30.9199 18.9221 30.9457C18.8795 30.9744 18.8965 30.983 18.9675 30.9716ZM17.2267 29.8456C17.204 29.8313 17.1557 29.837 17.116 29.86C17.0734 29.8858 17.0876 29.8973 17.1557 29.8887C17.2182 29.8801 17.2494 29.8629 17.2267 29.8456ZM17.7492 29.748C17.6924 29.7451 17.5874 29.7652 17.5192 29.7911C17.4482 29.8169 17.4965 29.8198 17.6214 29.7968C17.7492 29.7738 17.806 29.7537 17.7492 29.748ZM16.8803 29.9002C16.8575 29.8858 16.8093 29.8916 16.7695 29.9146C16.7241 29.9375 16.7411 29.949 16.8093 29.9433C16.8689 29.9347 16.903 29.9174 16.8803 29.9002ZM16.4373 30.0122C16.4344 29.9892 16.2442 30.0007 16.0113 30.0295C15.7784 30.0611 15.2247 30.1214 14.776 30.1501C14.3301 30.1817 13.978 30.2047 13.995 30.2219C14.032 30.2535 14.3273 30.3942 16.8916 30.0783C17.7634 29.9691 18.4847 29.8341 18.4989 29.8428C18.5444 29.8686 18.8596 29.7824 19.1067 29.6733C19.3253 29.5756 17.8657 29.8456 16.8661 29.995C16.6332 30.0295 16.4401 30.0352 16.4373 30.0122ZM10.6554 31.0606C10.7946 31.0376 10.7861 31.0319 10.5845 31.0031C10.4595 30.9859 10.3544 30.9945 10.3516 31.0261C10.3431 31.0893 10.4311 31.1008 10.6554 31.0606ZM11.0417 30.7906C11.0246 30.7762 10.4254 30.6958 9.7098 30.5694C8.8181 30.4143 8.40634 30.2822 8.38646 30.2334C8.34954 30.1329 7.83554 29.9605 7.81566 30.0409C7.81566 30.0438 7.81566 30.0467 7.81566 30.0524C7.92073 30.1214 8.02864 30.1903 8.13372 30.2564C8.20471 30.2851 8.28422 30.3167 8.38078 30.3512C8.70735 30.466 11.0814 30.8394 11.0417 30.7906ZM10.4794 29.7595C10.5362 29.8112 10.6271 29.8629 10.681 29.8686C10.8202 29.8887 11.0729 29.7968 11.1155 29.7135C11.1439 29.6589 11.0729 29.6446 10.7974 29.6331C10.3857 29.6159 10.3431 29.6302 10.4794 29.7595ZM9.85463 30.8883C9.81487 30.8567 9.84327 30.8452 9.92278 30.8538C9.99662 30.8653 10.0761 30.848 10.1017 30.8222C10.1386 30.7762 9.29803 30.6671 8.73859 30.6125C8.85786 30.6815 8.97713 30.7504 9.09924 30.8136C9.10208 30.8136 9.10492 30.8136 9.10776 30.8136C9.55077 30.8911 9.8887 30.917 9.85463 30.8883ZM6.67123 29.1764C6.65135 29.1649 6.62295 29.1534 6.59171 29.1419C6.61159 29.1592 6.63147 29.1735 6.65135 29.1908C6.68826 29.1965 6.70246 29.1936 6.67123 29.1764ZM8.20755 29.3861C8.20187 29.4177 8.32682 29.4751 8.49437 29.5125C8.78403 29.5756 8.78971 29.5814 8.65056 29.6388C8.53413 29.6848 8.51141 29.7193 8.54265 29.814C8.58808 29.9663 8.71871 29.9892 8.87206 29.8744C9.02825 29.7537 9.20432 29.7853 9.17876 29.9318C9.15888 30.0237 9.18444 30.0409 9.35483 30.0352C9.54509 30.0323 9.66152 30.084 10.9281 30.242C11.2688 30.2851 11.5926 30.2937 11.6465 30.2679C11.709 30.2391 11.5727 30.2133 11.2575 30.1846C10.8741 30.1501 10.7548 30.1128 10.6838 30.0237C10.6327 29.9634 10.5475 29.9203 10.4936 29.9289C10.397 29.9433 9.92278 29.9002 9.69844 29.8543C9.61041 29.8341 9.60189 29.8198 9.67004 29.7939C9.71832 29.7738 9.74956 29.725 9.74388 29.6877C9.73536 29.6388 9.67572 29.6475 9.56213 29.7078C9.46842 29.7595 9.35198 29.7911 9.30087 29.7824C9.18444 29.7623 9.13616 29.636 9.22987 29.6015C9.27247 29.5843 9.05949 29.5239 8.76131 29.4579C8.42054 29.3803 8.21607 29.3487 8.20755 29.3861ZM22.1452 30.6585C22.1821 30.6355 22.2191 30.6125 22.256 30.5895C22.1509 30.6298 22.097 30.6499 21.989 30.6901C22.0515 30.6786 22.097 30.6671 22.1452 30.6585ZM21.8982 30.0036C21.8385 30.0122 21.7306 30.0496 21.6625 30.0898C21.5943 30.1271 21.6426 30.1214 21.7732 30.0754C21.9038 30.0295 21.9606 29.9979 21.8982 30.0036ZM19.3253 28.9265C19.2515 28.9294 19.1407 28.961 19.0726 28.9926C19.0073 29.0213 19.0669 29.0184 19.206 28.9811C19.3452 28.9466 19.3992 28.9208 19.3253 28.9265ZM19.0357 29.1534C19.0953 29.1419 19.1237 29.119 19.101 29.1075C19.0783 29.0931 19.03 29.1046 18.9931 29.1305C18.9505 29.1592 18.9675 29.1678 19.0357 29.1534ZM13.8474 31.0376C13.9098 31.0376 13.9468 31.0233 13.924 31.006C13.9042 30.9859 13.853 30.9859 13.8105 31.0031C13.7622 31.0204 13.7764 31.0347 13.8474 31.0376ZM20.2454 31.2301C20.2113 31.2415 20.1886 31.2731 20.1971 31.3019C20.2057 31.3335 20.2227 31.3536 20.2369 31.3507C20.2539 31.3449 20.2766 31.3133 20.288 31.2789C20.3022 31.2415 20.2823 31.2214 20.2454 31.2301ZM13.5492 31.9452C13.6145 31.9452 13.6514 31.9309 13.6315 31.9136C13.6117 31.8964 13.5577 31.8935 13.5123 31.9108C13.4612 31.928 13.4754 31.9424 13.5492 31.9452ZM17.7436 31.8734C18.1525 31.7844 18.5359 31.6666 18.5983 31.6293C18.6722 31.5833 18.5586 31.5948 18.2973 31.658C18.0673 31.7126 17.8742 31.7384 17.8713 31.7212C17.8685 31.704 17.7521 31.7068 17.6158 31.727C17.4766 31.7442 17.3801 31.7758 17.3999 31.7988C17.4227 31.8189 17.3914 31.8562 17.3318 31.8792C17.2012 31.9338 16.2697 32.0228 16.0539 32.0027C15.9659 31.9941 15.9147 32.0027 15.9431 32.0228C16.0141 32.0745 15.8892 32.221 15.7642 32.2325C15.6734 32.2382 15.6762 32.2296 15.7671 32.1721C15.875 32.1032 15.8494 31.9998 15.7273 32.0113C15.6932 32.0142 15.6847 32.04 15.7103 32.0687C15.733 32.0975 15.7103 32.1262 15.6592 32.1291C15.6052 32.1348 15.5456 32.1176 15.5257 32.0917C15.503 32.0659 15.1508 32.0716 14.7419 32.0917C14.2677 32.1176 14.0547 32.1348 14.1597 32.1607C14.2591 32.1894 14.066 32.2124 13.6202 32.2152C13.4498 32.2152 13.3305 32.2152 13.1999 32.2124C13.7054 32.3014 14.2137 32.3646 14.7305 32.3962C14.7334 32.3904 14.7391 32.3876 14.7589 32.3818C14.8186 32.3646 14.9066 32.3588 14.9492 32.3732C14.9918 32.3847 14.9464 32.3991 14.8498 32.4048C15.0742 32.4163 15.2985 32.422 15.5257 32.4249C16.1845 32.3301 17.1784 32.2181 17.2239 32.2468C17.2778 32.2813 17.079 32.3301 16.6872 32.3646C16.636 32.3703 16.5849 32.379 16.5366 32.3876C16.8888 32.3617 17.2381 32.3244 17.5845 32.2698C17.5363 32.2669 17.5419 32.2526 17.5987 32.221C17.7095 32.1664 17.7038 32.1578 17.5391 32.1492C17.4397 32.1434 17.3687 32.1118 17.3857 32.0802C17.3999 32.0486 17.3062 32.0429 17.1756 32.063C17.0478 32.0802 16.9541 32.0802 16.9711 32.0601C16.9882 32.04 17.3375 31.9625 17.7436 31.8734ZM17.9821 32.1635C17.9906 32.1779 17.9963 32.1894 17.9935 32.2009C18.6182 32.0831 19.2288 31.9223 19.8194 31.7183C19.8081 31.7212 19.7996 31.7241 19.7882 31.727C18.1951 32.1003 17.9395 32.1003 17.9821 32.1635ZM15.0088 31.6494C14.9861 31.6293 14.5516 31.6264 14.0433 31.6207C13.535 31.6149 13.1062 31.5833 13.092 31.5719C13.0295 31.5202 13.1772 31.4771 13.4896 31.4512C13.6741 31.4369 13.8105 31.3995 13.7934 31.3737C13.7735 31.3478 13.7877 31.3248 13.8218 31.3248C13.8587 31.322 13.8871 31.3593 13.89 31.4081C13.89 31.4771 14.0036 31.4943 14.5232 31.4742C14.8725 31.4627 15.2815 31.4541 15.4377 31.4656C15.5512 31.4742 15.6052 31.4799 15.7188 31.4857C15.6251 31.4972 15.5768 31.5029 15.4831 31.5144C15.3297 31.5316 15.2559 31.5632 15.2758 31.6063C15.3155 31.6954 16.9825 31.5575 17.0279 31.4598C17.0506 31.4167 16.9626 31.4081 16.7695 31.434C16.6105 31.457 16.4969 31.4512 16.5196 31.4254C16.5423 31.3995 16.9314 31.3162 17.3857 31.2243C17.9991 31.1008 18.215 31.0204 18.2434 30.9543C18.2746 30.8883 18.3002 30.8768 18.3428 30.9199C18.3882 30.9601 18.4365 30.9486 18.5387 30.8682C18.6608 30.7705 18.6637 30.759 18.5501 30.7446C18.4847 30.736 18.3456 30.7762 18.2434 30.8366C18.0616 30.94 17.6356 31.0175 16.9711 31.0347C16.7354 31.0405 16.5934 31.0778 16.3691 31.1927C16.1022 31.3277 15.9744 31.3651 15.0401 31.3995C14.4721 31.4196 13.995 31.3966 13.978 31.3708C13.961 31.3478 14.0433 31.3392 14.1626 31.3536C14.2904 31.3679 14.3812 31.3564 14.3784 31.322C14.3756 31.2645 13.7679 31.2186 13.2595 31.2157C13.1005 31.2128 12.9699 31.1898 12.9699 31.164C12.9699 31.141 13.1431 31.075 13.3504 31.0175C13.5606 30.9601 13.7679 30.871 13.8133 30.8251C13.89 30.7533 13.8644 30.7475 13.6202 30.7791C13.4356 30.8021 13.3362 30.7906 13.3362 30.7533C13.3362 30.6642 12.7938 30.7274 12.5496 30.8366C12.4048 30.8997 12.1407 30.9256 11.5017 30.8911C11.0331 30.8653 10.5646 30.8452 10.4623 30.8595C10.2749 30.8911 11.124 31.006 12.2145 31.006C12.4814 31.0031 12.6263 31.006 12.5325 31.0146C12.0611 31.0606 12.5808 31.3019 13.3362 31.3507C13.5208 31.3622 13.1062 31.3737 12.4161 31.3392C11.6863 31.3019 11.3682 31.276 11.6607 31.3191C12.2542 31.4053 12.4928 31.5374 12.0015 31.523C11.834 31.5202 11.6551 31.5058 11.6039 31.4972C11.5187 31.4799 10.3885 31.2818 9.9881 31.1985C9.87167 31.1755 9.9313 31.1669 10.1471 31.1697C10.3232 31.1726 10.096 31.1353 9.58485 31.0548C9.65868 31.0864 9.72968 31.1209 9.80351 31.1554C9.9881 31.2415 10.1755 31.322 10.3658 31.3995C11.7147 31.5604 13.3334 31.6781 14.0831 31.6867C14.6141 31.6954 15.0316 31.6666 15.0088 31.6494ZM13.7451 32.1032C13.606 32.0802 13.4072 32.0601 13.3021 32.0573C13.1175 32.0486 13.1175 32.0486 13.2709 32.0056C13.4981 31.9424 13.3504 31.9424 12.9528 31.9998C12.8052 32.0228 12.5496 32.0228 12.1918 31.9969C12.4956 32.0774 12.8052 32.1406 13.1175 32.198C13.2255 32.1923 13.322 32.1865 13.4612 32.1779C13.9354 32.1492 13.9695 32.1348 13.7451 32.1032ZM21.3302 30.6815C21.2905 30.7131 21.3075 30.7217 21.3785 30.7016C21.4438 30.6815 21.475 30.6585 21.4495 30.647C21.4239 30.6355 21.37 30.6499 21.3302 30.6815ZM10.0193 29.8026C9.97106 29.814 9.98242 29.8284 10.0477 29.8399C10.1102 29.8514 10.1471 29.8428 10.1301 29.8227C10.113 29.7997 10.0619 29.7911 10.0193 29.8026ZM10.0761 29.5843C10.0392 29.5613 9.96254 29.5498 9.90574 29.5555C9.84895 29.5613 9.87735 29.5785 9.97106 29.5958C10.0676 29.6101 10.113 29.6044 10.0761 29.5843ZM12.0782 29.9404C11.8425 29.9232 11.7715 29.9347 11.7686 30.0007C11.763 30.0668 11.7999 30.0812 11.9248 30.0582C12.365 29.9835 12.3849 29.9634 12.0782 29.9404ZM9.09641 29.4004C8.99417 29.3057 8.3183 29.1649 8.30126 29.2367C8.29558 29.2683 8.47449 29.3315 8.73007 29.3832C9.03393 29.4464 9.14752 29.4493 9.09641 29.4004ZM11.5244 31.1065C11.4818 31.0864 11.4165 31.0807 11.3711 31.0922C11.3285 31.1065 11.3626 31.1209 11.4449 31.1295C11.5301 31.1353 11.5642 31.1238 11.5244 31.1065ZM12.01 30.2018C11.9703 30.2219 12.2202 30.2506 12.5666 30.2535C13.518 30.2621 13.6259 30.2305 12.8108 30.2018C12.4076 30.1846 12.0469 30.1788 12.01 30.2018ZM20.7282 28.8978C20.7878 28.8777 20.8162 28.8547 20.7907 28.8432C20.7679 28.8317 20.7197 28.8461 20.6827 28.8748C20.643 28.9064 20.66 28.915 20.7282 28.8978ZM21.8698 29.2942C21.8272 29.2942 21.7619 29.32 21.7278 29.3487C21.6937 29.3775 21.7306 29.3775 21.8101 29.3487C21.8868 29.32 21.9152 29.2942 21.8698 29.2942ZM24.542 28.8748C24.5619 28.8576 24.5818 28.8404 24.6016 28.8202C24.5874 28.8289 24.5732 28.8404 24.559 28.849C24.5307 28.8691 24.5278 28.8777 24.542 28.8748ZM21.9692 29.6848C21.2024 29.949 20.1602 30.1961 19.4929 30.2937C19.385 30.3109 19.3026 30.3454 19.3083 30.3741C19.3168 30.4029 19.4474 30.3942 19.6008 30.354C19.757 30.3138 20.2397 30.2219 20.6771 30.1357C21.1144 30.0496 21.8925 29.8543 22.4037 29.6992C22.9148 29.5412 23.3521 29.389 23.3777 29.3803C23.4033 29.3746 23.4146 29.3516 23.4061 29.3315C23.3635 29.2339 22.787 29.4033 21.9692 29.6848ZM23.94 29.1333C23.8093 29.1793 23.7412 29.1994 23.6106 29.2453C23.7242 29.1908 23.7809 29.162 23.8945 29.1075C24.0507 29.0299 24.2382 28.961 24.312 28.9524C24.4625 28.9409 24.4171 28.9696 23.94 29.1333Z" fill="#C8C5E6"/>
</g>
<mask id="mask2_3060_1185" style="mask-type:luminance" maskUnits="userSpaceOnUse" x="3" y="0" width="63" height="30">
<path d="M3.63477 0H65.4286V29.6242H3.63477V0Z" fill="white"/>
</mask>
<g mask="url(#mask2_3060_1185)">
<path d="M16.6255 4.61856L15.7622 4.6243L16.5829 4.65877C17.0344 4.67887 17.4092 4.69898 17.4149 4.70472C17.4206 4.71334 17.4405 4.69323 17.4547 4.66738C17.4746 4.63579 17.1281 4.61568 16.6255 4.61856ZM21.2231 3.99815C21.1549 3.98666 21.0442 3.98666 20.976 3.99815C20.9079 4.01251 20.9647 4.024 21.0981 4.024C21.2344 4.024 21.2912 4.01251 21.2231 3.99815ZM20.3342 4.71621C20.3342 4.74781 20.3427 4.77366 20.3569 4.77366C20.3711 4.77366 20.3967 4.74781 20.4137 4.71621C20.4336 4.68462 20.4223 4.66164 20.391 4.66164C20.3598 4.66164 20.3342 4.68462 20.3342 4.71621ZM19.8827 3.77412C19.8287 3.75976 19.7322 3.75976 19.664 3.77412C19.5959 3.78561 19.6385 3.7971 19.7578 3.79997C19.8799 3.79997 19.9338 3.78848 19.8827 3.77412ZM17.8011 4.676C17.733 4.69036 17.7898 4.70185 17.9232 4.70185C18.0596 4.70185 18.1164 4.69036 18.0482 4.676C17.98 4.66451 17.8693 4.66451 17.8011 4.676ZM18.8348 4.65302C18.5395 4.65302 18.2811 4.66738 18.264 4.68462C18.2498 4.70185 18.7013 4.71334 19.2693 4.70759C20.0843 4.69898 20.2178 4.69036 19.8941 4.65589C19.6697 4.63579 19.4113 4.60132 19.3204 4.58122C19.1955 4.55537 19.1813 4.55824 19.2665 4.59845C19.3403 4.63579 19.2097 4.65015 18.8348 4.65302ZM20.4421 5.21311C20.5472 5.21311 20.5898 5.20162 20.5387 5.18726C20.4847 5.1729 20.3995 5.1729 20.3456 5.18726C20.2945 5.20162 20.3371 5.21311 20.4421 5.21311ZM15.4214 3.83156C15.3674 3.84592 15.3987 3.85741 15.4895 3.85741C15.5804 3.86029 15.623 3.8488 15.5861 3.83156C15.5492 3.8172 15.4753 3.8172 15.4214 3.83156ZM20.1042 5.18726C20.0588 5.20449 20.073 5.21885 20.1383 5.22172C20.1951 5.2246 20.2263 5.21024 20.2093 5.19013C20.1894 5.1729 20.144 5.17002 20.1042 5.18726ZM18.6815 3.77412C18.636 3.79422 18.6502 3.80571 18.7127 3.80858C18.7723 3.81146 18.8036 3.7971 18.7865 3.77986C18.7667 3.75976 18.7212 3.75688 18.6815 3.77412ZM19.2807 3.77412C19.2267 3.75976 19.1302 3.75976 19.062 3.77412C18.9938 3.78561 19.0364 3.7971 19.1557 3.79997C19.2778 3.79997 19.3318 3.78848 19.2807 3.77412ZM18.3521 3.77412C18.3095 3.79422 18.3208 3.80571 18.3861 3.80858C18.4429 3.81146 18.4742 3.7971 18.4571 3.77986C18.4372 3.75976 18.3918 3.75688 18.3521 3.77412ZM18.9087 3.40934C18.9853 3.40934 19.0166 3.39498 18.9796 3.38062C18.9399 3.36339 18.8803 3.36339 18.8405 3.38062C18.8036 3.39498 18.8348 3.40934 18.9087 3.40934ZM18.7468 3.13648C18.8519 3.06468 18.7723 3.06755 18.4997 3.14223C18.3805 3.17669 17.9658 3.19967 17.5796 3.19393C16.847 3.18531 16.6652 3.21116 16.6652 3.32318C16.6652 3.37488 16.8384 3.38062 17.3638 3.34903C18.3265 3.28871 19.1472 3.20829 18.8831 3.19967C18.7184 3.19105 18.6843 3.17669 18.7468 3.13648ZM18.4316 3.8689C18.2129 3.8689 18.034 3.85167 18.034 3.82869C18.034 3.80571 17.8551 3.78848 17.6364 3.79422C17.4178 3.7971 16.8981 3.80571 16.4778 3.80858C16.0603 3.81146 15.7309 3.82582 15.748 3.84305C15.7792 3.87752 16.049 3.88901 18.4458 3.95507C19.2579 3.97517 19.9338 4.0039 19.9452 4.01826C19.9793 4.04985 20.2803 4.03836 20.5245 3.98954C20.7403 3.94932 19.3715 3.87177 18.4316 3.8689ZM12.7236 4.8311C12.8457 4.79089 12.84 4.78514 12.6554 4.7794C12.5418 4.77653 12.451 4.79951 12.451 4.8311C12.451 4.89429 12.5276 4.89429 12.7236 4.8311ZM6.52718 5.75309C6.47322 5.73873 6.37383 5.73585 6.30567 5.75022C6.24036 5.76458 6.28295 5.77607 6.40223 5.77607C6.5215 5.77607 6.57829 5.76458 6.52718 5.75309ZM8.34464 6.12935C8.2992 6.10063 8.21401 6.07765 8.15438 6.08052C8.0635 6.0834 8.06918 6.09201 8.17993 6.12935C8.37304 6.19254 8.44119 6.19254 8.34464 6.12935ZM6.5073 4.71621L6.38519 4.62717C6.35963 4.60994 6.33407 4.59845 6.30851 4.58983C6.26308 4.62143 6.21764 4.65589 6.1722 4.68749C6.21196 4.70472 6.2716 4.71621 6.33407 4.71621H6.5073ZM6.73164 6.1868C6.76856 6.24999 6.9787 6.24999 7.22292 6.1868C7.35355 6.15233 7.31664 6.14084 7.04118 6.1351C6.82535 6.13222 6.70892 6.14946 6.73164 6.1868ZM6.51866 4.45197C6.5073 4.45771 6.4931 4.46633 6.48174 4.47494H6.67485L6.51866 4.45197ZM7.30244 4.24229C7.2854 4.22506 7.15477 4.20495 7.01562 4.19921C6.98154 4.19921 6.95031 4.19634 6.91907 4.19346C6.88215 4.21644 6.84523 4.23942 6.81116 4.2624C7.10933 4.2624 7.3138 4.25665 7.30244 4.24229ZM6.92191 4.75355C7.14625 4.75355 7.23996 4.74493 7.12637 4.73344C7.01562 4.71908 6.82819 4.71908 6.71744 4.73344C6.60385 4.74493 6.69756 4.75355 6.92191 4.75355ZM13.1496 5.86511C13.0956 5.85074 13.0104 5.85074 12.9565 5.86511C12.9053 5.87947 12.9479 5.89096 13.053 5.89096C13.1581 5.89096 13.2007 5.87947 13.1496 5.86511ZM8.01807 6.12648C8.01807 6.09776 7.98115 6.07191 7.93571 6.07191C7.89028 6.07191 7.85336 6.04893 7.85336 6.02308C7.85336 5.99436 7.75964 5.95702 7.64605 5.93978C7.5353 5.92542 7.36207 5.89383 7.26552 5.87085C7.12637 5.84213 7.08661 5.85362 7.08661 5.91968C7.08661 6.00584 7.12921 6.02021 7.71705 6.1552C7.89595 6.19828 8.0919 6.22988 8.15438 6.22988C8.24525 6.22701 8.24241 6.22413 8.14018 6.20116C8.07202 6.18967 8.01807 6.1552 8.01807 6.12648ZM12.7378 5.86223C12.6696 5.85074 12.5589 5.85074 12.4907 5.86223C12.4254 5.87659 12.4794 5.88808 12.6157 5.88808C12.7492 5.88808 12.8059 5.87659 12.7378 5.86223ZM10.3155 4.60132C10.3155 4.63292 10.341 4.66164 10.3694 4.66164C10.4006 4.66164 10.4262 4.65015 10.4262 4.63579C10.4262 4.62143 10.4006 4.59558 10.3694 4.57547C10.341 4.55537 10.3155 4.56685 10.3155 4.60132ZM8.16573 4.79663C8.1487 4.77653 8.10042 4.77653 8.06066 4.79089C8.01807 4.80812 8.02943 4.82248 8.09474 4.82536C8.15154 4.82823 8.18561 4.81387 8.16573 4.79663ZM10.6023 4.4893C10.9146 4.53813 13.0871 4.56398 13.0445 4.5209C13.0303 4.50654 12.4822 4.48356 11.8234 4.46633C11.0027 4.44909 10.6136 4.42037 10.5881 4.37441C10.5341 4.28538 10.0428 4.2308 10.0428 4.3141C10.0428 4.38303 10.1791 4.42612 10.6023 4.4893ZM12.4283 3.5587C12.4851 3.60178 12.5759 3.64199 12.627 3.64199C12.7577 3.64487 12.9877 3.52998 13.0189 3.44094C13.0417 3.38349 12.9707 3.37488 12.7094 3.39498C12.3203 3.42371 12.2834 3.44668 12.4283 3.5587ZM12.0506 4.71908C12.1159 4.71621 12.1869 4.69036 12.2039 4.65877C12.2352 4.60994 11.4031 4.6243 10.9033 4.68462C10.8209 4.69323 10.7159 4.70472 10.6704 4.71047C10.6278 4.71334 10.5909 4.73919 10.5909 4.76504C10.5909 4.79089 10.9203 4.81099 11.3236 4.80812C11.7268 4.80525 12.0278 4.78227 11.9938 4.75929C11.9569 4.73632 11.9796 4.71908 12.0506 4.71908ZM8.82457 3.77412C8.77345 3.75976 8.67406 3.75976 8.6059 3.77412C8.53775 3.78561 8.58034 3.7971 8.70245 3.79997C8.82173 3.79997 8.87852 3.78848 8.82457 3.77412ZM10.5483 3.64774C10.8238 3.65061 10.8323 3.65348 10.713 3.73678C10.6165 3.80858 10.6023 3.84592 10.6477 3.93209C10.7187 4.06996 10.8408 4.06709 10.9572 3.92635C11.0794 3.77986 11.2469 3.77699 11.2469 3.92635C11.2469 4.02113 11.2725 4.03262 11.4258 3.99815C11.599 3.96081 11.7126 3.96081 12.894 3.98666C13.212 3.99241 13.5131 3.97517 13.5613 3.94932C13.6153 3.91486 13.4875 3.89762 13.195 3.89762C12.8343 3.89762 12.7236 3.87465 12.6441 3.7971C12.593 3.74252 12.5078 3.70806 12.4595 3.72242C12.3715 3.75114 11.9285 3.77125 11.7126 3.75976C11.6274 3.75688 11.6189 3.74252 11.6786 3.70518C11.7183 3.67933 11.7439 3.62763 11.7297 3.59029C11.7155 3.54434 11.6615 3.56157 11.565 3.63912C11.4854 3.70518 11.3832 3.75688 11.3378 3.75688C11.227 3.75688 11.1617 3.64199 11.2412 3.59029C11.2781 3.56732 11.0708 3.54434 10.784 3.53859C10.4518 3.52998 10.2615 3.54721 10.2615 3.58455C10.2615 3.61902 10.3893 3.64487 10.5483 3.64774ZM23.5347 5.88808H23.8641L23.5347 5.845C23.3558 5.82202 23.0973 5.80479 22.961 5.80479L22.714 5.80766L22.961 5.84787C23.0973 5.86798 23.3558 5.88808 23.5347 5.88808ZM22.8389 5.12981C22.785 5.11545 22.6884 5.11545 22.6203 5.12981C22.5521 5.1413 22.5947 5.15279 22.714 5.15566C22.8361 5.15566 22.89 5.14417 22.8389 5.12981ZM20.8937 3.3203C20.8255 3.30882 20.7148 3.30882 20.6466 3.3203C20.5813 3.33467 20.6352 3.34615 20.7716 3.34615C20.9079 3.34615 20.9618 3.33467 20.8937 3.3203ZM20.5415 3.43519C20.4989 3.4553 20.5103 3.46679 20.5756 3.46966C20.6324 3.47253 20.6665 3.45817 20.6466 3.44094C20.6296 3.42083 20.5813 3.41796 20.5415 3.43519ZM20.374 3.10201C20.3541 3.08191 20.3087 3.08191 20.2689 3.09627C20.2235 3.1135 20.2377 3.12786 20.3001 3.13074C20.3598 3.13361 20.391 3.11925 20.374 3.10201ZM15.5605 4.62143C15.5179 4.63866 15.5293 4.65302 15.5946 4.65589C15.6514 4.65877 15.6827 4.64441 15.6656 4.62717C15.6486 4.60707 15.6003 4.60707 15.5605 4.62143ZM21.0981 5.84787C21.0981 5.87659 21.1095 5.90244 21.1237 5.90244C21.1379 5.90244 21.1634 5.87659 21.1805 5.84787C21.2004 5.81628 21.189 5.79043 21.1578 5.79043C21.1265 5.79043 21.0981 5.81628 21.0981 5.84787ZM15.2879 5.52618C15.2425 5.54342 15.2567 5.55778 15.3192 5.56065C15.376 5.56352 15.41 5.54916 15.393 5.52905C15.3731 5.51182 15.3277 5.50895 15.2879 5.52618ZM23.5773 6.22701C23.5403 6.22988 23.5233 6.2069 23.5403 6.18105C23.5744 6.12361 23.4353 6.10925 23.3813 6.16669C23.3416 6.2069 22.9042 6.2069 20.675 6.14946C19.2892 6.11786 19.0734 6.12361 19.1018 6.19254C19.1245 6.2586 19.0847 6.27009 18.8973 6.24998C18.7184 6.23275 18.69 6.21839 18.7723 6.18392C18.8717 6.14658 18.8689 6.13797 18.7326 6.10063C18.6502 6.08052 18.5963 6.03744 18.6133 6.01159C18.6304 5.98287 18.5508 5.95989 18.4372 5.95989C18.3265 5.95989 18.247 5.94553 18.264 5.92829C18.2811 5.91106 18.5878 5.88234 18.9456 5.86511C19.3005 5.84787 19.6442 5.81053 19.7038 5.78468C19.7719 5.75596 19.6754 5.74447 19.4425 5.75309C19.2409 5.7617 19.0734 5.75596 19.0734 5.73873C19.0734 5.72149 18.974 5.70139 18.8547 5.69852C18.7354 5.69277 18.6474 5.71 18.6616 5.73298C18.6786 5.75883 18.6474 5.79043 18.5934 5.80192C18.4742 5.83638 17.6705 5.80192 17.4859 5.75883C17.4121 5.73873 17.3695 5.74447 17.3894 5.76745C17.4462 5.82489 17.3269 5.95989 17.219 5.95702C17.1423 5.95702 17.1423 5.9484 17.2275 5.89957C17.3241 5.83926 17.3099 5.73298 17.2076 5.73298C17.1764 5.73298 17.1679 5.75883 17.1849 5.79043C17.2048 5.82202 17.1821 5.84787 17.1366 5.84787C17.0912 5.84787 17.0429 5.82489 17.0259 5.79617C17.0088 5.77032 16.705 5.74447 16.35 5.74447C15.9411 5.74447 15.7565 5.75883 15.8445 5.79043C15.9326 5.81915 15.765 5.83351 15.3788 5.83064L14.7768 5.82489L15.2425 5.7933C15.6514 5.76745 15.6827 5.75596 15.4895 5.72149C15.3674 5.69852 15.1971 5.67554 15.1062 5.67267C14.9443 5.66692 14.9443 5.66692 15.0778 5.62097C15.2737 5.5549 15.1459 5.5549 14.7995 5.62097C14.6035 5.65543 14.1804 5.65256 13.5443 5.61235C12.4425 5.54341 11.6644 5.54629 11.6388 5.62384C11.6274 5.65256 11.5792 5.67841 11.528 5.67554C11.4514 5.67554 11.4485 5.66979 11.5195 5.62097C11.5763 5.58363 11.4996 5.56639 11.2583 5.56639C10.838 5.56352 10.1507 5.45438 10.1507 5.38544C10.1507 5.35959 10.0854 5.33661 10.0002 5.33087C9.55155 5.31076 10.6761 5.20162 11.3009 5.20736C12.522 5.21598 14.8847 5.27055 15.7906 5.31364C16.2563 5.33374 16.6226 5.33661 16.6056 5.31651C16.5885 5.2964 16.2052 5.26481 15.7565 5.2447C15.3078 5.22747 14.9301 5.20162 14.9188 5.19013C14.862 5.13843 14.9926 5.09247 15.268 5.0695C15.4328 5.05513 15.5549 5.02067 15.5407 4.99195C15.5236 4.9661 15.535 4.94312 15.5662 4.94312C15.6003 4.94312 15.6259 4.98046 15.6259 5.02641C15.6259 5.09822 15.7253 5.11258 16.1853 5.11832C16.4948 5.11832 16.8583 5.1413 16.9946 5.16715L17.2389 5.21024L17.0316 5.21885C16.8924 5.2246 16.8271 5.25045 16.8413 5.29353C16.8725 5.38544 18.335 5.4314 18.3861 5.34236C18.4117 5.30215 18.3379 5.28204 18.1646 5.28204C18.0226 5.28204 17.9232 5.26194 17.946 5.23896C17.9687 5.21598 18.3208 5.18151 18.7269 5.16428C19.2807 5.1413 19.4795 5.11258 19.5164 5.05226C19.5533 4.99195 19.5788 4.98907 19.6072 5.0379C19.6385 5.08673 19.6839 5.08386 19.7861 5.02641C19.9111 4.95748 19.9139 4.94886 19.8202 4.91152C19.7634 4.88855 19.6356 4.90003 19.5362 4.93737C19.3602 5.00343 18.9796 4.99482 18.389 4.9144C18.1817 4.88567 18.051 4.90291 17.8409 4.98907C17.591 5.09247 17.4774 5.09822 16.6482 5.0695C16.1427 5.05226 15.7196 5.0178 15.7054 4.99482C15.6912 4.96897 15.765 4.96322 15.8701 4.98333C15.9808 5.00056 16.0632 4.99195 16.0632 4.96035C16.0632 4.90003 15.5179 4.8311 15.0636 4.8311C14.9216 4.8311 14.8052 4.80812 14.8052 4.78514C14.8052 4.75929 14.9585 4.69036 15.1459 4.63292C15.3362 4.57547 15.5236 4.4893 15.5691 4.44622C15.6372 4.37441 15.6145 4.36867 15.3902 4.39739C15.2226 4.4175 15.1346 4.40888 15.1346 4.36867C15.1346 4.27963 14.6348 4.34857 14.4161 4.46633C14.2855 4.53526 14.0469 4.56398 13.4705 4.58122C13.0445 4.5927 12.6242 4.6243 12.5333 4.65302C12.3686 4.70472 13.1354 4.70472 14.1208 4.64728C14.3622 4.63579 14.4899 4.63579 14.4076 4.64728C13.9816 4.70759 14.4587 4.92014 15.1346 4.9661C15.2993 4.97758 14.9301 4.98046 14.311 4.97184C13.6607 4.9661 13.3796 4.97471 13.6408 4.99482C14.1719 5.0379 14.3849 5.16428 13.9532 5.17864C13.8027 5.18439 13.6465 5.18151 13.6011 5.17577C13.5244 5.16428 12.5135 5.07811 12.15 5.04939C12.0449 5.04365 12.096 5.02354 12.2863 5.00056C12.4652 4.97758 12.1727 4.96322 11.5763 4.96322C10.5852 4.96609 10.5796 4.9661 11.2753 5.00056L11.9852 5.03216L11.1106 5.04652C10.6278 5.05513 10.1223 5.08673 9.98604 5.11832C9.46636 5.24183 9.42376 5.23896 9.22214 5.05513L9.02903 4.8828L9.33005 4.91152C9.4976 4.92588 9.82985 4.95173 10.0684 4.9661C10.4944 4.98907 10.4972 4.98907 10.1791 4.94025C9.9974 4.91152 9.68502 4.87418 9.48056 4.85408C9.27609 4.83684 9.12274 4.79951 9.13978 4.77366C9.15398 4.74781 9.11138 4.71621 9.04323 4.70472C8.96372 4.69036 9.02903 4.66164 9.22214 4.62143L9.52315 4.56111L9.05743 4.55537C8.80185 4.54962 8.19697 4.53526 7.71705 4.5209C7.23428 4.50654 6.88783 4.50941 6.95031 4.52664C7.00994 4.54388 7.08378 4.57834 7.11217 4.59845C7.14341 4.62143 7.54382 4.63579 8.00387 4.63579C8.75073 4.63292 8.83876 4.64153 8.83876 4.7277C8.83876 4.78802 8.78197 4.8311 8.68826 4.84546C8.56047 4.86557 8.56614 4.87131 8.73085 4.87706C8.87852 4.88567 8.97223 4.93737 9.11422 5.09247L9.30449 5.2964L8.48095 5.26194C8.02943 5.24183 7.53814 5.19587 7.38763 5.16428C6.93895 5.0695 5.85699 5.00631 5.79167 5.07524C5.70932 5.15854 6.10121 5.2246 6.67769 5.2246C7.19169 5.2246 7.29676 5.23896 7.2712 5.30502C7.25416 5.35098 7.28256 5.39693 7.3422 5.41129C7.39615 5.42565 7.29392 5.44289 7.11217 5.4515L6.7856 5.46299L7.25132 5.54054C7.5069 5.58075 7.78804 5.61809 7.87608 5.61809C7.96411 5.62097 8.08338 5.66405 8.14018 5.71862C8.21969 5.7933 8.47527 5.83638 9.31869 5.91106C9.9122 5.96563 10.571 6.01159 10.7812 6.01159C11.281 6.01733 11.7439 5.95702 11.707 5.8967C11.6899 5.86798 11.7836 5.845 11.9143 5.83925L12.15 5.83351L11.9569 5.79043C11.7978 5.75596 11.7893 5.74734 11.9029 5.73585C12.2806 5.70426 13.9049 5.75022 14.0043 5.79617C14.2684 5.92255 14.3735 6.00584 14.3167 6.04031C14.24 6.08914 13.7573 6.01733 13.7914 5.96276C13.8027 5.93978 13.7289 5.91968 13.6238 5.91393C13.5159 5.91106 13.4449 5.93117 13.4619 5.95989C13.4818 5.99148 13.266 6.00297 12.9139 5.99148C12.5958 5.97999 12.3487 5.98574 12.3658 6.00584C12.4226 6.06329 14.4928 6.16669 14.6859 6.12361C14.7881 6.10063 15.0522 6.09776 15.2737 6.11499C15.623 6.14084 15.6798 6.16095 15.6798 6.24998C15.6798 6.35338 15.5549 6.38785 15.2822 6.36487C15.2311 6.362 15.1885 6.3936 15.1885 6.43668C15.1885 6.47976 15.1715 6.56019 15.1516 6.61189C15.1204 6.69518 15.1459 6.7038 15.3561 6.68082C15.4895 6.66359 15.8672 6.68944 16.1995 6.73252C16.5289 6.77848 16.8754 6.80145 16.9662 6.78709C17.0571 6.76986 17.2048 6.78996 17.2957 6.83305C17.5115 6.93645 17.6052 6.93932 17.432 6.83592L17.2957 6.7555L17.4604 6.74688C17.9545 6.72103 19.4823 6.76699 19.6328 6.81007C19.7492 6.84454 19.8202 6.84166 19.8429 6.80145C19.8628 6.76986 20.019 6.73826 20.1894 6.73252C20.516 6.72103 20.621 6.64061 20.32 6.63486C20.2206 6.63199 20.0786 6.61763 20.0048 6.60614C19.6981 6.55444 18.1618 6.48264 17.2133 6.47402C16.651 6.46827 16.1796 6.43955 16.1484 6.41083C16.1143 6.37636 16.1626 6.35626 16.2847 6.35338C16.5176 6.35338 16.7163 6.24711 16.5005 6.2385C16.3699 6.23275 16.3699 6.22988 16.5204 6.18392C16.705 6.12648 18.4032 6.09776 18.4571 6.14946C18.4969 6.19254 18.3237 6.2069 17.9886 6.19254C17.8608 6.18967 17.7131 6.20977 17.662 6.2385C17.5796 6.28732 17.5796 6.29307 17.679 6.2902C17.7387 6.28732 17.8608 6.3103 17.9516 6.33615C18.0425 6.362 18.2271 6.38211 18.3634 6.37924C19.1642 6.35913 19.2437 6.35338 19.2097 6.29881C19.1926 6.26722 19.2097 6.24137 19.2494 6.2385C20.2121 6.20116 20.8482 6.20403 21.0442 6.24711C21.3793 6.32179 23.9464 6.36487 23.9464 6.29594C23.9464 6.24998 23.7846 6.21839 23.5773 6.22701ZM22.1829 5.58363C22.1403 5.60086 22.1545 5.61235 22.217 5.61522C22.2738 5.61809 22.3079 5.6066 22.288 5.5865C22.271 5.56926 22.2227 5.56639 22.1829 5.58363ZM12.9621 6.43955C12.9423 6.38785 12.8599 6.35626 12.7463 6.35626C12.539 6.35626 12.4936 6.44817 12.6838 6.48551C12.9394 6.53721 12.9962 6.52572 12.9621 6.43955ZM8.60306 6.20977C8.58602 6.18967 8.53775 6.1868 8.49799 6.20403C8.45539 6.22126 8.46959 6.23562 8.53207 6.2385C8.58886 6.24137 8.62294 6.22701 8.60306 6.20977ZM7.38763 7.53387C7.68865 7.55972 8.16857 7.5827 8.45539 7.5827C8.9552 7.5827 8.96088 7.57983 8.64566 7.53675C8.46675 7.5109 7.94139 7.45058 7.48135 7.40462C6.72312 7.32707 5.9507 7.17197 5.88254 7.08581C5.86551 7.0657 5.7434 7.04559 5.60993 7.04272C5.47645 7.03698 5.34866 7.014 5.32311 6.98815C5.30039 6.96517 5.51621 6.96804 5.80303 6.99389C6.85091 7.09155 6.52434 6.89049 5.36286 6.72103C5.06185 6.67508 4.72959 6.61763 4.62168 6.58891C4.45413 6.54295 4.47969 6.53721 4.82898 6.53146C5.04765 6.52859 5.22655 6.50274 5.22655 6.47402C5.22655 6.4453 5.05901 6.40221 4.85454 6.37924C4.545 6.34477 4.50525 6.33041 4.61032 6.28158C4.73527 6.22413 4.77787 6.12935 4.67563 6.12935C4.61316 6.12935 4.51945 6.14658 4.41437 6.17243C4.31214 6.27584 4.21559 6.37924 4.1162 6.48264C4.16447 6.48838 4.19855 6.50274 4.20991 6.51997C4.23263 6.56019 4.18719 6.58029 4.07928 6.58029C4.05656 6.58029 4.03952 6.58316 4.02248 6.58316C3.99693 6.61189 3.96853 6.64061 3.94297 6.66646C3.97989 6.7038 4.0594 6.75263 4.18151 6.81294C4.33202 6.88188 4.44277 6.95943 4.42573 6.98528C4.41153 7.01113 4.51661 7.0341 4.66144 7.0341C4.80627 7.0341 4.95961 7.06283 5.00505 7.09442C5.06469 7.13751 4.9227 7.14612 4.49957 7.12889C3.90037 7.10017 3.75554 7.14038 3.97705 7.26963C4.11336 7.34718 5.61844 7.37877 5.57301 7.30122C5.53041 7.23229 5.72068 7.2524 6.29715 7.37303C6.59533 7.43335 7.08662 7.50802 7.38763 7.53387ZM12.0364 3.69657C12.0932 3.69944 12.1244 3.68508 12.1074 3.66497C12.0903 3.64774 12.042 3.64487 12.0023 3.6621C11.9597 3.67933 11.9711 3.6937 12.0364 3.69657ZM12.0278 3.43807C11.9909 3.42083 11.9171 3.42083 11.8631 3.43519C11.8092 3.44956 11.8404 3.46104 11.9313 3.46392C12.0222 3.46392 12.0648 3.45243 12.0278 3.43807ZM26.7238 5.58363C26.6868 5.59799 26.7181 5.61235 26.7919 5.61235C26.8686 5.61235 26.8998 5.59799 26.8601 5.58363C26.8231 5.56639 26.7607 5.56639 26.7238 5.58363ZM13.7516 3.49264C13.8027 3.507 13.9078 3.51849 13.9845 3.52136C14.1066 3.5271 14.1009 3.51849 13.9362 3.44381C13.834 3.39785 13.7289 3.36052 13.7033 3.36052C13.6153 3.36052 13.6522 3.46392 13.7516 3.49264ZM13.8056 3.71955C14.2145 3.61614 14.2344 3.59604 13.9419 3.59317C13.7204 3.58742 13.655 3.60753 13.655 3.67359C13.655 3.73678 13.692 3.74827 13.8056 3.71955ZM9.83553 4.71621C9.94912 4.71621 10.0428 4.70759 10.0428 4.69611C10.0428 4.64728 9.77022 4.6243 9.70206 4.66738C9.65662 4.69898 9.7049 4.71621 9.83553 4.71621ZM10.7414 3.47253C11.0339 3.47253 11.139 3.4553 11.0822 3.41796C10.9743 3.34615 10.3155 3.34615 10.3155 3.41796C10.3155 3.44956 10.4944 3.47253 10.7414 3.47253ZM13.5045 4.79376C13.4676 4.77653 13.4051 4.77653 13.3682 4.79376C13.3313 4.80812 13.3597 4.82248 13.4364 4.82248C13.5102 4.82248 13.5415 4.80812 13.5045 4.79376ZM14.4133 3.88326C15.3021 3.85741 15.4015 3.83156 14.6405 3.82295C14.2628 3.8172 13.9277 3.83443 13.8936 3.85741C13.8567 3.88039 14.0924 3.89188 14.4133 3.88326ZM26.4511 5.18726C26.4114 5.20449 26.4426 5.21598 26.5193 5.21598C26.5931 5.21598 26.6244 5.20449 26.5874 5.18726C26.5505 5.1729 26.488 5.1729 26.4511 5.18726ZM5.16408 5.47735C5.14136 5.49746 5.12148 5.51469 5.09876 5.5348C5.30607 5.57788 5.35434 5.54916 5.16408 5.47735ZM5.91094 5.83638L5.06185 5.75596C4.99653 5.75022 4.93122 5.74447 4.8659 5.7416C4.82898 5.77607 4.79207 5.80766 4.75515 5.84213C4.93406 5.83638 5.14704 5.83064 5.33447 5.83351L5.91094 5.83638ZM22.234 3.66497C22.217 3.64774 22.1687 3.64487 22.129 3.6621C22.0864 3.67933 22.0977 3.6937 22.1631 3.69657C22.2198 3.69944 22.2511 3.68508 22.234 3.66497ZM23.0292 4.45484C22.9923 4.4376 22.9298 4.4376 22.8929 4.45484C22.856 4.4692 22.8844 4.48356 22.961 4.48356C23.0349 4.48356 23.0661 4.4692 23.0292 4.45484ZM26.0479 5.16428C26.1075 5.16715 26.1388 5.15279 26.1217 5.13556C26.1018 5.11545 26.0564 5.11545 26.0166 5.12981C25.9712 5.14992 25.9854 5.16141 26.0479 5.16428ZM25.355 5.12981C25.2868 5.1413 25.3294 5.15279 25.4515 5.15566C25.5708 5.15566 25.6276 5.14417 25.5736 5.12981C25.5225 5.11545 25.4231 5.11545 25.355 5.12981ZM26.011 6.26147C25.974 6.27584 26.0053 6.2902 26.082 6.2902C26.1558 6.2902 26.187 6.27584 26.1501 6.26147C26.1104 6.24711 26.0507 6.24711 26.011 6.26147ZM25.9769 6.40796C25.8264 6.31317 25.8037 6.27871 25.8661 6.23275C25.9314 6.1868 25.9314 6.18105 25.8633 6.20116C25.815 6.21552 25.7866 6.27009 25.798 6.32754C25.8093 6.39934 25.7895 6.41657 25.7241 6.39072C25.6759 6.37062 25.4884 6.35626 25.3095 6.35626C25.1306 6.35626 24.9858 6.33615 24.9858 6.31317C24.9858 6.2902 25.1533 6.27584 25.355 6.28158C25.6106 6.28732 25.6844 6.27584 25.5878 6.24424C25.3976 6.17818 24.7047 6.17818 24.8495 6.24137C24.9858 6.30456 24.983 6.30456 24.5116 6.31892C23.9266 6.33328 23.9578 6.41083 24.5513 6.41657C24.8353 6.41945 25.2783 6.44242 25.5339 6.4654C25.7895 6.48838 26.0365 6.51136 26.082 6.5171C26.1246 6.51997 26.0791 6.47115 25.9769 6.40796ZM24.273 5.0695C24.273 4.9661 23.7533 4.87706 22.9923 4.85408C22.2766 4.8311 21.331 4.76217 20.729 4.69036C20.6324 4.676 20.5529 4.69036 20.5529 4.72196C20.5529 4.75068 20.6693 4.77366 20.8113 4.77366C20.9533 4.77366 21.3906 4.81387 21.7825 4.85982C22.1744 4.90865 22.8758 4.98046 23.3444 5.02354C23.8101 5.06375 24.2105 5.10109 24.2333 5.10396C24.256 5.10971 24.273 5.09247 24.273 5.0695ZM24.1367 6.1868C24.2418 6.23275 24.7529 6.26435 24.7075 6.22126C24.6961 6.20977 24.5371 6.1868 24.3554 6.17243C24.1594 6.15233 24.0714 6.15807 24.1367 6.1868ZM25.1221 5.11258C25.0625 5.08673 24.8892 5.06662 24.7387 5.0695L24.4661 5.07524L24.7671 5.11258C25.1988 5.16715 25.2471 5.16715 25.1221 5.11258ZM61.2045 17.8797C61.2045 16.7739 60.1963 15.7628 59.103 15.7628C58.0097 15.7628 57.1521 16.7825 57.1521 17.8883C57.1521 18.9941 58.1318 19.8816 59.2251 19.8816C60.3184 19.8816 61.2045 18.9855 61.2045 17.8797ZM55.9906 9.92357C55.9906 9.68518 55.9395 9.45253 55.8515 9.23424C55.8543 9.25722 55.8571 9.27732 55.8571 9.3003C55.8571 10.363 55.0024 11.2247 53.9516 11.2247C53.1366 11.2247 52.3926 10.7134 52.0944 9.98964C52.1285 11.0265 53.0543 11.8508 54.0851 11.8508C55.1387 11.8508 55.9906 10.9863 55.9906 9.92357ZM53.3666 22.0588C53.3666 20.953 52.3585 19.9419 51.2652 19.9419C50.1719 19.9419 49.3143 20.9616 49.3143 22.0703C49.3143 23.1732 50.294 24.0607 51.3873 24.0607C52.4806 24.0607 53.3666 23.1646 53.3666 22.0588ZM48.7406 13.8269C48.7406 12.7613 47.7723 11.7905 46.7187 11.7905C45.668 11.7905 44.8416 12.77 44.8416 13.8356C44.8416 14.8983 45.7844 15.7513 46.8351 15.7513C47.8887 15.7513 48.7406 14.8897 48.7406 13.8269ZM64.8962 16.7853C64.8962 23.4949 59.5176 28.9349 52.881 28.9349C46.2473 28.9349 40.2979 23.5523 40.2979 16.8428C40.2979 10.1304 45.5061 3.94358 52.1427 3.94358C58.7764 3.94358 64.8962 10.0729 64.8962 16.7853ZM16.7675 8.27491C16.7788 8.27778 16.7873 8.28353 16.7987 8.28927C16.8015 8.28927 16.8044 8.28927 16.8044 8.29214C16.793 8.28353 16.7788 8.28065 16.7675 8.27491ZM11.3974 24.5433C11.3946 24.5433 11.3917 24.5433 11.3889 24.5404C11.2952 24.5117 11.1986 24.4829 11.1021 24.4513C11.2015 24.4858 11.298 24.5145 11.3974 24.5433ZM15.447 17.9601L19.3573 18.2358L18.6247 14.1142L15.5946 14.7489L14.9046 10.3286L11.9994 10.8571L11.9143 14.6628L8.8842 15.5733L8.31908 17.265L11.8745 18.1296L11.1418 20.2665L15.7622 21.0477L15.447 17.9601ZM22.2 16.4263C22.2 21.1023 18.4514 24.8937 13.8283 24.8937C12.9905 24.8937 12.1727 24.7702 11.3889 24.5404C8.50367 23.1703 6.39655 20.3096 6.39655 16.9749C6.39655 12.296 10.0258 7.98194 14.649 7.98194C15.3816 7.98194 16.1029 8.09109 16.7987 8.28927C19.877 9.7455 22.2 12.9739 22.2 16.4263ZM52.0348 1.88131L51.3362 0L39.2955 0.315946L39.1649 2.04216C45.6225 1.94738 50.9017 1.86983 51.5293 1.86983C51.6968 1.86983 51.8672 1.8727 52.0348 1.88131ZM26.028 2.23747C20.144 2.32364 15.1459 2.39832 13.5897 2.41555L14.294 0.0631892L25.4572 0.697953L26.028 2.23747Z" fill="#B3C4C6"/>
</g>
<path d="M61.2388 18.3814C61.2388 17.3702 60.2695 16.4457 59.2181 16.4457C58.1668 16.4457 57.3422 17.3781 57.3422 18.3893C57.3422 19.4004 58.2843 20.212 59.3356 20.212C60.3869 20.212 61.2388 19.3925 61.2388 18.3814ZM53.7022 22.2028C53.7022 21.1917 52.7328 20.2671 51.6815 20.2671C50.6302 20.2671 49.8055 21.1995 49.8055 22.2133C49.8055 23.2219 50.7476 24.0334 51.7989 24.0334C52.8502 24.0334 53.7022 23.214 53.7022 22.2028ZM61.6785 19.9704L52.3833 24.8818C51.0452 25.5883 49.3713 25.2652 48.4238 24.1149L48.1043 23.7262C46.8619 22.2186 47.3834 19.994 49.1802 19.1509L58.7949 14.6282C60.3596 13.8928 62.2465 14.5258 62.9947 16.0386C63.7101 17.4779 63.1312 19.2008 61.6785 19.9704ZM56.2253 11.1062C56.2253 10.8882 56.1762 10.6754 56.0915 10.4758C56.056 9.5277 55.144 8.67411 54.1527 8.67411C53.1397 8.67411 52.3478 9.57234 52.3478 10.5441C52.3478 10.7647 52.3942 10.9749 52.4788 11.1666C52.5116 12.1147 53.4018 12.8685 54.393 12.8685C55.4061 12.8685 56.2253 12.078 56.2253 11.1062ZM49.2539 14.6755C49.2539 13.7011 48.3228 12.8134 47.3097 12.8134C46.2993 12.8134 45.5047 13.709 45.5047 14.6834C45.5047 15.6551 46.4113 16.4352 47.4216 16.4352C48.4347 16.4352 49.2539 15.6473 49.2539 14.6755ZM57.009 12.7635L46.7581 17.0419C45.3873 17.6118 43.7953 16.9894 43.2273 15.6604C42.7112 14.4522 43.2219 13.0655 44.4124 12.4378L54.008 7.36615C55.1494 6.76207 56.5749 7.04047 57.3831 8.02013L58.0385 8.81331C59.128 10.1344 58.6201 12.0911 57.009 12.7635ZM37.2417 15.2113L34.0878 16.8607C33.5908 17.1181 33.4352 17.8718 33.771 18.3787L33.9731 18.686C34.2216 19.0616 34.6585 19.1693 35.0107 18.9382L37.9626 16.9841C38.3285 16.7425 38.4842 16.2093 38.3258 15.7444C38.151 15.2323 37.6622 14.9933 37.2417 15.2113ZM32.0343 15.319C32.1927 15.7838 32.037 16.317 31.6711 16.5586L28.7193 18.5127C28.367 18.7438 27.9301 18.6361 27.6789 18.2606L27.4796 17.9559C27.1437 17.4464 27.2993 16.6926 27.7936 16.4352L30.9475 14.7858C31.3708 14.5678 31.8596 14.8068 32.0343 15.319Z" fill="#F1F9EE"/>
<path d="M51.3148 19.1527C50.2163 19.1527 49.3547 20.1623 49.3547 21.2573C49.3547 22.3523 50.339 23.2312 51.4375 23.2312C52.5359 23.2312 53.4261 22.3438 53.4261 21.2488C53.4261 20.1538 52.4132 19.1527 51.3148 19.1527ZM46.7469 11.0809C45.6912 11.0809 44.861 12.0508 44.861 13.106C44.861 14.1583 45.8082 15.003 46.8639 15.003C47.9224 15.003 48.7783 14.1498 48.7783 13.0974C48.7783 12.0423 47.8026 11.0809 46.7469 11.0809ZM59.1895 15.0144C58.091 15.0144 57.2293 16.0241 57.2293 17.1191C57.2293 18.2141 58.2137 19.0929 59.3121 19.0929C60.4106 19.0929 61.3008 18.2056 61.3008 17.1106C61.3008 16.0156 60.2879 15.0144 59.1895 15.0144ZM14.8972 13.9365L18.6349 13.9763L18.5921 17.5372L15.0228 17.4945L15.0627 20.1737L11.114 20.0486L11.1568 17.284L8.30078 17.1191L8.42632 13.9763L11.1996 13.8511L11.2823 10.0826L14.8972 10.2504V13.9365Z" fill="#2B2560"/>
</svg>
