<svg preserveAspectRatio="none" width="100%" height="100%" overflow="visible" style="display: block;" viewBox="0 0 20 18" fill="none" xmlns="http://www.w3.org/2000/svg">
<path id="icon" d="M10 17.9554L8.55 16.6833C6.86667 15.1993 5.475 13.9191 4.375 12.8427C3.275 11.7664 2.4 10.8042 1.75 9.95618C1.1 9.09185 0.641667 8.3009 0.375 7.58333C0.125 6.86577 0 6.1319 0 5.38172C0 3.84875 0.525 2.56855 1.575 1.54113C2.625 0.51371 3.93333 0 5.5 0C6.36667 0 7.19167 0.179391 7.975 0.538172C8.75833 0.896954 9.43333 1.40251 10 2.05484C10.5667 1.40251 11.2417 0.896954 12.025 0.538172C12.8083 0.179391 13.6333 0 14.5 0C16.0667 0 17.375 0.51371 18.425 1.54113C19.475 2.56855 20 3.84875 20 5.38172C20 6.1319 19.8667 6.86577 19.6 7.58333C19.35 8.3009 18.9 9.09185 18.25 9.95618C17.6 10.8042 16.725 11.7664 15.625 12.8427C14.525 13.9191 13.1333 15.1993 11.45 16.6833L10 17.9554ZM10 15.3134C11.6 13.9109 12.9167 12.7123 13.95 11.7175C14.9833 10.7064 15.8 9.83387 16.4 9.1C17 8.34982 17.4167 7.68934 17.65 7.11855C17.8833 6.53145 18 5.95251 18 5.38172C18 4.40323 17.6667 3.58781 17 2.93549C16.3333 2.28316 15.5 1.95699 14.5 1.95699C13.7167 1.95699 12.9917 2.17715 12.325 2.61747C11.6583 3.04149 11.2 3.58781 10.95 4.25645H9.05C8.8 3.58781 8.34167 3.04149 7.675 2.61747C7.00833 2.17715 6.28333 1.95699 5.5 1.95699C4.5 1.95699 3.66667 2.28316 3 2.93549C2.33333 3.58781 2 4.40323 2 5.38172C2 5.95251 2.11667 6.53145 2.35 7.11855C2.58333 7.68934 3 8.34982 3.6 9.1C4.2 9.83387 5.01667 10.7064 6.05 11.7175C7.08333 12.7123 8.4 13.9109 10 15.3134Z" fill="var(--fill-0, #EDECF7)"/>
</svg>
