<svg preserveAspectRatio="none" width="100%" height="100%" overflow="visible" style="display: block;" viewBox="0 0 9 14" fill="none" xmlns="http://www.w3.org/2000/svg">
<g id="Group">
<path id="Vector" d="M7.92614 5.9351C7.98871 6.1988 8.02347 6.52579 8.02347 6.91959C8.02347 7.29581 7.98871 7.6228 7.92614 7.90409C7.98871 8.16779 8.02347 8.50181 8.02347 8.90265C8.02347 9.27886 7.98871 9.60586 7.92614 9.88714H7.18915C7.25173 10.1508 7.28649 10.4778 7.28649 10.8716C7.28649 11.2584 7.25173 11.5854 7.18915 11.8561H5.96548C6.02806 12.1304 6.06282 12.4609 6.06282 12.8547C6.06282 13.2309 6.02806 13.5579 5.96548 13.8392H2.05808C1.99203 13.5579 1.96075 13.2309 1.96075 12.8547C1.96075 12.4609 1.99203 12.1304 2.05808 11.8561H0.834414C0.768363 11.5854 0.737076 11.2584 0.737076 10.8716C0.737076 10.4778 0.768363 10.1508 0.834414 9.88714H0.0974307C0.0313801 9.60586 9.33207e-05 9.27886 9.33207e-05 8.90265C9.33207e-05 8.50181 0.0313801 8.16779 0.0974307 7.90409C0.0313801 7.6228 9.33207e-05 7.29581 9.33207e-05 6.91959C9.33207e-05 6.52579 0.0313801 6.1988 0.0974307 5.9351C0.0313801 5.65381 9.33207e-05 5.3233 9.33207e-05 4.93654C9.33207e-05 4.54274 0.0313801 4.21574 0.0974307 3.95204H0.834414C0.768363 3.67076 0.737076 3.34376 0.737076 2.96755C0.737076 2.57375 0.768363 2.24675 0.834414 1.98305H2.05808C1.99203 1.70177 1.96075 1.37126 1.96075 0.984491C1.96075 0.590692 1.99203 0.2637 2.05808 -4.72181e-06H5.96548C6.02806 0.2637 6.06282 0.590692 6.06282 0.984491C6.06282 1.37126 6.02806 1.70177 5.96548 1.98305H7.18915C7.25173 2.24675 7.28649 2.57375 7.28649 2.96755C7.28649 3.34376 7.25173 3.67076 7.18915 3.95204H7.92614C7.98871 4.21574 8.02347 4.54274 8.02347 4.93654C8.02347 5.3233 7.98871 5.65381 7.92614 5.9351ZM5.96548 9.88714C5.89943 9.60586 5.86815 9.27886 5.86815 8.90265C5.86815 8.50181 5.89943 8.16779 5.96548 7.90409C5.89943 7.6228 5.86815 7.29581 5.86815 6.91959C5.86815 6.52579 5.89943 6.1988 5.96548 5.9351C5.89943 5.65381 5.86815 5.3233 5.86815 4.93654C5.86815 4.54274 5.89943 4.21574 5.96548 3.95204H5.2285C5.16245 3.67076 5.13116 3.34376 5.13116 2.96755C5.13116 2.57375 5.16245 2.24675 5.2285 1.98305H2.79507C2.85764 2.24675 2.8924 2.57375 2.8924 2.96755C2.8924 3.34376 2.85764 3.67076 2.79507 3.95204H2.05808C2.12066 4.21574 2.15542 4.54274 2.15542 4.93654C2.15542 5.3233 2.12066 5.65381 2.05808 5.9351C2.12066 6.1988 2.15542 6.52579 2.15542 6.91959C2.15542 7.29581 2.12066 7.6228 2.05808 7.90409C2.12066 8.16779 2.15542 8.50181 2.15542 8.90265C2.15542 9.27886 2.12066 9.60586 2.05808 9.88714H2.79507C2.85764 10.1508 2.8924 10.4778 2.8924 10.8716C2.8924 11.2584 2.85764 11.5854 2.79507 11.8561H5.2285C5.16245 11.5854 5.13116 11.2584 5.13116 10.8716C5.13116 10.4778 5.16245 10.1508 5.2285 9.88714H5.96548Z" fill="var(--fill-0, #00FFFF)"/>
</g>
</svg>
