<svg preserveAspectRatio="none" width="100%" height="100%" overflow="visible" style="display: block;" viewBox="0 0 9 14" fill="none" xmlns="http://www.w3.org/2000/svg">
<g id="Group">
<path id="Vector" d="M7.92602 9.88713C7.9886 10.1508 8.02336 10.4778 8.02336 10.8716C8.02336 11.2584 7.9886 11.5854 7.92602 11.8561H6.93874C7.00132 12.1304 7.03608 12.4609 7.03608 12.8547C7.03608 13.2309 7.00132 13.5579 6.93874 13.8392H2.05797C1.99192 13.5579 1.96063 13.2309 1.96063 12.8547C1.96063 12.4609 1.99192 12.1304 2.05797 11.8561H1.0846C1.01855 11.5854 0.98726 11.2584 0.98726 10.8716C0.98726 10.4778 1.01855 10.1508 1.0846 9.88713H0.0973185C0.0312679 9.60585 -1.88612e-05 9.27886 -1.88612e-05 8.90264C-1.88612e-05 8.50181 0.0312679 8.16778 0.0973185 7.90408C0.0312679 7.6228 -1.88612e-05 7.2958 -1.88612e-05 6.91958C-1.88612e-05 6.52579 0.0312679 6.19879 0.0973185 5.93509C0.0312679 5.6538 -1.88612e-05 5.3233 -1.88612e-05 4.93653C-1.88612e-05 4.54273 0.0312679 4.21574 0.0973185 3.95203H1.0846C1.01855 3.67075 0.98726 3.34376 0.98726 2.96754C0.98726 2.57374 1.01855 2.24675 1.0846 1.98304H2.05797C1.99192 1.70176 1.96063 1.37125 1.96063 0.984484C1.96063 0.590686 1.99192 0.263693 2.05797 -1.1005e-05H6.93874C7.00132 0.263693 7.03608 0.590686 7.03608 0.984484C7.03608 1.37125 7.00132 1.70176 6.93874 1.98304H7.92602C7.9886 2.24675 8.02336 2.57374 8.02336 2.96754C8.02336 3.34376 7.9886 3.67075 7.92602 3.95203H5.96537C5.89932 3.67075 5.86803 3.34376 5.86803 2.96754C5.86803 2.57374 5.89932 2.24675 5.96537 1.98304H3.03134C3.09392 2.24675 3.12868 2.57374 3.12868 2.96754C3.12868 3.34376 3.09392 3.67075 3.03134 3.95203H2.05797C2.12055 4.21574 2.15531 4.54273 2.15531 4.93653C2.15531 5.3233 2.12055 5.6538 2.05797 5.93509C2.12055 6.19879 2.15531 6.52579 2.15531 6.91958C2.15531 7.2958 2.12055 7.6228 2.05797 7.90408C2.12055 8.16778 2.15531 8.50181 2.15531 8.90264C2.15531 9.27886 2.12055 9.60585 2.05797 9.88713H3.03134C3.09392 10.1508 3.12868 10.4778 3.12868 10.8716C3.12868 11.2584 3.09392 11.5854 3.03134 11.8561H5.96537C5.89932 11.5854 5.86803 11.2584 5.86803 10.8716C5.86803 10.4778 5.89932 10.1508 5.96537 9.88713H7.92602Z" fill="var(--fill-0, #F1F9EE)"/>
</g>
</svg>
