<svg preserveAspectRatio="none" width="100%" height="100%" overflow="visible" style="display: block;" viewBox="0 0 9 14" fill="none" xmlns="http://www.w3.org/2000/svg">
<g id="Group">
<path id="Vector" d="M7.92608 5.93509C7.98866 6.19879 8.02342 6.52579 8.02342 6.91959C8.02342 7.2958 7.98866 7.6228 7.92608 7.90408C7.98866 8.16779 8.02342 8.50181 8.02342 8.90264C8.02342 9.27886 7.98866 9.60585 7.92608 9.88714H7.1891C7.25167 10.1508 7.28644 10.4778 7.28644 10.8716C7.28644 11.2584 7.25167 11.5854 7.1891 11.8561H5.96543C6.028 12.1304 6.06277 12.4609 6.06277 12.8547C6.06277 13.2309 6.028 13.5579 5.96543 13.8392H2.05803C1.99198 13.5579 1.96069 13.2309 1.96069 12.8547C1.96069 12.4609 1.99198 12.1304 2.05803 11.8561H0.83436C0.768309 11.5854 0.737022 11.2584 0.737022 10.8716C0.737022 10.4778 0.768309 10.1508 0.83436 9.88714H0.0973768C0.0313262 9.60585 3.94273e-05 9.27886 3.94273e-05 8.90264C3.94273e-05 8.50181 0.0313262 8.16779 0.0973768 7.90408C0.0313262 7.6228 3.94273e-05 7.2958 3.94273e-05 6.91959C3.94273e-05 6.52579 0.0313262 6.19879 0.0973768 5.93509C0.0313262 5.65381 3.94273e-05 5.3233 3.94273e-05 4.93653C3.94273e-05 4.54273 0.0313262 4.21574 0.0973768 3.95204H0.83436C0.768309 3.67075 0.737022 3.34376 0.737022 2.96754C0.737022 2.57374 0.768309 2.24675 0.83436 1.98305H2.05803C1.99198 1.70176 1.96069 1.37125 1.96069 0.984486C1.96069 0.590687 1.99198 0.263695 2.05803 -9.6533e-06H5.96543C6.028 0.263695 6.06277 0.590687 6.06277 0.984486C6.06277 1.37125 6.028 1.70176 5.96543 1.98305H7.1891C7.25167 2.24675 7.28644 2.57374 7.28644 2.96754C7.28644 3.34376 7.25167 3.67075 7.1891 3.95204H7.92608C7.98866 4.21574 8.02342 4.54273 8.02342 4.93653C8.02342 5.3233 7.98866 5.65381 7.92608 5.93509ZM5.96543 9.88714C5.89938 9.60585 5.86809 9.27886 5.86809 8.90264C5.86809 8.50181 5.89938 8.16779 5.96543 7.90408C5.89938 7.6228 5.86809 7.2958 5.86809 6.91959C5.86809 6.52579 5.89938 6.19879 5.96543 5.93509C5.89938 5.65381 5.86809 5.3233 5.86809 4.93653C5.86809 4.54273 5.89938 4.21574 5.96543 3.95204H5.22845C5.1624 3.67075 5.13111 3.34376 5.13111 2.96754C5.13111 2.57374 5.1624 2.24675 5.22845 1.98305H2.79501C2.85759 2.24675 2.89235 2.57374 2.89235 2.96754C2.89235 3.34376 2.85759 3.67075 2.79501 3.95204H2.05803C2.1206 4.21574 2.15537 4.54273 2.15537 4.93653C2.15537 5.3233 2.1206 5.65381 2.05803 5.93509C2.1206 6.19879 2.15537 6.52579 2.15537 6.91959C2.15537 7.2958 2.1206 7.6228 2.05803 7.90408C2.1206 8.16779 2.15537 8.50181 2.15537 8.90264C2.15537 9.27886 2.1206 9.60585 2.05803 9.88714H2.79501C2.85759 10.1508 2.89235 10.4778 2.89235 10.8716C2.89235 11.2584 2.85759 11.5854 2.79501 11.8561H5.22845C5.1624 11.5854 5.13111 11.2584 5.13111 10.8716C5.13111 10.4778 5.1624 10.1508 5.22845 9.88714H5.96543Z" fill="var(--fill-0, #FF00FF)"/>
</g>
</svg>
