<svg preserveAspectRatio="none" width="100%" height="100%" overflow="visible" style="display: block;" viewBox="0 0 9 14" fill="none" xmlns="http://www.w3.org/2000/svg">
<g id="Group">
<path id="Vector" d="M7.92587 11.8561C7.98844 12.1304 8.0232 12.4609 8.0232 12.8547C8.0232 13.2309 7.98844 13.5579 7.92587 13.8392H5.96521C5.89916 13.5579 5.86788 13.2309 5.86788 12.8547C5.86788 12.4609 5.89916 12.1304 5.96521 11.8561H5.22823C5.16218 11.5854 5.13089 11.2584 5.13089 10.8716C5.13089 10.4778 5.16218 10.1508 5.22823 9.88713H4.50515C4.4391 9.60585 4.40782 9.27886 4.40782 8.90264C4.40782 8.50181 4.4391 8.16778 4.50515 7.90408H2.05781C2.12039 8.16778 2.15515 8.50181 2.15515 8.90264C2.15515 9.27886 2.12039 9.60585 2.05781 9.88713C2.12039 10.1508 2.15515 10.4778 2.15515 10.8716C2.15515 11.2584 2.12039 11.5854 2.05781 11.8561C2.12039 12.1304 2.15515 12.4609 2.15515 12.8547C2.15515 13.2309 2.12039 13.5579 2.05781 13.8392H0.0971621C0.0311116 13.5579 -0.000175222 13.2309 -0.000175222 12.8547C-0.000175222 12.4609 0.0311116 12.1304 0.0971621 11.8561C0.0311116 11.5854 -0.000175222 11.2584 -0.000175222 10.8716C-0.000175222 10.4778 0.0311116 10.1508 0.0971621 9.88713C0.0311116 9.60585 -0.000175222 9.27886 -0.000175222 8.90264C-0.000175222 8.50181 0.0311116 8.16778 0.0971621 7.90408C0.0311116 7.6228 -0.000175222 7.2958 -0.000175222 6.91958C-0.000175222 6.52579 0.0311116 6.19879 0.0971621 5.93509C0.0311116 5.6538 -0.000175222 5.3233 -0.000175222 4.93653C-0.000175222 4.54273 0.0311116 4.21574 0.0971621 3.95203C0.0311116 3.67075 -0.000175222 3.34376 -0.000175222 2.96754C-0.000175222 2.57374 0.0311116 2.24675 0.0971621 1.98304C0.0311116 1.70176 -0.000175222 1.37125 -0.000175222 0.984484C-0.000175222 0.590686 0.0311116 0.263693 0.0971621 -1.1005e-05H6.93859C7.00116 0.263693 7.03593 0.590686 7.03593 0.984484C7.03593 1.37125 7.00116 1.70176 6.93859 1.98304H7.92587C7.98844 2.24675 8.0232 2.57374 8.0232 2.96754C8.0232 3.34376 7.98844 3.67075 7.92587 3.95203H7.42528C7.48785 4.21574 7.52261 4.54273 7.52261 4.93653C7.52261 5.3233 7.48785 5.6538 7.42528 5.93509H5.96521C6.02779 6.19879 6.06255 6.52579 6.06255 6.91958C6.06255 7.2958 6.02779 7.6228 5.96521 7.90408H6.4519C6.51448 8.16778 6.54924 8.50181 6.54924 8.90264C6.54924 9.27886 6.51448 9.60585 6.4519 9.88713H7.18888C7.25146 10.1508 7.28622 10.4778 7.28622 10.8716C7.28622 11.2584 7.25146 11.5854 7.18888 11.8561H7.92587ZM5.47853 5.93509C5.41248 5.6538 5.38119 5.3233 5.38119 4.93653C5.38119 4.54273 5.41248 4.21574 5.47853 3.95203C5.41248 3.67075 5.38119 3.34376 5.38119 2.96754C5.38119 2.57374 5.41248 2.24675 5.47853 1.98304H2.05781C2.12039 2.24675 2.15515 2.57374 2.15515 2.96754C2.15515 3.34376 2.12039 3.67075 2.05781 3.95203C2.12039 4.21574 2.15515 4.54273 2.15515 4.93653C2.15515 5.3233 2.12039 5.6538 2.05781 5.93509H5.47853Z" fill="var(--fill-0, #F1F9EE)"/>
</g>
</svg>
