<svg preserveAspectRatio="none" width="100%" height="100%" overflow="visible" style="display: block;" viewBox="0 0 9 14" fill="none" xmlns="http://www.w3.org/2000/svg">
<g id="Group">
<path id="Vector" d="M7.92581 9.88714C7.98838 10.1508 8.02314 10.4778 8.02314 10.8716C8.02314 11.2584 7.98838 11.5854 7.92581 11.8561H6.93853C7.0011 12.1304 7.03586 12.4609 7.03586 12.8547C7.03586 13.2309 7.0011 13.5579 6.93853 13.8392H2.05775C1.9917 13.5579 1.96042 13.2309 1.96042 12.8547C1.96042 12.4609 1.9917 12.1304 2.05775 11.8561H1.08438C1.01833 11.5854 0.987042 11.2584 0.987042 10.8716C0.987042 10.4778 1.01833 10.1508 1.08438 9.88714H0.0971006C0.03105 9.60586 -0.000236749 9.27886 -0.000236749 8.90264C-0.000236749 8.50181 0.03105 8.16779 0.0971006 7.90409C0.03105 7.6228 -0.000236749 7.29581 -0.000236749 6.91959C-0.000236749 6.52579 0.03105 6.1988 0.0971006 5.93509C0.03105 5.65381 -0.000236749 5.3233 -0.000236749 4.93654C-0.000236749 4.54274 0.03105 4.21574 0.0971006 3.95204H1.08438C1.01833 3.67076 0.987042 3.34376 0.987042 2.96754C0.987042 2.57375 1.01833 2.24675 1.08438 1.98305H2.05775C1.9917 1.70176 1.96042 1.37126 1.96042 0.98449C1.96042 0.590692 1.9917 0.263699 2.05775 -5.41665e-06H6.93853C7.0011 0.263699 7.03586 0.590692 7.03586 0.98449C7.03586 1.37126 7.0011 1.70176 6.93853 1.98305H7.92581C7.98838 2.24675 8.02314 2.57375 8.02314 2.96754C8.02314 3.34376 7.98838 3.67076 7.92581 3.95204H5.96515C5.8991 3.67076 5.86782 3.34376 5.86782 2.96754C5.86782 2.57375 5.8991 2.24675 5.96515 1.98305H3.03113C3.0937 2.24675 3.12846 2.57375 3.12846 2.96754C3.12846 3.34376 3.0937 3.67076 3.03113 3.95204H2.05775C2.12033 4.21574 2.15509 4.54274 2.15509 4.93654C2.15509 5.3233 2.12033 5.65381 2.05775 5.93509C2.12033 6.1988 2.15509 6.52579 2.15509 6.91959C2.15509 7.29581 2.12033 7.6228 2.05775 7.90409C2.12033 8.16779 2.15509 8.50181 2.15509 8.90264C2.15509 9.27886 2.12033 9.60586 2.05775 9.88714H3.03113C3.0937 10.1508 3.12846 10.4778 3.12846 10.8716C3.12846 11.2584 3.0937 11.5854 3.03113 11.8561H5.96515C5.8991 11.5854 5.86782 11.2584 5.86782 10.8716C5.86782 10.4778 5.8991 10.1508 5.96515 9.88714H7.92581Z" fill="var(--fill-0, #00FFFF)"/>
</g>
</svg>
