<svg preserveAspectRatio="none" width="100%" height="100%" overflow="visible" style="display: block;" viewBox="0 0 9 14" fill="none" xmlns="http://www.w3.org/2000/svg">
<g id="Group">
<path id="Vector" d="M7.92651 1.98304C7.98908 2.24675 8.02385 2.57374 8.02385 2.96754C8.02385 3.34376 7.98908 3.67075 7.92651 3.95203C7.98908 4.21574 8.02385 4.54273 8.02385 4.93653C8.02385 5.3233 7.98908 5.6538 7.92651 5.93509C7.98908 6.19879 8.02385 6.52579 8.02385 6.91958C8.02385 7.2958 7.98908 7.6228 7.92651 7.90408C7.98908 8.16778 8.02385 8.50181 8.02385 8.90264C8.02385 9.27886 7.98908 9.60585 7.92651 9.88713C7.98908 10.1508 8.02385 10.4778 8.02385 10.8716C8.02385 11.2584 7.98908 11.5854 7.92651 11.8561C7.98908 12.1304 8.02385 12.4609 8.02385 12.8547C8.02385 13.2309 7.98908 13.5579 7.92651 13.8392H5.96586C5.89981 13.5579 5.86852 13.2309 5.86852 12.8547C5.86852 12.4609 5.89981 12.1304 5.96586 11.8561C5.89981 11.5854 5.86852 11.2584 5.86852 10.8716C5.86852 10.4778 5.89981 10.1508 5.96586 9.88713C5.89981 9.60585 5.86852 9.27886 5.86852 8.90264C5.86852 8.50181 5.89981 8.16778 5.96586 7.90408H2.05846C2.12103 8.16778 2.1558 8.50181 2.1558 8.90264C2.1558 9.27886 2.12103 9.60585 2.05846 9.88713C2.12103 10.1508 2.1558 10.4778 2.1558 10.8716C2.1558 11.2584 2.12103 11.5854 2.05846 11.8561C2.12103 12.1304 2.1558 12.4609 2.1558 12.8547C2.1558 13.2309 2.12103 13.5579 2.05846 13.8392H0.0978052C0.0317546 13.5579 0.000467801 13.2309 0.000467801 12.8547C0.000467801 12.4609 0.0317546 12.1304 0.0978052 11.8561C0.0317546 11.5854 0.000467801 11.2584 0.000467801 10.8716C0.000467801 10.4778 0.0317546 10.1508 0.0978052 9.88713C0.0317546 9.60585 0.000467801 9.27886 0.000467801 8.90264C0.000467801 8.50181 0.0317546 8.16778 0.0978052 7.90408C0.0317546 7.6228 0.000467801 7.2958 0.000467801 6.91958C0.000467801 6.52579 0.0317546 6.19879 0.0978052 5.93509C0.0317546 5.6538 0.000467801 5.3233 0.000467801 4.93653C0.000467801 4.54273 0.0317546 4.21574 0.0978052 3.95203C0.0317546 3.67075 0.000467801 3.34376 0.000467801 2.96754C0.000467801 2.57374 0.0317546 2.24675 0.0978052 1.98304C0.0317546 1.70176 0.000467801 1.37125 0.000467801 0.984484C0.000467801 0.590686 0.0317546 0.263693 0.0978052 -1.1005e-05H2.05846C2.12103 0.263693 2.1558 0.590686 2.1558 0.984484C2.1558 1.37125 2.12103 1.70176 2.05846 1.98304C2.12103 2.24675 2.1558 2.57374 2.1558 2.96754C2.1558 3.34376 2.12103 3.67075 2.05846 3.95203C2.12103 4.21574 2.1558 4.54273 2.1558 4.93653C2.1558 5.3233 2.12103 5.6538 2.05846 5.93509H5.96586C5.89981 5.6538 5.86852 5.3233 5.86852 4.93653C5.86852 4.54273 5.89981 4.21574 5.96586 3.95203C5.89981 3.67075 5.86852 3.34376 5.86852 2.96754C5.86852 2.57374 5.89981 2.24675 5.96586 1.98304C5.89981 1.70176 5.86852 1.37125 5.86852 0.984484C5.86852 0.590686 5.89981 0.263693 5.96586 -1.1005e-05H7.92651C7.98908 0.263693 8.02385 0.590686 8.02385 0.984484C8.02385 1.37125 7.98908 1.70176 7.92651 1.98304Z" fill="var(--fill-0, #F1F9EE)"/>
</g>
</svg>
