<svg preserveAspectRatio="none" width="100%" height="100%" overflow="visible" style="display: block;" viewBox="0 0 9 14" fill="none" xmlns="http://www.w3.org/2000/svg">
<g id="Group">
<path id="Vector" d="M7.92576 9.88714C7.98834 10.1508 8.0231 10.4778 8.0231 10.8716C8.0231 11.2584 7.98834 11.5854 7.92576 11.8561H6.93848C7.00106 12.1304 7.03582 12.4609 7.03582 12.8547C7.03582 13.2309 7.00106 13.5579 6.93848 13.8392H2.05771C1.99166 13.5579 1.96037 13.2309 1.96037 12.8547C1.96037 12.4609 1.99166 12.1304 2.05771 11.8561H1.08433C1.01828 11.5854 0.986997 11.2584 0.986997 10.8716C0.986997 10.4778 1.01828 10.1508 1.08433 9.88714H0.0970553C0.0310047 9.60585 -0.000282084 9.27886 -0.000282084 8.90264C-0.000282084 8.50181 0.0310047 8.16779 0.0970553 7.90408C0.0310047 7.6228 -0.000282084 7.2958 -0.000282084 6.91959C-0.000282084 6.52579 0.0310047 6.19879 0.0970553 5.93509C0.0310047 5.65381 -0.000282084 5.3233 -0.000282084 4.93653C-0.000282084 4.54273 0.0310047 4.21574 0.0970553 3.95204H1.08433C1.01828 3.67075 0.986997 3.34376 0.986997 2.96754C0.986997 2.57374 1.01828 2.24675 1.08433 1.98305H2.05771C1.99166 1.70176 1.96037 1.37125 1.96037 0.984486C1.96037 0.590687 1.99166 0.263695 2.05771 -9.6533e-06H6.93848C7.00106 0.263695 7.03582 0.590687 7.03582 0.984486C7.03582 1.37125 7.00106 1.70176 6.93848 1.98305H7.92576C7.98834 2.24675 8.0231 2.57374 8.0231 2.96754C8.0231 3.34376 7.98834 3.67075 7.92576 3.95204H5.96511C5.89906 3.67075 5.86777 3.34376 5.86777 2.96754C5.86777 2.57374 5.89906 2.24675 5.96511 1.98305H3.03108C3.09366 2.24675 3.12842 2.57374 3.12842 2.96754C3.12842 3.34376 3.09366 3.67075 3.03108 3.95204H2.05771C2.12028 4.21574 2.15505 4.54273 2.15505 4.93653C2.15505 5.3233 2.12028 5.65381 2.05771 5.93509C2.12028 6.19879 2.15505 6.52579 2.15505 6.91959C2.15505 7.2958 2.12028 7.6228 2.05771 7.90408C2.12028 8.16779 2.15505 8.50181 2.15505 8.90264C2.15505 9.27886 2.12028 9.60585 2.05771 9.88714H3.03108C3.09366 10.1508 3.12842 10.4778 3.12842 10.8716C3.12842 11.2584 3.09366 11.5854 3.03108 11.8561H5.96511C5.89906 11.5854 5.86777 11.2584 5.86777 10.8716C5.86777 10.4778 5.89906 10.1508 5.96511 9.88714H7.92576Z" fill="var(--fill-0, #FF00FF)"/>
</g>
</svg>
