<svg preserveAspectRatio="none" width="100%" height="100%" overflow="visible" style="display: block;" viewBox="0 0 22 22" fill="none" xmlns="http://www.w3.org/2000/svg">
<path id="Icon" d="M8 17.5246C3 18.8996 3 15.2329 1 14.7746M15 20.2746V16.7271C15.0375 16.29 14.9731 15.8505 14.811 15.438C14.6489 15.0255 14.3929 14.6494 14.06 14.3346C17.2 14.0137 20.5 12.9229 20.5 7.91789C20.4997 6.63807 19.9627 5.40733 19 4.48039C19.4559 3.36069 19.4236 2.12305 18.91 1.02456C18.91 1.02456 17.73 0.703727 15 2.38123C12.708 1.81181 10.292 1.81181 8 2.38123C5.27 0.703727 4.09 1.02456 4.09 1.02456C3.57638 2.12305 3.54414 3.36069 4 4.48039C3.03013 5.4142 2.49252 6.65607 2.5 7.94539C2.5 12.9137 5.8 14.0046 8.94 14.3621C8.611 14.6737 8.35726 15.0453 8.19531 15.4528C8.03335 15.8603 7.96681 16.2945 8 16.7271V20.2746" stroke="var(--stroke-0, white)" stroke-width="1.83333" stroke-linecap="round" stroke-linejoin="round"/>
</svg>
