<svg preserveAspectRatio="none" width="100%" height="100%" overflow="visible" style="display: block;" viewBox="0 0 9 14" fill="none" xmlns="http://www.w3.org/2000/svg">
<g id="Group">
<path id="Vector" d="M8.02369 0.984484C8.02369 1.37125 7.98893 1.70176 7.92635 1.98304H4.99233C5.0549 2.24675 5.08967 2.57374 5.08967 2.96754C5.08967 3.34376 5.0549 3.67075 4.99233 3.95203C5.0549 4.21574 5.08967 4.54273 5.08967 4.93653C5.08967 5.3233 5.0549 5.6538 4.99233 5.93509C5.0549 6.19879 5.08967 6.52579 5.08967 6.91958C5.08967 7.2958 5.0549 7.6228 4.99233 7.90408C5.0549 8.16778 5.08967 8.50181 5.08967 8.90264C5.08967 9.27886 5.0549 9.60585 4.99233 9.88713C5.0549 10.1508 5.08967 10.4778 5.08967 10.8716C5.08967 11.2584 5.0549 11.5854 4.99233 11.8561C5.0549 12.1304 5.08967 12.4609 5.08967 12.8547C5.08967 13.2309 5.0549 13.5579 4.99233 13.8392H3.03168C2.96562 13.5579 2.93434 13.2309 2.93434 12.8547C2.93434 12.4609 2.96562 12.1304 3.03168 11.8561C2.96562 11.5854 2.93434 11.2584 2.93434 10.8716C2.93434 10.4778 2.96562 10.1508 3.03168 9.88713C2.96562 9.60585 2.93434 9.27886 2.93434 8.90264C2.93434 8.50181 2.96562 8.16778 3.03168 7.90408C2.96562 7.6228 2.93434 7.2958 2.93434 6.91958C2.93434 6.52579 2.96562 6.19879 3.03168 5.93509C2.96562 5.6538 2.93434 5.3233 2.93434 4.93653C2.93434 4.54273 2.96562 4.21574 3.03168 3.95203C2.96562 3.67075 2.93434 3.34376 2.93434 2.96754C2.93434 2.57374 2.96562 2.24675 3.03168 1.98304H0.0976488C0.0315982 1.70176 0.00031144 1.37125 0.00031144 0.984484C0.00031144 0.590686 0.0315982 0.263693 0.0976488 -1.1005e-05H7.92635C7.98893 0.263693 8.02369 0.590686 8.02369 0.984484Z" fill="var(--fill-0, #F1F9EE)"/>
</g>
</svg>
