<svg preserveAspectRatio="none" width="100%" height="100%" overflow="visible" style="display: block;" viewBox="0 0 21 20" fill="none" xmlns="http://www.w3.org/2000/svg">
<path id="Icon" d="M18.6837 2.54467C18.2155 2.05496 17.6596 1.66649 17.0478 1.40146C16.4359 1.13642 15.7801 1 15.1179 1C14.4556 1 13.7998 1.13642 13.1879 1.40146C12.5761 1.66649 12.0202 2.05496 11.552 2.54467L10.5804 3.5605L9.60868 2.54467C8.66297 1.55596 7.3803 1.00051 6.04285 1.00051C4.7054 1.00051 3.42273 1.55596 2.47702 2.54467C1.5313 3.53337 1 4.87434 1 6.27258C1 7.67082 1.5313 9.01179 2.47702 10.0005L10.5804 18.4722L18.6837 10.0005C19.1521 9.51103 19.5237 8.92986 19.7772 8.29022C20.0307 7.65057 20.1612 6.96497 20.1612 6.27258C20.1612 5.5802 20.0307 4.8946 19.7772 4.25495C19.5237 3.6153 19.1521 3.03414 18.6837 2.54467Z" stroke="var(--stroke-0, #1E1E1E)" stroke-width="1.5" stroke-linecap="round" stroke-linejoin="round"/>
</svg>
