<svg preserveAspectRatio="none" width="100%" height="100%" overflow="visible" style="display: block;" viewBox="0 0 9 14" fill="none" xmlns="http://www.w3.org/2000/svg">
<g id="Group">
<path id="Vector" d="M7.92577 5.9351C7.98834 6.1988 8.02311 6.52579 8.02311 6.91959C8.02311 7.29581 7.98834 7.6228 7.92577 7.90409C7.98834 8.16779 8.02311 8.50182 8.02311 8.90265C8.02311 9.27887 7.98834 9.60586 7.92577 9.88714H7.18879C7.25136 10.1508 7.28612 10.4778 7.28612 10.8716C7.28612 11.2584 7.25136 11.5854 7.18879 11.8561H5.96512C6.02769 12.1304 6.06245 12.4609 6.06245 12.8547C6.06245 13.2309 6.02769 13.5579 5.96512 13.8392H2.05772C1.99167 13.5579 1.96038 13.2309 1.96038 12.8547C1.96038 12.4609 1.99167 12.1304 2.05772 11.8561H0.834047C0.767996 11.5854 0.73671 11.2584 0.73671 10.8716C0.73671 10.4778 0.767996 10.1508 0.834047 9.88714H0.0970641C0.0310135 9.60586 -0.000273295 9.27887 -0.000273295 8.90265C-0.000273295 8.50182 0.0310135 8.16779 0.0970641 7.90409C0.0310135 7.6228 -0.000273295 7.29581 -0.000273295 6.91959C-0.000273295 6.52579 0.0310135 6.1988 0.0970641 5.9351C0.0310135 5.65381 -0.000273295 5.3233 -0.000273295 4.93654C-0.000273295 4.54274 0.0310135 4.21575 0.0970641 3.95204H0.834047C0.767996 3.67076 0.73671 3.34377 0.73671 2.96755C0.73671 2.57375 0.767996 2.24676 0.834047 1.98305H2.05772C1.99167 1.70177 1.96038 1.37126 1.96038 0.984493C1.96038 0.590694 1.99167 0.263702 2.05772 -2.7133e-06H5.96512C6.02769 0.263702 6.06245 0.590694 6.06245 0.984493C6.06245 1.37126 6.02769 1.70177 5.96512 1.98305H7.18879C7.25136 2.24676 7.28612 2.57375 7.28612 2.96755C7.28612 3.34377 7.25136 3.67076 7.18879 3.95204H7.92577C7.98834 4.21575 8.02311 4.54274 8.02311 4.93654C8.02311 5.3233 7.98834 5.65381 7.92577 5.9351ZM5.96512 9.88714C5.89907 9.60586 5.86778 9.27887 5.86778 8.90265C5.86778 8.50182 5.89907 8.16779 5.96512 7.90409C5.89907 7.6228 5.86778 7.29581 5.86778 6.91959C5.86778 6.52579 5.89907 6.1988 5.96512 5.9351C5.89907 5.65381 5.86778 5.3233 5.86778 4.93654C5.86778 4.54274 5.89907 4.21575 5.96512 3.95204H5.22813C5.16208 3.67076 5.1308 3.34377 5.1308 2.96755C5.1308 2.57375 5.16208 2.24676 5.22813 1.98305H2.7947C2.85727 2.24676 2.89204 2.57375 2.89204 2.96755C2.89204 3.34377 2.85727 3.67076 2.7947 3.95204H2.05772C2.12029 4.21575 2.15505 4.54274 2.15505 4.93654C2.15505 5.3233 2.12029 5.65381 2.05772 5.9351C2.12029 6.1988 2.15505 6.52579 2.15505 6.91959C2.15505 7.29581 2.12029 7.6228 2.05772 7.90409C2.12029 8.16779 2.15505 8.50182 2.15505 8.90265C2.15505 9.27887 2.12029 9.60586 2.05772 9.88714H2.7947C2.85727 10.1508 2.89204 10.4778 2.89204 10.8716C2.89204 11.2584 2.85727 11.5854 2.7947 11.8561H5.22813C5.16208 11.5854 5.1308 11.2584 5.1308 10.8716C5.1308 10.4778 5.16208 10.1508 5.22813 9.88714H5.96512Z" fill="var(--fill-0, #FF00FF)"/>
</g>
</svg>
