<svg preserveAspectRatio="none" width="100%" height="100%" overflow="visible" style="display: block;" viewBox="0 0 11 15" fill="none" xmlns="http://www.w3.org/2000/svg">
<path id="icon" d="M5.25 15C5.075 15 4.925 14.95 4.8 14.85C4.675 14.75 4.58125 14.6187 4.51875 14.4562C4.28125 13.7562 3.98125 13.1 3.61875 12.4875C3.26875 11.875 2.775 11.1562 2.1375 10.3312C1.5 9.50625 0.98125 8.71875 0.58125 7.96875C0.19375 7.21875 0 6.3125 0 5.25C0 3.7875 0.50625 2.55 1.51875 1.5375C2.54375 0.5125 3.7875 0 5.25 0C6.7125 0 7.95 0.5125 8.9625 1.5375C9.9875 2.55 10.5 3.7875 10.5 5.25C10.5 6.3875 10.2813 7.3375 9.84375 8.1C9.41875 8.85 8.925 9.59375 8.3625 10.3312C7.6875 11.2312 7.175 11.9812 6.825 12.5812C6.4875 13.1687 6.20625 13.7937 5.98125 14.4562C5.91875 14.6312 5.81875 14.7688 5.68125 14.8688C5.55625 14.9563 5.4125 15 5.25 15ZM5.25 7.125C5.775 7.125 6.21875 6.94375 6.58125 6.58125C6.94375 6.21875 7.125 5.775 7.125 5.25C7.125 4.725 6.94375 4.28125 6.58125 3.91875C6.21875 3.55625 5.775 3.375 5.25 3.375C4.725 3.375 4.28125 3.55625 3.91875 3.91875C3.55625 4.28125 3.375 4.725 3.375 5.25C3.375 5.775 3.55625 6.21875 3.91875 6.58125C4.28125 6.94375 4.725 7.125 5.25 7.125Z" fill="var(--fill-0, #6C6C6C)"/>
</svg>
