<svg preserveAspectRatio="none" width="100%" height="100%" overflow="visible" style="display: block;" viewBox="0 0 9 14" fill="none" xmlns="http://www.w3.org/2000/svg">
<g id="Group">
<path id="Vector" d="M7.92651 5.9351C7.98908 6.1988 8.02385 6.52579 8.02385 6.91959C8.02385 7.29581 7.98908 7.6228 7.92651 7.90409C7.98908 8.16779 8.02385 8.50182 8.02385 8.90265C8.02385 9.27886 7.98908 9.60586 7.92651 9.88714H7.18953C7.2521 10.1508 7.28686 10.4778 7.28686 10.8716C7.28686 11.2584 7.2521 11.5854 7.18953 11.8561H5.96586C6.02843 12.1304 6.0632 12.4609 6.0632 12.8547C6.0632 13.2309 6.02843 13.5579 5.96586 13.8392H2.05846C1.99241 13.5579 1.96112 13.2309 1.96112 12.8547C1.96112 12.4609 1.99241 12.1304 2.05846 11.8561H0.834788C0.768738 11.5854 0.737451 11.2584 0.737451 10.8716C0.737451 10.4778 0.768738 10.1508 0.834788 9.88714H0.0978052C0.0317546 9.60586 0.000467801 9.27886 0.000467801 8.90265C0.000467801 8.50182 0.0317546 8.16779 0.0978052 7.90409C0.0317546 7.6228 0.000467801 7.29581 0.000467801 6.91959C0.000467801 6.52579 0.0317546 6.1988 0.0978052 5.9351C0.0317546 5.65381 0.000467801 5.3233 0.000467801 4.93654C0.000467801 4.54274 0.0317546 4.21575 0.0978052 3.95204H0.834788C0.768738 3.67076 0.737451 3.34376 0.737451 2.96755C0.737451 2.57375 0.768738 2.24675 0.834788 1.98305H2.05846C1.99241 1.70177 1.96112 1.37126 1.96112 0.984491C1.96112 0.590693 1.99241 0.2637 2.05846 -4.06497e-06H5.96586C6.02843 0.2637 6.0632 0.590693 6.0632 0.984491C6.0632 1.37126 6.02843 1.70177 5.96586 1.98305H7.18953C7.2521 2.24675 7.28686 2.57375 7.28686 2.96755C7.28686 3.34376 7.2521 3.67076 7.18953 3.95204H7.92651C7.98908 4.21575 8.02385 4.54274 8.02385 4.93654C8.02385 5.3233 7.98908 5.65381 7.92651 5.9351ZM5.96586 9.88714C5.89981 9.60586 5.86852 9.27886 5.86852 8.90265C5.86852 8.50182 5.89981 8.16779 5.96586 7.90409C5.89981 7.6228 5.86852 7.29581 5.86852 6.91959C5.86852 6.52579 5.89981 6.1988 5.96586 5.9351C5.89981 5.65381 5.86852 5.3233 5.86852 4.93654C5.86852 4.54274 5.89981 4.21575 5.96586 3.95204H5.22887C5.16282 3.67076 5.13154 3.34376 5.13154 2.96755C5.13154 2.57375 5.16282 2.24675 5.22887 1.98305H2.79544C2.85801 2.24675 2.89278 2.57375 2.89278 2.96755C2.89278 3.34376 2.85801 3.67076 2.79544 3.95204H2.05846C2.12103 4.21575 2.1558 4.54274 2.1558 4.93654C2.1558 5.3233 2.12103 5.65381 2.05846 5.9351C2.12103 6.1988 2.1558 6.52579 2.1558 6.91959C2.1558 7.29581 2.12103 7.6228 2.05846 7.90409C2.12103 8.16779 2.1558 8.50182 2.1558 8.90265C2.1558 9.27886 2.12103 9.60586 2.05846 9.88714H2.79544C2.85801 10.1508 2.89278 10.4778 2.89278 10.8716C2.89278 11.2584 2.85801 11.5854 2.79544 11.8561H5.22887C5.16282 11.5854 5.13154 11.2584 5.13154 10.8716C5.13154 10.4778 5.16282 10.1508 5.22887 9.88714H5.96586Z" fill="var(--fill-0, #F1F9EE)"/>
</g>
</svg>
