<svg preserveAspectRatio="none" width="100%" height="100%" overflow="visible" style="display: block;" viewBox="0 0 20 22" fill="none" xmlns="http://www.w3.org/2000/svg">
<path id="Icon" d="M7.41667 17.5246C2.83333 18.8996 2.83333 15.2329 1 14.7746M13.8333 20.2746V16.7271C13.8677 16.29 13.8087 15.8505 13.6601 15.438C13.5115 15.0255 13.2769 14.6494 12.9717 14.3346C15.85 14.0137 18.875 12.9229 18.875 7.91789C18.8748 6.63807 18.3825 5.40733 17.5 4.48039C17.9179 3.36069 17.8883 2.12305 17.4175 1.02456C17.4175 1.02456 16.3358 0.703727 13.8333 2.38123C11.7323 1.81181 9.51766 1.81181 7.41667 2.38123C4.91417 0.703727 3.8325 1.02456 3.8325 1.02456C3.36168 2.12305 3.33213 3.36069 3.75 4.48039C2.86095 5.4142 2.36815 6.65607 2.375 7.94539C2.375 12.9137 5.4 14.0046 8.27833 14.3621C7.97675 14.6737 7.74416 15.0453 7.5957 15.4528C7.44724 15.8603 7.38624 16.2945 7.41667 16.7271V20.2746" stroke="var(--stroke-0, white)" stroke-width="1.83333" stroke-linecap="round" stroke-linejoin="round"/>
</svg>
