<svg preserveAspectRatio="none" width="100%" height="100%" overflow="visible" style="display: block;" viewBox="0 0 9 14" fill="none" xmlns="http://www.w3.org/2000/svg">
<g id="Group">
<path id="Vector" d="M8.02338 0.984491C8.02338 1.37126 7.98862 1.70177 7.92604 1.98305H4.99202C5.05459 2.24675 5.08935 2.57375 5.08935 2.96755C5.08935 3.34376 5.05459 3.67076 4.99202 3.95204C5.05459 4.21575 5.08935 4.54274 5.08935 4.93654C5.08935 5.3233 5.05459 5.65381 4.99202 5.9351C5.05459 6.1988 5.08935 6.52579 5.08935 6.91959C5.08935 7.29581 5.05459 7.6228 4.99202 7.90409C5.05459 8.16779 5.08935 8.50182 5.08935 8.90265C5.08935 9.27886 5.05459 9.60586 4.99202 9.88714C5.05459 10.1508 5.08935 10.4778 5.08935 10.8716C5.08935 11.2584 5.05459 11.5854 4.99202 11.8561C5.05459 12.1304 5.08935 12.4609 5.08935 12.8547C5.08935 13.2309 5.05459 13.5579 4.99202 13.8392H3.03136C2.96531 13.5579 2.93403 13.2309 2.93403 12.8547C2.93403 12.4609 2.96531 12.1304 3.03136 11.8561C2.96531 11.5854 2.93403 11.2584 2.93403 10.8716C2.93403 10.4778 2.96531 10.1508 3.03136 9.88714C2.96531 9.60586 2.93403 9.27886 2.93403 8.90265C2.93403 8.50182 2.96531 8.16779 3.03136 7.90409C2.96531 7.6228 2.93403 7.29581 2.93403 6.91959C2.93403 6.52579 2.96531 6.1988 3.03136 5.9351C2.96531 5.65381 2.93403 5.3233 2.93403 4.93654C2.93403 4.54274 2.96531 4.21575 3.03136 3.95204C2.96531 3.67076 2.93403 3.34376 2.93403 2.96755C2.93403 2.57375 2.96531 2.24675 3.03136 1.98305H0.0973379C0.0312873 1.70177 5.35808e-07 1.37126 5.35808e-07 0.984491C5.35808e-07 0.590693 0.0312873 0.2637 0.0973379 -4.15633e-06H7.92604C7.98862 0.2637 8.02338 0.590693 8.02338 0.984491Z" fill="var(--fill-0, #F1F9EE)"/>
</g>
</svg>
