<svg preserveAspectRatio="none" width="100%" height="100%" overflow="visible" style="display: block;" viewBox="0 0 69 35" fill="none" xmlns="http://www.w3.org/2000/svg">
<g id="Group">
<path id="Vector" d="M54.1177 28.9957C60.7542 28.9957 66.1328 23.5557 66.1328 16.8433C66.1328 12.7216 63.8212 8.81824 60.5015 6.41992C63.0999 8.82398 64.8151 12.2132 64.8151 15.7662C64.8151 22.4757 59.4366 27.9157 52.8 27.9157C50.0937 27.9157 47.5009 27.0196 45.3825 25.5031C47.6941 27.6658 50.8207 28.9957 54.1177 28.9957ZM46.7541 14.7322C47.8076 14.7322 48.6596 13.8705 48.6596 12.8078C48.6596 11.7422 47.6912 10.7714 46.6377 10.7714C45.5869 10.7714 44.7606 11.7508 44.7606 12.8164C44.7606 13.8791 45.7034 14.7322 46.7541 14.7322ZM49.2332 21.0511C49.2332 22.154 50.2129 23.0415 51.3063 23.0415C52.3996 23.0415 53.2856 22.1454 53.2856 21.0396C53.2856 19.9338 52.2775 18.9228 51.1842 18.9228C50.0908 18.9228 49.2332 19.9424 49.2332 21.0511ZM52.0105 8.91302C52.0105 9.97862 52.9533 10.8317 54.0041 10.8317C55.0576 10.8317 55.9096 9.96713 55.9096 8.9044C55.9096 7.84168 54.9384 6.86799 53.8876 6.86799C52.8369 6.86799 52.0105 7.85029 52.0105 8.91302ZM57.071 16.8691C57.071 17.9749 58.0508 18.8624 59.1441 18.8624C60.2374 18.8624 61.1234 17.9663 61.1234 16.8605C61.1234 15.7547 60.1153 14.7437 59.022 14.7437C57.9286 14.7437 57.071 15.7633 57.071 16.8691ZM19.2763 17.2167L18.5436 13.095L15.5136 13.7298L14.8235 9.30939L11.9184 9.83788L11.8332 13.6436L8.80316 14.5541L8.23804 16.2458L11.7935 17.1104L11.0608 19.2473L15.6811 20.0286L15.3659 16.9409L19.2763 17.2167ZM11.3164 23.5241C8.42547 22.1569 6.3155 19.2933 6.3155 15.9557C6.3155 11.2769 9.94475 6.96277 14.5679 6.96277C15.3006 6.96277 16.0247 7.07192 16.7233 7.27297C15.6328 6.7531 14.443 6.45726 13.2304 6.45726C8.60721 6.45726 4.97796 10.7685 4.97796 15.4474C4.97796 19.2818 7.7638 22.493 11.3164 23.5241ZM52.3797 32.3562C47.1062 32.3562 42.0912 29.2829 39.1037 24.8913L24.351 23.7022C21.9315 26.8817 18.1347 28.9325 13.8608 28.9325C13.2616 28.9325 12.6653 28.8894 12.0803 28.8147C12.1626 28.8578 12.1456 28.8607 12.0434 28.8521C11.9638 28.8463 11.8559 28.8262 11.7991 28.809C11.7679 28.7975 11.7452 28.7803 11.7281 28.763C5.32442 27.7491 -0.000183988 22.2747 -0.000183988 15.6111C-0.000183988 8.21794 5.73619 1.40213 13.0458 1.40213C13.1196 1.40213 13.2957 1.39925 13.5626 1.39638C14.4771 1.38489 16.6609 0.0378146 19.2763 0.000474953C21.2698 -0.028247 23.4309 1.25564 25.947 1.2183C30.1868 1.15511 34.8838 1.08331 39.0838 1.02299C39.0838 1.02299 46.845 0.000474953 47.4725 0.000474953C47.6401 0.000474953 51.7862 0.853529 51.9537 0.859273C60.1124 1.12639 67.3085 7.80721 67.3085 16.0965C67.3085 24.5552 60.7429 32.3562 52.3797 32.3562ZM65.1502 27.2522C64.8946 27.5423 64.7669 27.6831 64.5028 27.9617C64.7669 27.7089 64.8946 27.5797 65.1474 27.3126C65.4967 26.9507 65.775 26.6376 65.7835 26.6376C65.7949 26.6376 65.792 26.6089 65.7835 26.5773C65.775 26.5428 65.5194 26.83 65.1502 27.2522ZM67.5527 22.8951C67.6265 22.7658 67.6464 22.7084 67.5981 22.7658C67.5499 22.8233 67.4874 22.9295 67.4647 22.9985C67.4363 23.0703 67.4789 23.0243 67.5527 22.8951ZM67.689 23.9003C67.6691 23.9291 67.6748 23.9693 67.7004 23.9865C67.7259 24.0009 67.7543 24.0037 67.7628 23.9923C67.7714 23.9779 67.7657 23.9406 67.7486 23.9061C67.7344 23.8716 67.706 23.8688 67.689 23.9003ZM66.5957 24.021C66.6695 23.9118 66.6922 23.8544 66.6496 23.8946C66.607 23.9348 66.5474 24.0239 66.519 24.0928C66.4878 24.1617 66.5247 24.1301 66.5957 24.021ZM66.0362 26.2843C65.9993 26.3504 66.0448 26.3101 66.1385 26.1895C66.2322 26.0718 66.2606 26.0143 66.2038 26.066C66.147 26.1177 66.0703 26.2154 66.0362 26.2843ZM66.945 24.92C67.0245 24.8712 66.9563 25.0033 66.7121 25.3451C66.519 25.6151 66.3571 25.8535 66.36 25.8793C66.3628 25.9052 66.678 25.5088 67.0387 24.9803C67.5527 24.222 67.6123 24.0813 67.388 24.3685C67.2318 24.5696 67.0387 24.7879 66.9677 24.8597C66.8655 24.9602 66.8598 24.9746 66.945 24.92ZM63.6821 27.6745C63.6537 27.7262 63.6849 27.7118 63.7531 27.6429C63.8212 27.5739 63.8468 27.5308 63.807 27.551C63.7701 27.5682 63.7133 27.6228 63.6821 27.6745ZM65.9624 24.9545C65.9993 24.9056 66.0107 24.8712 65.9823 24.874C65.9567 24.8798 65.9255 24.92 65.9141 24.9631C65.8999 25.0119 65.917 25.009 65.9624 24.9545ZM66.1498 24.6299C66.1214 24.696 66.1555 24.6672 66.2322 24.561C66.306 24.4547 66.3316 24.3972 66.289 24.4375C66.2435 24.4748 66.1839 24.561 66.1498 24.6299ZM65.7494 25.2417C65.7892 25.1929 65.8005 25.1555 65.7721 25.1613C65.7466 25.1641 65.7153 25.2043 65.7011 25.2474C65.6869 25.2963 65.7068 25.2934 65.7494 25.2417ZM65.7636 24.5495C65.8119 24.4834 65.8204 24.4489 65.7835 24.4748C65.7494 24.4978 65.7097 24.5495 65.6983 24.5926C65.6898 24.6328 65.7182 24.6155 65.7636 24.5495ZM65.2979 24.7419C65.2496 24.8625 65.0054 25.2244 64.747 25.5375C64.2557 26.1292 64.1393 26.2814 64.2216 26.3561C64.2585 26.3906 64.3892 26.2613 64.7186 25.8133C65.3235 24.9889 65.7494 24.2307 65.579 24.4489C65.474 24.5868 65.4399 24.604 65.4456 24.5294C65.4541 24.3972 65.4086 24.4662 65.2979 24.7419ZM66.8882 23.9693C66.9365 23.9578 67.104 23.6706 67.2034 23.4207C67.2914 23.1966 66.4395 24.4231 65.8289 25.2388C65.6869 25.4284 65.5535 25.5691 65.5336 25.5548C65.5166 25.5404 65.3859 25.6811 65.2439 25.8678C65.0991 26.0545 64.7441 26.4911 64.446 26.83C64.1478 27.1661 63.9121 27.4332 63.9376 27.4332C63.9831 27.4303 64.2926 27.324 65.9028 25.2761C66.4509 24.5839 66.8711 23.975 66.8882 23.9693ZM62.1344 30.4002C62.2167 30.2825 62.2082 30.2853 62.0435 30.4088C61.9441 30.4835 61.876 30.5668 61.893 30.5898C61.9327 30.6415 62.0037 30.5869 62.1344 30.4002ZM55.6426 33.9302C55.6739 33.9503 55.7818 33.9359 55.8812 33.8957C55.955 33.867 55.9891 33.8526 56.0629 33.8239C55.9976 33.8124 55.9635 33.8038 55.8982 33.7923C55.7307 33.7607 55.5432 33.8584 55.6426 33.9302ZM54.8674 33.057C54.5805 33.1461 54.413 33.2121 54.484 33.215C54.5521 33.2179 54.8134 33.1489 55.0576 33.057C55.6199 32.8445 55.5319 32.8502 54.8674 33.057ZM55.8925 33.6315C55.9948 33.5913 56.0459 33.5712 56.1481 33.5281C56.0288 33.5597 55.9664 33.574 55.8471 33.6028C55.6824 33.643 55.4438 33.7148 55.3189 33.7665C55.2252 33.8009 55.1797 33.8182 55.0889 33.8526C55.1968 33.8297 55.2536 33.8182 55.3615 33.7952C55.512 33.7607 55.7505 33.6889 55.8925 33.6315ZM56.6962 33.0369C56.6706 33.0283 56.5343 33.0685 56.3895 33.126C56.2447 33.1834 56.1169 33.2121 56.1083 33.192C56.0941 33.1576 55.7335 33.2839 55.1542 33.4879C54.944 33.5597 54.8702 33.6085 54.8787 33.6717C54.8872 33.7435 55.0377 33.7234 55.8244 33.4247C56.3327 33.2294 56.7217 33.0455 56.6962 33.0369ZM56.5088 33.6774C56.7445 33.5769 56.8353 33.5223 56.7132 33.5654C56.5911 33.6056 56.4008 33.6861 56.2873 33.7464C56.1737 33.8067 56.2731 33.778 56.5088 33.6774ZM63.151 30.9029C63.0942 30.9316 63.0175 30.9948 62.9778 31.0436C62.9409 31.0953 62.9863 31.0723 63.08 30.9948C63.1766 30.9172 63.2078 30.8741 63.151 30.9029ZM62.779 31.2044C62.708 31.2418 62.6058 31.3222 62.5518 31.3825C62.4979 31.44 62.5547 31.4112 62.6796 31.3136C62.8046 31.2131 62.85 31.1642 62.779 31.2044ZM59.8086 31.7703C59.8256 31.7961 59.8654 31.8047 59.8938 31.7875C59.9222 31.7703 59.9392 31.7444 59.9307 31.7329C59.925 31.7214 59.8853 31.7128 59.8483 31.7157C59.8086 31.7186 59.7915 31.7415 59.8086 31.7703ZM57.8009 33.1231C57.7753 33.1145 57.727 33.1375 57.6958 33.1719C57.6589 33.2093 57.6759 33.215 57.7412 33.1863C57.8009 33.1576 57.8293 33.1288 57.8009 33.1231ZM62.2224 29.9349C62.2025 29.932 61.7169 30.3026 61.1206 30.719C60.3765 31.2389 59.9932 31.4371 59.9449 31.417C59.8483 31.3739 59.3599 31.6123 59.4025 31.6841C59.4394 31.7444 59.5928 31.7071 60.0216 31.5032C60.3339 31.3567 62.2877 29.9378 62.2224 29.9349ZM61.5295 29.1135C61.5125 29.0531 61.45 29.0933 61.2484 29.28C60.9417 29.5615 60.9218 29.5989 61.1092 29.596C61.1859 29.5931 61.2824 29.5644 61.3279 29.5328C61.4415 29.4466 61.5579 29.2025 61.5295 29.1135ZM61.4699 30.7707C61.5295 30.7276 61.5749 30.6587 61.5749 30.6214C61.5721 30.5611 60.8366 31.124 60.4049 31.483C60.3339 31.5434 60.2431 31.618 60.2033 31.6468C60.1607 31.6784 60.1408 31.7214 60.155 31.7444C60.1692 31.7674 60.4901 31.5836 60.8593 31.3222C61.2313 31.0608 61.4869 30.8397 61.4443 30.8454C61.396 30.8483 61.4074 30.8196 61.4699 30.7707ZM57.7781 31.9886C57.7185 32.0345 57.7668 32.023 57.8804 31.9627C57.9968 31.9024 58.0451 31.8651 57.9883 31.8794C57.9315 31.8938 57.8378 31.9426 57.7781 31.9886ZM61.9583 29.3461C61.6601 29.5931 61.5522 29.6506 61.4386 29.6391C61.3591 29.6333 61.2682 29.662 61.2342 29.7051C61.1774 29.7856 60.811 30.09 60.6151 30.2164C60.5413 30.2652 60.5242 30.2595 60.5526 30.1934C60.5753 30.1446 60.564 30.0871 60.5327 30.0642C60.4958 30.0383 60.4589 30.0843 60.4191 30.2106C60.3851 30.3112 60.3254 30.4174 60.2857 30.4462C60.1863 30.5151 60.0642 30.4605 60.1068 30.3686C60.1266 30.3284 59.9335 30.4347 59.6723 30.5955C59.3741 30.7851 59.2094 30.9086 59.2293 30.9373C59.2463 30.966 59.3769 30.9172 59.5218 30.8253C59.7717 30.6673 59.7802 30.6645 59.7177 30.8052C59.6694 30.9201 59.678 30.9632 59.7632 31.0091C59.9023 31.0809 60.0131 31.0063 60.0415 30.8167C60.0698 30.6214 60.2175 30.518 60.297 30.6415C60.351 30.719 60.3794 30.7133 60.4987 30.5898C60.6321 30.4519 60.7486 30.406 61.7624 29.6218C62.035 29.4122 62.2735 29.1853 62.2934 29.1307C62.319 29.0675 62.2054 29.145 61.9583 29.3461ZM66.8427 22.7313C66.7945 22.7859 66.732 22.8864 66.7064 22.9554C66.6809 23.0243 66.7206 22.9812 66.7945 22.8577C66.8683 22.7313 66.8882 22.6768 66.8427 22.7313ZM66.7462 23.1134C66.7377 23.1622 66.7547 23.1564 66.7916 23.1019C66.8257 23.0502 66.8314 23.0128 66.8058 23.0186C66.7803 23.0272 66.7547 23.0674 66.7462 23.1134ZM66.3543 23.1708C66.3912 23.1191 66.3969 23.0818 66.3713 23.0904C66.3458 23.0961 66.3174 23.1363 66.3089 23.1823C66.3003 23.2282 66.3174 23.2254 66.3543 23.1708ZM64.3466 28.1225C64.3239 28.1714 64.3437 28.1685 64.3948 28.1197C64.4431 28.0766 64.4573 28.0392 64.4289 28.0421C64.4034 28.0421 64.3636 28.0794 64.3466 28.1225ZM64.7612 28.9813C64.7385 29.0302 64.7583 29.0302 64.8123 28.9785C64.8606 28.9325 64.8776 28.898 64.8492 28.898C64.8208 28.9009 64.7811 28.9382 64.7612 28.9813ZM67.5498 24.5782C67.4959 24.6213 67.4249 24.7477 67.3937 24.8625C67.3369 25.0636 67.087 25.4226 66.6241 25.9052C66.4594 26.0775 66.3827 26.2039 66.3032 26.4451C66.2066 26.7295 66.1413 26.8473 65.4995 27.5337C65.1076 27.9502 64.7498 28.2719 64.7214 28.2661C64.693 28.2604 64.747 28.1972 64.8407 28.1225C64.9401 28.045 64.9969 27.9703 64.9742 27.9473C64.9316 27.9071 64.463 28.3064 64.0995 28.6625C63.9859 28.7745 63.878 28.8521 63.861 28.8348C63.8439 28.8147 63.9206 28.6453 64.0285 28.4586C64.1364 28.269 64.2245 28.0593 64.2273 27.9933C64.2301 27.887 64.2103 27.9014 64.0541 28.0996C63.9405 28.246 63.861 28.3064 63.8354 28.2776C63.7758 28.2173 63.4293 28.6453 63.3299 28.8952C63.2731 29.0445 63.0999 29.2513 62.62 29.6793C62.2707 29.9924 61.9214 30.3083 61.8589 30.3945C61.7453 30.5467 62.4326 30.0297 63.2107 29.2542C63.4009 29.0646 63.5032 28.9641 63.4435 29.0359C63.1368 29.4035 63.6764 29.2082 64.2472 28.7056C64.3892 28.585 64.0995 28.8865 63.5827 29.3518C63.0374 29.8401 62.796 30.0469 63.0317 29.8717C63.5145 29.5127 63.7758 29.438 63.418 29.7741C63.293 29.8918 63.1567 30.0096 63.1141 30.0383C63.0403 30.0871 62.1003 30.7478 61.7538 30.9718C61.6545 31.0378 61.6914 30.989 61.8476 30.8368C61.9952 30.6989 61.7311 30.8942 61.1802 31.2849C60.2715 31.9369 60.2573 31.9311 60.9218 31.5118C61.1944 31.3394 61.3279 31.2504 61.5948 31.0694C61.2796 31.3107 61.1206 31.4285 60.794 31.6554C60.3481 31.9685 59.8767 32.2988 59.7632 32.4079C59.3173 32.8215 59.269 32.8387 58.9765 32.7928C58.8686 32.7727 58.8147 32.7641 58.7068 32.7468C58.8289 32.6894 58.8913 32.6635 59.0163 32.6061C59.1867 32.5257 59.5246 32.3562 59.7632 32.227C60.1863 31.9943 60.1863 31.9914 59.8569 32.1379C59.6666 32.2241 59.3429 32.3734 59.1356 32.4711C58.9283 32.5716 58.7579 32.6205 58.7635 32.5889C58.7664 32.5573 58.7068 32.5544 58.6358 32.5802C58.5506 32.6118 58.6017 32.5515 58.7692 32.4137C58.8743 32.3246 58.9283 32.2815 59.0333 32.1925C58.8516 32.2959 58.7607 32.3447 58.5761 32.4424C58.3262 32.5774 57.7213 32.879 57.2301 33.0972C56.7359 33.3127 56.381 33.4649 56.4491 33.4563C56.5173 33.4448 56.6081 33.4419 56.6479 33.4477C56.6848 33.4534 57.1051 33.2868 57.568 33.0599C58.3205 32.6865 58.4029 32.6377 58.4427 32.7124C58.471 32.7669 58.437 32.833 58.3489 32.8962C58.2297 32.9824 58.2382 32.9852 58.4057 32.9019C58.5562 32.8301 58.6755 32.8273 58.8885 32.8818C59.0049 32.9134 59.0617 32.9278 59.1753 32.9565C58.8402 33.1288 58.6698 33.2121 58.3291 33.373C57.8605 33.5941 57.3266 33.7952 57.1562 33.8383C56.6479 33.9647 55.4722 34.3639 55.424 34.4529C55.3643 34.565 55.8158 34.4759 56.4321 34.2203C56.9802 33.9934 57.0938 33.9503 57.0938 34.0221C57.0938 34.0709 57.142 34.0997 57.2102 34.0853C57.2727 34.0709 57.1733 34.137 56.983 34.2289C56.8438 34.295 56.7757 34.3266 56.6365 34.3926C56.8467 34.3352 56.9546 34.3065 57.1647 34.2461C57.4516 34.1628 57.7639 34.0537 57.8577 34.0106C57.9514 33.9647 58.0934 33.9446 58.1785 33.9618C58.295 33.9876 58.5903 33.9072 59.4905 33.485C60.1238 33.1863 60.7997 32.8071 61.007 32.6722C61.5011 32.3505 61.9072 31.9828 61.8362 31.957C61.805 31.9483 61.8788 31.8622 62.0009 31.7703C62.0861 31.7013 62.1315 31.6669 62.2167 31.5979C62.1344 31.641 62.0946 31.6611 62.0123 31.6985C61.8419 31.7818 61.8305 31.7789 61.9299 31.6927C62.265 31.4055 63.7474 30.2422 63.8666 30.202C64.1762 30.09 64.3239 30.0642 64.2983 30.1388C64.2642 30.2336 63.7928 30.5582 63.7871 30.4921C63.7843 30.4634 63.7019 30.5065 63.6082 30.584C63.5088 30.6616 63.4606 30.7305 63.4946 30.7391C63.5315 30.7506 63.347 30.9258 63.0175 31.1757C62.7194 31.4026 62.495 31.5807 62.5206 31.5836C62.5831 31.5893 63.5741 30.831 64.1904 30.3255C64.7612 29.7339 65.2837 29.0962 65.7636 28.4212C65.7437 28.4356 65.7239 28.4471 65.7011 28.4615C65.5819 28.5361 65.5876 28.516 65.7409 28.3408C65.8346 28.2345 65.8999 28.1828 65.9255 28.1943C65.9454 28.1627 65.9681 28.134 65.9908 28.1024C65.988 28.0996 65.988 28.0967 65.988 28.0938C65.988 28.0852 65.9965 28.0794 66.0078 28.0766C66.0703 27.9818 66.13 27.887 66.1896 27.7922C66.0845 27.8956 65.9312 28.0565 65.7665 28.2374C65.4456 28.5907 65.3064 28.7544 65.3973 28.7027C65.4882 28.6482 65.3661 28.8033 65.0508 29.1221C64.8492 29.3203 64.7498 29.4179 64.5454 29.6103C64.693 29.4524 64.7669 29.372 64.9117 29.2082C65.2297 28.8521 65.2439 28.8176 65.0622 28.9526C64.9486 29.0359 64.7924 29.1623 64.7157 29.2341C64.5766 29.3605 64.5766 29.3605 64.6561 29.2197C64.7725 29.0129 64.6703 29.1192 64.4261 29.4409C64.2841 29.6276 63.9291 29.9636 63.347 30.4117C62.3303 31.1901 61.5977 31.7013 61.6175 31.7818C61.6232 31.8134 61.592 31.8651 61.5437 31.8995C61.467 31.9512 61.4642 31.9455 61.5039 31.8593C61.5352 31.7904 61.4528 31.8306 61.2228 31.9886C60.8224 32.2643 60.0954 32.5946 60.0613 32.5372C60.0471 32.5142 59.9676 32.5343 59.8853 32.5802C59.4337 32.8301 60.4759 32.0661 61.0638 31.664C62.211 30.877 64.2699 29.1393 65.0139 28.4184C65.3973 28.0479 65.6756 27.7319 65.65 27.7348C65.6216 27.7348 65.3093 28.0421 64.9401 28.3983C64.5738 28.7544 64.2472 29.0359 64.2301 29.0359C64.1449 29.0445 64.2245 28.9095 64.4289 28.6711C64.551 28.5275 64.622 28.4069 64.5908 28.4011C64.5567 28.3925 64.551 28.3695 64.5766 28.3408C64.6021 28.3178 64.6504 28.3236 64.6817 28.3552C64.7328 28.404 64.8265 28.3351 65.1815 27.9531C65.42 27.6974 65.7097 27.4016 65.8289 27.2982C65.9141 27.2264 65.9567 27.1891 66.0419 27.1144C65.9823 27.1891 65.9539 27.2264 65.8943 27.3011C65.7949 27.4246 65.7665 27.4964 65.8091 27.5136C65.8999 27.5481 66.9933 26.2699 66.9592 26.1665C66.945 26.1206 66.8768 26.178 66.7575 26.3331C66.6582 26.4624 66.573 26.5399 66.573 26.5055C66.5701 26.4681 66.7916 26.1321 67.05 25.7472C67.4022 25.2216 67.4987 25.0148 67.476 24.943C67.4505 24.8769 67.4618 24.8511 67.5215 24.8482C67.5811 24.8482 67.6066 24.8051 67.6237 24.6758C67.6464 24.5179 67.6407 24.5093 67.5498 24.5782ZM52.7972 33.2839C52.4081 33.4362 52.3882 33.4448 52.4677 33.5195C52.499 33.5482 52.5586 33.5482 52.6012 33.5195C52.6438 33.4879 52.7773 33.4218 52.8937 33.3701C53.2714 33.2035 53.189 33.1317 52.7972 33.2839ZM60.9019 29.889C60.8763 29.8861 60.8338 29.9148 60.8082 29.9521C60.7826 29.9952 60.8025 29.9981 60.8565 29.9579C60.9076 29.9234 60.9275 29.8918 60.9019 29.889ZM60.7003 29.754C60.6577 29.7654 60.5952 29.8114 60.5583 29.8574C60.5214 29.9033 60.5555 29.8947 60.6321 29.8373C60.7088 29.7827 60.74 29.7453 60.7003 29.754ZM62.1543 28.651C62.2054 28.6252 62.2991 28.562 62.3587 28.5103C62.4581 28.427 62.4496 28.4241 62.2707 28.4844C62.1599 28.5218 62.0549 28.5677 62.0321 28.585C61.964 28.6453 62.0605 28.6998 62.1543 28.651ZM62.3474 28.786C62.6086 28.4184 62.6086 28.3896 62.3729 28.5907C62.194 28.7458 62.1514 28.8061 62.194 28.855C62.2366 28.9067 62.2735 28.8894 62.3474 28.786ZM59.2605 32.1839C59.2293 32.2356 59.2861 32.2241 59.411 32.1494C59.5218 32.0833 59.6041 32.023 59.5984 32.0115C59.5729 31.9685 59.3031 32.1092 59.2605 32.1839ZM59.8711 30.3198C59.7348 30.3255 59.1526 30.7047 59.1924 30.765C59.2094 30.7937 59.3798 30.7133 59.6013 30.5668C59.8625 30.3973 59.9421 30.3169 59.8711 30.3198ZM62.7875 29.8171C62.7449 29.8315 62.691 29.8746 62.6683 29.9148C62.6484 29.955 62.6825 29.9407 62.7449 29.889C62.8102 29.8344 62.8273 29.7999 62.7875 29.8171ZM62.938 28.4701C63.6253 27.8008 63.6792 27.7003 63.0772 28.2575C62.779 28.5333 62.5177 28.7831 62.5064 28.8262C62.4922 28.8693 62.691 28.7113 62.938 28.4701ZM54.5266 34.6224C54.4811 34.6569 54.5379 34.6655 54.6657 34.6425C54.7878 34.6195 54.91 34.5793 54.9355 34.5535C55.0065 34.4845 54.626 34.5506 54.5266 34.6224ZM53.4901 33.1116C53.5667 33.0858 53.5951 33.0656 53.5497 33.0628C53.5071 33.057 53.4446 33.0771 53.4105 33.103C53.3765 33.1317 53.4105 33.1346 53.4901 33.1116ZM54.5181 34.8148C54.5152 34.8148 54.5124 34.8148 54.5095 34.8177C54.6288 34.812 54.7452 34.8091 54.8645 34.8005C55.0008 34.7488 55.1002 34.7028 55.1059 34.6798C55.1144 34.6482 54.8532 34.7143 54.5181 34.8148ZM54.8702 33.8325C54.8106 33.8354 54.3818 33.9675 53.9103 34.1054C53.1209 34.338 52.8483 34.4242 52.871 34.5161C52.8767 34.5334 53.3708 34.4271 53.9558 34.249C54.9185 33.956 55.1797 33.8067 54.8702 33.8325ZM67.831 21.6342C67.8054 21.6428 67.7799 21.6887 67.7742 21.7318C67.7685 21.7835 67.7884 21.7778 67.8225 21.7174C67.8537 21.6629 67.8565 21.6255 67.831 21.6342ZM67.9105 23.5873C67.8423 23.6763 67.8083 23.7625 67.8338 23.7768C67.8565 23.7912 67.9474 23.6935 68.0269 23.5528C68.0695 23.481 68.1689 23.3316 68.291 23.1536C68.3081 23.0904 68.328 23.0272 68.345 22.964C68.1916 23.1966 68.0411 23.4149 67.9105 23.5873ZM14.9059 29.932C14.5253 29.9608 14.3351 29.9694 13.9517 29.9809C14.3152 29.9866 14.4969 29.9837 14.8633 29.9751C15.3631 29.9608 15.7777 29.9378 15.7862 29.9435C15.7919 29.9493 15.8118 29.9292 15.826 29.9004C15.843 29.8688 15.4625 29.8918 14.9059 29.932ZM19.6398 28.5246C19.7789 28.4873 19.8357 28.4586 19.7619 28.4672C19.6852 28.4729 19.5716 28.5045 19.5035 28.539C19.4353 28.5706 19.4978 28.5649 19.6398 28.5246ZM19.0406 29.3404C19.0037 29.3461 18.9838 29.3806 18.9895 29.4093C18.998 29.4409 19.015 29.461 19.0292 29.4581C19.0434 29.4552 19.0662 29.4237 19.0775 29.3892C19.0917 29.3518 19.0747 29.3317 19.0406 29.3404ZM18.1773 28.6539C18.3022 28.6252 18.359 28.6022 18.3022 28.5993C18.2455 28.5993 18.1404 28.6194 18.0722 28.6481C18.0041 28.6769 18.0495 28.6797 18.1773 28.6539ZM16.3485 29.8746C16.4961 29.8574 16.5558 29.8373 16.4791 29.8344C16.4053 29.8315 16.2832 29.8459 16.2093 29.8688C16.1355 29.8918 16.198 29.8947 16.3485 29.8746ZM16.7205 29.8085C16.7063 29.8286 17.2061 29.7712 17.828 29.6477C18.7197 29.4725 18.8588 29.415 18.501 29.461C18.2511 29.4926 17.9615 29.5156 17.8592 29.5156C17.7173 29.5156 17.7031 29.5213 17.8024 29.5414C17.8933 29.5615 17.7513 29.6103 17.3424 29.6793C17.0187 29.7339 16.7375 29.7913 16.7205 29.8085ZM19.2252 29.8631C19.3416 29.8344 19.387 29.8085 19.3246 29.8114C19.2621 29.8114 19.1684 29.8344 19.1116 29.8631C19.0576 29.8918 19.1087 29.8918 19.2252 29.8631ZM13.7415 29.1939C13.7018 29.1795 13.6223 29.1795 13.5655 29.1939C13.5087 29.2082 13.5428 29.2226 13.6393 29.2226C13.7359 29.2226 13.7813 29.2082 13.7415 29.1939ZM18.8872 29.9521C18.9526 29.9378 18.9838 29.9177 18.9611 29.9033C18.9355 29.889 18.8844 29.9004 18.8418 29.9263C18.7992 29.955 18.8163 29.9636 18.8872 29.9521ZM17.1465 28.8262C17.1237 28.8119 17.0755 28.8176 17.0357 28.8406C16.9931 28.8664 17.0073 28.8779 17.0755 28.8693C17.1379 28.8607 17.1692 28.8435 17.1465 28.8262ZM17.669 28.7286C17.6122 28.7257 17.5071 28.7458 17.439 28.7717C17.368 28.7975 17.4162 28.8004 17.5412 28.7774C17.669 28.7544 17.7258 28.7343 17.669 28.7286ZM16.8 28.8808C16.7773 28.8664 16.729 28.8722 16.6892 28.8952C16.6438 28.9181 16.6609 28.9296 16.729 28.9239C16.7886 28.9153 16.8227 28.898 16.8 28.8808ZM16.357 28.9928C16.3542 28.9698 16.1639 28.9813 15.931 29.0101C15.6982 29.0416 15.1444 29.102 14.6957 29.1307C14.2499 29.1623 13.8977 29.1853 13.9148 29.2025C13.9517 29.2341 14.247 29.3748 16.8114 29.0589C17.6832 28.9497 18.4045 28.8147 18.4187 28.8234C18.4641 28.8492 18.7793 28.763 19.0264 28.6539C19.2451 28.5562 17.7854 28.8262 16.7858 28.9756C16.5529 29.0101 16.3598 29.0158 16.357 28.9928ZM10.5752 30.0412C10.7143 30.0182 10.7058 30.0125 10.5042 29.9837C10.3792 29.9665 10.2742 29.9751 10.2713 30.0067C10.2628 30.0699 10.3508 30.0814 10.5752 30.0412ZM10.9614 29.7712C10.9444 29.7568 10.3452 29.6764 9.62954 29.55C8.73784 29.3949 8.32607 29.2628 8.3062 29.214C8.26928 29.1135 7.75528 28.9411 7.7354 29.0215C7.7354 29.0244 7.7354 29.0273 7.7354 29.033C7.84047 29.102 7.94838 29.1709 8.05345 29.237C8.12445 29.2657 8.20396 29.2973 8.30052 29.3317C8.62709 29.4466 11.0012 29.82 10.9614 29.7712ZM10.3991 28.7401C10.4559 28.7918 10.5468 28.8435 10.6007 28.8492C10.7399 28.8693 10.9926 28.7774 11.0352 28.6941C11.0636 28.6395 10.9926 28.6252 10.7172 28.6137C10.3054 28.5964 10.2628 28.6108 10.3991 28.7401ZM9.77437 29.8688C9.73461 29.8373 9.76301 29.8258 9.84252 29.8344C9.91635 29.8459 9.99587 29.8286 10.0214 29.8028C10.0583 29.7568 9.21777 29.6477 8.65833 29.5931C8.7776 29.662 8.89687 29.731 9.01898 29.7942C9.02182 29.7942 9.02466 29.7942 9.0275 29.7942C9.47051 29.8717 9.80844 29.8976 9.77437 29.8688ZM6.59096 28.157C6.57109 28.1455 6.54269 28.134 6.51145 28.1225C6.53133 28.1398 6.55121 28.1541 6.57109 28.1714C6.608 28.1771 6.6222 28.1742 6.59096 28.157ZM8.12729 28.3667C8.12161 28.3983 8.24656 28.4557 8.41411 28.493C8.70377 28.5562 8.70945 28.562 8.5703 28.6194C8.45386 28.6654 8.43115 28.6999 8.46238 28.7946C8.50782 28.9469 8.63845 28.9698 8.7918 28.855C8.94799 28.7343 9.12405 28.7659 9.0985 28.9124C9.07862 29.0043 9.10418 29.0215 9.27456 29.0158C9.46483 29.0129 9.58126 29.0646 10.8478 29.2226C11.1886 29.2657 11.5123 29.2743 11.5663 29.2484C11.6287 29.2197 11.4924 29.1939 11.1772 29.1652C10.7938 29.1307 10.6746 29.0933 10.6036 29.0043C10.5525 28.944 10.4673 28.9009 10.4133 28.9095C10.3168 28.9239 9.84252 28.8808 9.61818 28.8348C9.53014 28.8147 9.52162 28.8004 9.58978 28.7745C9.63806 28.7544 9.66929 28.7056 9.66361 28.6683C9.65509 28.6194 9.59546 28.628 9.48187 28.6884C9.38815 28.7401 9.27172 28.7717 9.22061 28.763C9.10418 28.7429 9.0559 28.6166 9.14961 28.5821C9.19221 28.5649 8.97923 28.5045 8.68105 28.4385C8.34027 28.3609 8.13581 28.3293 8.12729 28.3667ZM22.065 29.6391C22.1019 29.6161 22.1388 29.5931 22.1757 29.5701C22.0706 29.6103 22.0167 29.6305 21.9088 29.6707C21.9713 29.6592 22.0167 29.6477 22.065 29.6391ZM21.8179 28.9842C21.7583 28.9928 21.6504 29.0302 21.5822 29.0704C21.514 29.1077 21.5623 29.102 21.693 29.056C21.8236 29.0101 21.8804 28.9785 21.8179 28.9842ZM19.2451 27.9071C19.1712 27.91 19.0605 27.9416 18.9923 27.9732C18.927 28.0019 18.9866 27.999 19.1258 27.9617C19.2649 27.9272 19.3189 27.9014 19.2451 27.9071ZM18.9554 28.134C19.015 28.1225 19.0434 28.0996 19.0207 28.0881C18.998 28.0737 18.9497 28.0852 18.9128 28.111C18.8702 28.1398 18.8872 28.1484 18.9554 28.134ZM13.7671 30.0182C13.8296 30.0182 13.8665 30.0038 13.8438 29.9866C13.8239 29.9665 13.7728 29.9665 13.7302 29.9837C13.6819 30.001 13.6961 30.0153 13.7671 30.0182ZM20.1651 30.2106C20.1311 30.2221 20.1084 30.2537 20.1169 30.2825C20.1254 30.314 20.1424 30.3342 20.1566 30.3313C20.1737 30.3255 20.1964 30.2939 20.2077 30.2595C20.2219 30.2221 20.2021 30.202 20.1651 30.2106ZM13.4689 30.9258C13.5342 30.9258 13.5712 30.9115 13.5513 30.8942C13.5314 30.877 13.4774 30.8741 13.432 30.8914C13.3809 30.9086 13.3951 30.923 13.4689 30.9258ZM17.6633 30.854C18.0722 30.765 18.4556 30.6472 18.5181 30.6099C18.5919 30.5639 18.4783 30.5754 18.2171 30.6386C17.987 30.6932 17.7939 30.719 17.7911 30.7018C17.7882 30.6846 17.6718 30.6874 17.5355 30.7075C17.3964 30.7248 17.2998 30.7564 17.3197 30.7793C17.3424 30.7995 17.3112 30.8368 17.2515 30.8598C17.1209 30.9143 16.1894 31.0034 15.9736 30.9833C15.8856 30.9747 15.8345 30.9833 15.8629 31.0034C15.9339 31.0551 15.8089 31.2016 15.684 31.2131C15.5931 31.2188 15.5959 31.2102 15.6868 31.1527C15.7947 31.0838 15.7692 30.9804 15.647 30.9919C15.613 30.9948 15.6045 31.0206 15.63 31.0493C15.6527 31.0781 15.63 31.1068 15.5789 31.1097C15.5249 31.1154 15.4653 31.0982 15.4454 31.0723C15.4227 31.0465 15.0706 31.0522 14.6616 31.0723C14.1874 31.0982 13.9744 31.1154 14.0795 31.1413C14.1789 31.17 13.9858 31.1929 13.5399 31.1958C13.3695 31.1958 13.2503 31.1958 13.1196 31.193C13.6251 31.282 14.1334 31.3452 14.6503 31.3768C14.6531 31.371 14.6588 31.3682 14.6787 31.3624C14.7383 31.3452 14.8263 31.3394 14.8689 31.3538C14.9115 31.3653 14.8661 31.3796 14.7696 31.3854C14.9939 31.3969 15.2182 31.4026 15.4454 31.4055C16.1043 31.3107 17.0982 31.1987 17.1436 31.2274C17.1976 31.2619 16.9988 31.3107 16.6069 31.3452C16.5558 31.3509 16.5047 31.3595 16.4564 31.3682C16.8085 31.3423 17.1578 31.305 17.5043 31.2504C17.456 31.2475 17.4617 31.2332 17.5185 31.2016C17.6292 31.147 17.6235 31.1384 17.4588 31.1298C17.3594 31.124 17.2884 31.0924 17.3055 31.0608C17.3197 31.0292 17.226 31.0235 17.0953 31.0436C16.9675 31.0608 16.8738 31.0608 16.8909 31.0407C16.9079 31.0206 17.2572 30.9431 17.6633 30.854ZM17.9018 31.1441C17.9104 31.1585 17.916 31.17 17.9132 31.1815C18.538 31.0637 19.1485 30.9029 19.7392 30.6989C19.7278 30.7018 19.7193 30.7047 19.7079 30.7075C18.1148 31.0809 17.8592 31.0809 17.9018 31.1441ZM14.9286 30.63C14.9059 30.6099 14.4714 30.607 13.9631 30.6013C13.4547 30.5955 13.0259 30.5639 13.0117 30.5524C12.9492 30.5007 13.0969 30.4577 13.4093 30.4318C13.5939 30.4174 13.7302 30.3801 13.7132 30.3543C13.6933 30.3284 13.7075 30.3054 13.7415 30.3054C13.7785 30.3026 13.8069 30.3399 13.8097 30.3887C13.8097 30.4577 13.9233 30.4749 14.443 30.4548C14.7923 30.4433 15.2012 30.4347 15.3574 30.4462C15.471 30.4548 15.5249 30.4605 15.6385 30.4663C15.5448 30.4778 15.4965 30.4835 15.4028 30.495C15.2495 30.5122 15.1756 30.5438 15.1955 30.5869C15.2353 30.6759 16.9022 30.5381 16.9477 30.4404C16.9704 30.3973 16.8824 30.3887 16.6892 30.4146C16.5302 30.4376 16.4166 30.4318 16.4393 30.406C16.4621 30.3801 16.8511 30.2968 17.3055 30.2049C17.9189 30.0814 18.1347 30.001 18.1631 29.9349C18.1943 29.8688 18.2199 29.8574 18.2625 29.9004C18.3079 29.9407 18.3562 29.9292 18.4584 29.8487C18.5805 29.7511 18.5834 29.7396 18.4698 29.7252C18.4045 29.7166 18.2653 29.7568 18.1631 29.8171C17.9814 29.9205 17.5554 29.9981 16.8909 30.0153C16.6552 30.0211 16.5132 30.0584 16.2888 30.1733C16.0219 30.3083 15.8941 30.3456 14.9598 30.3801C14.3919 30.4002 13.9148 30.3772 13.8977 30.3514C13.8807 30.3284 13.9631 30.3198 14.0823 30.3342C14.2101 30.3485 14.301 30.337 14.2981 30.3026C14.2953 30.2451 13.6876 30.1992 13.1793 30.1963C13.0202 30.1934 12.8896 30.1704 12.8896 30.1446C12.8896 30.1216 13.0628 30.0555 13.2701 29.9981C13.4803 29.9407 13.6876 29.8516 13.733 29.8057C13.8097 29.7339 13.7841 29.7281 13.5399 29.7597C13.3553 29.7827 13.2559 29.7712 13.2559 29.7339C13.2559 29.6448 12.7135 29.708 12.4693 29.8171C12.3245 29.8803 12.0604 29.9062 11.4214 29.8717C10.9529 29.8459 10.4843 29.8258 10.3821 29.8401C10.1947 29.8717 11.0438 29.9866 12.1342 29.9866C12.4012 29.9837 12.546 29.9866 12.4523 29.9952C11.9809 30.0412 12.5006 30.2825 13.2559 30.3313C13.4405 30.3428 13.0259 30.3543 12.3359 30.3198C11.606 30.2825 11.288 30.2566 11.5805 30.2997C12.174 30.3859 12.4125 30.518 11.9212 30.5036C11.7537 30.5007 11.5748 30.4864 11.5237 30.4778C11.4385 30.4605 10.3082 30.2623 9.90784 30.1791C9.7914 30.1561 9.85104 30.1475 10.0669 30.1503C10.2429 30.1532 10.0157 30.1159 9.50459 30.0354C9.57842 30.067 9.64941 30.1015 9.72325 30.136C9.90784 30.2221 10.0953 30.3026 10.2855 30.3801C11.6344 30.541 13.2531 30.6587 14.0028 30.6673C14.5338 30.6759 14.9513 30.6472 14.9286 30.63ZM13.6649 31.0838C13.5257 31.0608 13.3269 31.0407 13.2219 31.0378C13.0373 31.0292 13.0373 31.0292 13.1906 30.9861C13.4178 30.923 13.2701 30.923 12.8726 30.9804C12.7249 31.0034 12.4693 31.0034 12.1115 30.9775C12.4154 31.058 12.7249 31.1211 13.0373 31.1786C13.1452 31.1728 13.2417 31.1671 13.3809 31.1585C13.8551 31.1298 13.8892 31.1154 13.6649 31.0838ZM21.2499 29.662C21.2102 29.6936 21.2272 29.7023 21.2982 29.6822C21.3635 29.662 21.3948 29.6391 21.3692 29.6276C21.3437 29.6161 21.2897 29.6305 21.2499 29.662ZM9.93907 28.7831C9.8908 28.7946 9.90216 28.809 9.96747 28.8205C10.0299 28.832 10.0669 28.8234 10.0498 28.8033C10.0328 28.7803 9.98167 28.7717 9.93907 28.7831ZM9.99587 28.5649C9.95895 28.5419 9.88228 28.5304 9.82548 28.5361C9.76869 28.5419 9.79708 28.5591 9.8908 28.5763C9.98735 28.5907 10.0328 28.585 9.99587 28.5649ZM11.9979 28.921C11.7622 28.9038 11.6912 28.9153 11.6884 28.9813C11.6827 29.0474 11.7196 29.0618 11.8446 29.0388C12.2847 28.9641 12.3046 28.944 11.9979 28.921ZM9.01614 28.381C8.91391 28.2862 8.23804 28.1455 8.221 28.2173C8.21532 28.2489 8.39423 28.3121 8.64981 28.3638C8.95367 28.427 9.06726 28.4299 9.01614 28.381ZM11.4442 30.0871C11.4016 30.067 11.3362 30.0613 11.2908 30.0728C11.2482 30.0871 11.2823 30.1015 11.3646 30.1101C11.4498 30.1159 11.4839 30.1044 11.4442 30.0871ZM11.9298 29.1824C11.89 29.2025 12.1399 29.2312 12.4864 29.2341C13.4377 29.2427 13.5456 29.2111 12.7306 29.1824C12.3273 29.1652 11.9667 29.1594 11.9298 29.1824ZM20.6479 27.8784C20.7075 27.8583 20.7359 27.8353 20.7104 27.8238C20.6877 27.8123 20.6394 27.8267 20.6025 27.8554C20.5627 27.887 20.5798 27.8956 20.6479 27.8784ZM21.7895 28.2748C21.7469 28.2748 21.6816 28.3006 21.6475 28.3293C21.6134 28.3581 21.6504 28.3581 21.7299 28.3293C21.8065 28.3006 21.8349 28.2748 21.7895 28.2748ZM24.4617 27.8554C24.4816 27.8382 24.5015 27.8209 24.5214 27.8008C24.5072 27.8095 24.493 27.8209 24.4788 27.8296C24.4504 27.8497 24.4475 27.8583 24.4617 27.8554ZM21.8889 28.6654C21.1222 28.9296 20.08 29.1766 19.4126 29.2743C19.3047 29.2915 19.2223 29.326 19.228 29.3547C19.2365 29.3834 19.3672 29.3748 19.5205 29.3346C19.6767 29.2944 20.1595 29.2025 20.5968 29.1163C21.0341 29.0302 21.8122 28.8348 22.3234 28.6797C22.8346 28.5218 23.2719 28.3695 23.2974 28.3609C23.323 28.3552 23.3344 28.3322 23.3258 28.3121C23.2832 28.2144 22.7068 28.3839 21.8889 28.6654ZM23.8597 28.1139C23.7291 28.1599 23.6609 28.18 23.5303 28.2259C23.6439 28.1714 23.7007 28.1426 23.8143 28.0881C23.9705 28.0105 24.1579 27.9416 24.2317 27.933C24.3822 27.9215 24.3368 27.9502 23.8597 28.1139Z" fill="var(--fill-0, #C8C5E6)"/>
</g>
</svg>
