<svg preserveAspectRatio="none" width="100%" height="100%" overflow="visible" style="display: block;" viewBox="0 0 9 14" fill="none" xmlns="http://www.w3.org/2000/svg">
<g id="Group">
<path id="Vector" d="M7.92645 1.98305C7.98903 2.24675 8.02379 2.57374 8.02379 2.96754C8.02379 3.34376 7.98903 3.67075 7.92645 3.95204C7.98903 4.21574 8.02379 4.54273 8.02379 4.93653C8.02379 5.3233 7.98903 5.65381 7.92645 5.93509C7.98903 6.1988 8.02379 6.52579 8.02379 6.91959C8.02379 7.2958 7.98903 7.6228 7.92645 7.90408C7.98903 8.16779 8.02379 8.50181 8.02379 8.90264C8.02379 9.27886 7.98903 9.60585 7.92645 9.88714C7.98903 10.1508 8.02379 10.4778 8.02379 10.8716C8.02379 11.2584 7.98903 11.5854 7.92645 11.8561H6.93917C7.00175 12.1304 7.03651 12.4609 7.03651 12.8547C7.03651 13.2309 7.00175 13.5579 6.93917 13.8392H1.08503C1.01898 13.5579 0.987689 13.2309 0.987689 12.8547C0.987689 12.4609 1.01898 12.1304 1.08503 11.8561H0.0977469C0.0316963 11.5854 0.000409513 11.2584 0.000409513 10.8716C0.000409513 10.4778 0.0316963 10.1508 0.0977469 9.88714C0.0316963 9.60585 0.000409513 9.27886 0.000409513 8.90264C0.000409513 8.50181 0.0316963 8.16779 0.0977469 7.90408C0.0316963 7.6228 0.000409513 7.2958 0.000409513 6.91959C0.000409513 6.52579 0.0316963 6.1988 0.0977469 5.93509C0.0316963 5.65381 0.000409513 5.3233 0.000409513 4.93653C0.000409513 4.54273 0.0316963 4.21574 0.0977469 3.95204C0.0316963 3.67075 0.000409513 3.34376 0.000409513 2.96754C0.000409513 2.57374 0.0316963 2.24675 0.0977469 1.98305C0.0316963 1.70176 0.000409513 1.37125 0.000409513 0.984487C0.000409513 0.590689 0.0316963 0.263696 0.0977469 -8.54196e-06H2.0584C2.12097 0.263696 2.15574 0.590689 2.15574 0.984487C2.15574 1.37125 2.12097 1.70176 2.0584 1.98305C2.12097 2.24675 2.15574 2.57374 2.15574 2.96754C2.15574 3.34376 2.12097 3.67075 2.0584 3.95204C2.12097 4.21574 2.15574 4.54273 2.15574 4.93653C2.15574 5.3233 2.12097 5.65381 2.0584 5.93509C2.12097 6.1988 2.15574 6.52579 2.15574 6.91959C2.15574 7.2958 2.12097 7.6228 2.0584 7.90408C2.12097 8.16779 2.15574 8.50181 2.15574 8.90264C2.15574 9.27886 2.12097 9.60585 2.0584 9.88714C2.12097 10.1508 2.15574 10.4778 2.15574 10.8716C2.15574 11.2584 2.12097 11.5854 2.0584 11.8561H5.9658C5.89975 11.5854 5.86846 11.2584 5.86846 10.8716C5.86846 10.4778 5.89975 10.1508 5.9658 9.88714C5.89975 9.60585 5.86846 9.27886 5.86846 8.90264C5.86846 8.50181 5.89975 8.16779 5.9658 7.90408C5.89975 7.6228 5.86846 7.2958 5.86846 6.91959C5.86846 6.52579 5.89975 6.1988 5.9658 5.93509C5.89975 5.65381 5.86846 5.3233 5.86846 4.93653C5.86846 4.54273 5.89975 4.21574 5.9658 3.95204C5.89975 3.67075 5.86846 3.34376 5.86846 2.96754C5.86846 2.57374 5.89975 2.24675 5.9658 1.98305C5.89975 1.70176 5.86846 1.37125 5.86846 0.984487C5.86846 0.590689 5.89975 0.263696 5.9658 -8.54196e-06H7.92645C7.98903 0.263696 8.02379 0.590689 8.02379 0.984487C8.02379 1.37125 7.98903 1.70176 7.92645 1.98305Z" fill="var(--fill-0, #00FFFF)"/>
</g>
</svg>
