<svg preserveAspectRatio="none" width="100%" height="100%" overflow="visible" style="display: block;" viewBox="0 0 21 18" fill="none" xmlns="http://www.w3.org/2000/svg">
<path id="icon" d="M18.675 18L11.5875 11.7C11.025 12.1 10.3781 12.4167 9.64687 12.65C8.91562 12.8833 8.1375 13 7.3125 13C5.26875 13 3.53906 12.3708 2.12344 11.1125C0.707812 9.85417 0 8.31667 0 6.5C0 4.68333 0.707812 3.14583 2.12344 1.8875C3.53906 0.629167 5.26875 0 7.3125 0C9.35625 0 11.0859 0.629167 12.5016 1.8875C13.9172 3.14583 14.625 4.68333 14.625 6.5C14.625 7.23333 14.4937 7.925 14.2312 8.575C13.9687 9.225 13.6125 9.8 13.1625 10.3L20.25 16.6L18.675 18ZM7.3125 11C8.71875 11 9.91406 10.5625 10.8984 9.6875C11.8828 8.8125 12.375 7.75 12.375 6.5C12.375 5.25 11.8828 4.1875 10.8984 3.3125C9.91406 2.4375 8.71875 2 7.3125 2C5.90625 2 4.71094 2.4375 3.72656 3.3125C2.74219 4.1875 2.25 5.25 2.25 6.5C2.25 7.75 2.74219 8.8125 3.72656 9.6875C4.71094 10.5625 5.90625 11 7.3125 11Z" fill="var(--fill-0, #1D1B20)"/>
</svg>
