<svg preserveAspectRatio="none" width="100%" height="100%" overflow="visible" style="display: block;" viewBox="0 0 9 14" fill="none" xmlns="http://www.w3.org/2000/svg">
<g id="Group">
<path id="Vector" d="M7.92629 9.88714C7.98886 10.1508 8.02362 10.4778 8.02362 10.8716C8.02362 11.2584 7.98886 11.5854 7.92629 11.8561H6.93901C7.00158 12.1304 7.03635 12.4609 7.03635 12.8547C7.03635 13.2309 7.00158 13.5579 6.93901 13.8392H2.05823C1.99218 13.5579 1.9609 13.2309 1.9609 12.8547C1.9609 12.4609 1.99218 12.1304 2.05823 11.8561H1.08486C1.01881 11.5854 0.987523 11.2584 0.987523 10.8716C0.987523 10.4778 1.01881 10.1508 1.08486 9.88714H0.0975817C0.0315311 9.60585 0.000244362 9.27886 0.000244362 8.90264C0.000244362 8.50181 0.0315311 8.16779 0.0975817 7.90408C0.0315311 7.6228 0.000244362 7.2958 0.000244362 6.91959C0.000244362 6.52579 0.0315311 6.1988 0.0975817 5.93509C0.0315311 5.65381 0.000244362 5.3233 0.000244362 4.93653C0.000244362 4.54273 0.0315311 4.21574 0.0975817 3.95204H1.08486C1.01881 3.67075 0.987523 3.34376 0.987523 2.96754C0.987523 2.57374 1.01881 2.24675 1.08486 1.98305H2.05823C1.99218 1.70176 1.9609 1.37125 1.9609 0.984487C1.9609 0.590689 1.99218 0.263696 2.05823 -8.54196e-06H6.93901C7.00158 0.263696 7.03635 0.590689 7.03635 0.984487C7.03635 1.37125 7.00158 1.70176 6.93901 1.98305H7.92629C7.98886 2.24675 8.02362 2.57374 8.02362 2.96754C8.02362 3.34376 7.98886 3.67075 7.92629 3.95204H5.96563C5.89958 3.67075 5.8683 3.34376 5.8683 2.96754C5.8683 2.57374 5.89958 2.24675 5.96563 1.98305H3.03161C3.09418 2.24675 3.12895 2.57374 3.12895 2.96754C3.12895 3.34376 3.09418 3.67075 3.03161 3.95204H2.05823C2.12081 4.21574 2.15557 4.54273 2.15557 4.93653C2.15557 5.3233 2.12081 5.65381 2.05823 5.93509C2.12081 6.1988 2.15557 6.52579 2.15557 6.91959C2.15557 7.2958 2.12081 7.6228 2.05823 7.90408C2.12081 8.16779 2.15557 8.50181 2.15557 8.90264C2.15557 9.27886 2.12081 9.60585 2.05823 9.88714H3.03161C3.09418 10.1508 3.12895 10.4778 3.12895 10.8716C3.12895 11.2584 3.09418 11.5854 3.03161 11.8561H5.96563C5.89958 11.5854 5.8683 11.2584 5.8683 10.8716C5.8683 10.4778 5.89958 10.1508 5.96563 9.88714H7.92629Z" fill="var(--fill-0, #00FFFF)"/>
</g>
</svg>
