<svg preserveAspectRatio="none" width="100%" height="100%" overflow="visible" style="display: block;" viewBox="0 0 9 14" fill="none" xmlns="http://www.w3.org/2000/svg">
<g id="Group">
<path id="Vector" d="M8.02298 10.8716C8.02298 11.2584 7.98822 11.5854 7.92564 11.8561C7.98822 12.1304 8.02298 12.4609 8.02298 12.8547C8.02298 13.2309 7.98822 13.5579 7.92564 13.8392H5.96499C5.89894 13.5579 5.86765 13.2309 5.86765 12.8547C5.86765 12.4609 5.89894 12.1304 5.96499 11.8561C5.89894 11.5854 5.86765 11.2584 5.86765 10.8716C5.86765 10.4778 5.89894 10.1508 5.96499 9.88714H2.05759C2.12016 10.1508 2.15493 10.4778 2.15493 10.8716C2.15493 11.2584 2.12016 11.5854 2.05759 11.8561C2.12016 12.1304 2.15493 12.4609 2.15493 12.8547C2.15493 13.2309 2.12016 13.5579 2.05759 13.8392H0.0969355C0.0308849 13.5579 -0.000401899 13.2309 -0.000401899 12.8547C-0.000401899 12.4609 0.0308849 12.1304 0.0969355 11.8561C0.0308849 11.5854 -0.000401899 11.2584 -0.000401899 10.8716C-0.000401899 10.4778 0.0308849 10.1508 0.0969355 9.88714H0.833918C0.767868 9.60586 0.736581 9.27886 0.736581 8.90264C0.736581 8.50181 0.767868 8.16779 0.833918 7.90409C0.767868 7.6228 0.736581 7.29581 0.736581 6.91959C0.736581 6.52579 0.767868 6.1988 0.833918 5.93509H1.32061C1.25455 5.65381 1.22327 5.3233 1.22327 4.93654C1.22327 4.54274 1.25455 4.21574 1.32061 3.95204H2.05759C1.99154 3.67076 1.96025 3.34376 1.96025 2.96754C1.96025 2.57375 1.99154 2.24675 2.05759 1.98305H2.54427C2.47822 1.70176 2.44694 1.37126 2.44694 0.98449C2.44694 0.590692 2.47822 0.263699 2.54427 -5.41665e-06H5.4783C5.54088 0.263699 5.57564 0.590692 5.57564 0.98449C5.57564 1.37126 5.54088 1.70176 5.4783 1.98305H5.96499C6.02756 2.24675 6.06233 2.57375 6.06233 2.96754C6.06233 3.34376 6.02756 3.67076 5.96499 3.95204H6.70197C6.76455 4.21574 6.79931 4.54274 6.79931 4.93654C6.79931 5.3233 6.76455 5.65381 6.70197 5.93509H7.18866C7.25123 6.1988 7.286 6.52579 7.286 6.91959C7.286 7.29581 7.25123 7.6228 7.18866 7.90409C7.25123 8.16779 7.286 8.50181 7.286 8.90264C7.286 9.27886 7.25123 9.60586 7.18866 9.88714H7.92564C7.98822 10.1508 8.02298 10.4778 8.02298 10.8716ZM5.22801 7.90409C5.16195 7.6228 5.13067 7.29581 5.13067 6.91959C5.13067 6.52579 5.16195 6.1988 5.22801 5.93509H4.74132C4.67527 5.65381 4.64398 5.3233 4.64398 4.93654C4.64398 4.54274 4.67527 4.21574 4.74132 3.95204H3.28126C3.34383 4.21574 3.3786 4.54274 3.3786 4.93654C3.3786 5.3233 3.34383 5.65381 3.28126 5.93509H2.79457C2.85714 6.1988 2.89191 6.52579 2.89191 6.91959C2.89191 7.29581 2.85714 7.6228 2.79457 7.90409H5.22801Z" fill="var(--fill-0, #00FFFF)"/>
</g>
</svg>
