<svg preserveAspectRatio="none" width="100%" height="100%" overflow="visible" style="display: block;" viewBox="0 0 9 14" fill="none" xmlns="http://www.w3.org/2000/svg">
<g id="Group">
<path id="Vector" d="M7.92587 9.88714C7.98844 10.1508 8.0232 10.4778 8.0232 10.8716C8.0232 11.2584 7.98844 11.5854 7.92587 11.8561H6.93859C7.00116 12.1304 7.03593 12.4609 7.03593 12.8547C7.03593 13.2309 7.00116 13.5579 6.93859 13.8392H2.05781C1.99176 13.5579 1.96048 13.2309 1.96048 12.8547C1.96048 12.4609 1.99176 12.1304 2.05781 11.8561H1.08444C1.01839 11.5854 0.987104 11.2584 0.987104 10.8716C0.987104 10.4778 1.01839 10.1508 1.08444 9.88714H0.0971621C0.0311116 9.60586 -0.000175222 9.27886 -0.000175222 8.90265C-0.000175222 8.50182 0.0311116 8.16779 0.0971621 7.90409C0.0311116 7.6228 -0.000175222 7.29581 -0.000175222 6.91959C-0.000175222 6.52579 0.0311116 6.1988 0.0971621 5.9351C0.0311116 5.65381 -0.000175222 5.3233 -0.000175222 4.93654C-0.000175222 4.54274 0.0311116 4.21575 0.0971621 3.95204H1.08444C1.01839 3.67076 0.987104 3.34376 0.987104 2.96755C0.987104 2.57375 1.01839 2.24675 1.08444 1.98305H2.05781C1.99176 1.70177 1.96048 1.37126 1.96048 0.984491C1.96048 0.590693 1.99176 0.2637 2.05781 -4.06497e-06H6.93859C7.00116 0.2637 7.03593 0.590693 7.03593 0.984491C7.03593 1.37126 7.00116 1.70177 6.93859 1.98305H7.92587C7.98844 2.24675 8.0232 2.57375 8.0232 2.96755C8.0232 3.34376 7.98844 3.67076 7.92587 3.95204H5.96521C5.89916 3.67076 5.86788 3.34376 5.86788 2.96755C5.86788 2.57375 5.89916 2.24675 5.96521 1.98305H3.03119C3.09376 2.24675 3.12853 2.57375 3.12853 2.96755C3.12853 3.34376 3.09376 3.67076 3.03119 3.95204H2.05781C2.12039 4.21575 2.15515 4.54274 2.15515 4.93654C2.15515 5.3233 2.12039 5.65381 2.05781 5.9351C2.12039 6.1988 2.15515 6.52579 2.15515 6.91959C2.15515 7.29581 2.12039 7.6228 2.05781 7.90409C2.12039 8.16779 2.15515 8.50182 2.15515 8.90265C2.15515 9.27886 2.12039 9.60586 2.05781 9.88714H3.03119C3.09376 10.1508 3.12853 10.4778 3.12853 10.8716C3.12853 11.2584 3.09376 11.5854 3.03119 11.8561H5.96521C5.89916 11.5854 5.86788 11.2584 5.86788 10.8716C5.86788 10.4778 5.89916 10.1508 5.96521 9.88714H7.92587Z" fill="var(--fill-0, #F1F9EE)"/>
</g>
</svg>
