<svg preserveAspectRatio="none" width="100%" height="100%" overflow="visible" style="display: block;" viewBox="0 0 9 14" fill="none" xmlns="http://www.w3.org/2000/svg">
<g id="Group">
<path id="Vector" d="M7.92571 9.88713C7.98829 10.1508 8.02305 10.4778 8.02305 10.8716C8.02305 11.2584 7.98829 11.5854 7.92571 11.8561H6.93843C7.00101 12.1304 7.03577 12.4609 7.03577 12.8547C7.03577 13.2309 7.00101 13.5579 6.93843 13.8392H2.05766C1.99161 13.5579 1.96032 13.2309 1.96032 12.8547C1.96032 12.4609 1.99161 12.1304 2.05766 11.8561H1.08428C1.01823 11.5854 0.986947 11.2584 0.986947 10.8716C0.986947 10.4778 1.01823 10.1508 1.08428 9.88713H0.0970054C0.0309548 9.60585 -0.000331944 9.27885 -0.000331944 8.90263C-0.000331944 8.5018 0.0309548 8.16778 0.0970054 7.90408C0.0309548 7.62279 -0.000331944 7.2958 -0.000331944 6.91958C-0.000331944 6.52578 0.0309548 6.19879 0.0970054 5.93508C0.0309548 5.6538 -0.000331944 5.32329 -0.000331944 4.93653C-0.000331944 4.54273 0.0309548 4.21573 0.0970054 3.95203H1.08428C1.01823 3.67075 0.986947 3.34375 0.986947 2.96753C0.986947 2.57374 1.01823 2.24674 1.08428 1.98304H2.05766C1.99161 1.70176 1.96032 1.37125 1.96032 0.98448C1.96032 0.590682 1.99161 0.263689 2.05766 -1.52528e-05H6.93843C7.00101 0.263689 7.03577 0.590682 7.03577 0.98448C7.03577 1.37125 7.00101 1.70176 6.93843 1.98304H7.92571C7.98829 2.24674 8.02305 2.57374 8.02305 2.96753C8.02305 3.34375 7.98829 3.67075 7.92571 3.95203H5.96506C5.89901 3.67075 5.86772 3.34375 5.86772 2.96753C5.86772 2.57374 5.89901 2.24674 5.96506 1.98304H3.03103C3.09361 2.24674 3.12837 2.57374 3.12837 2.96753C3.12837 3.34375 3.09361 3.67075 3.03103 3.95203H2.05766C2.12023 4.21573 2.155 4.54273 2.155 4.93653C2.155 5.32329 2.12023 5.6538 2.05766 5.93508C2.12023 6.19879 2.155 6.52578 2.155 6.91958C2.155 7.2958 2.12023 7.62279 2.05766 7.90408C2.12023 8.16778 2.155 8.5018 2.155 8.90263C2.155 9.27885 2.12023 9.60585 2.05766 9.88713H3.03103C3.09361 10.1508 3.12837 10.4778 3.12837 10.8716C3.12837 11.2584 3.09361 11.5854 3.03103 11.8561H5.96506C5.89901 11.5854 5.86772 11.2584 5.86772 10.8716C5.86772 10.4778 5.89901 10.1508 5.96506 9.88713H7.92571Z" fill="var(--fill-0, #FF00FF)"/>
</g>
</svg>
