<svg preserveAspectRatio="none" width="100%" height="100%" overflow="visible" style="display: block;" viewBox="0 0 9 14" fill="none" xmlns="http://www.w3.org/2000/svg">
<g id="Group">
<path id="Vector" d="M8.02369 10.8716C8.02369 11.2584 7.98893 11.5854 7.92635 11.8561C7.98893 12.1304 8.02369 12.4609 8.02369 12.8547C8.02369 13.2309 7.98893 13.5579 7.92635 13.8392H5.9657C5.89965 13.5579 5.86836 13.2309 5.86836 12.8547C5.86836 12.4609 5.89965 12.1304 5.9657 11.8561C5.89965 11.5854 5.86836 11.2584 5.86836 10.8716C5.86836 10.4778 5.89965 10.1508 5.9657 9.88714H2.0583C2.12088 10.1508 2.15564 10.4778 2.15564 10.8716C2.15564 11.2584 2.12088 11.5854 2.0583 11.8561C2.12088 12.1304 2.15564 12.4609 2.15564 12.8547C2.15564 13.2309 2.12088 13.5579 2.0583 13.8392H0.0976488C0.0315982 13.5579 0.00031144 13.2309 0.00031144 12.8547C0.00031144 12.4609 0.0315982 12.1304 0.0976488 11.8561C0.0315982 11.5854 0.00031144 11.2584 0.00031144 10.8716C0.00031144 10.4778 0.0315982 10.1508 0.0976488 9.88714H0.834632C0.768581 9.60586 0.737294 9.27886 0.737294 8.90265C0.737294 8.50182 0.768581 8.16779 0.834632 7.90409C0.768581 7.6228 0.737294 7.29581 0.737294 6.91959C0.737294 6.52579 0.768581 6.1988 0.834632 5.9351H1.32132C1.25527 5.65381 1.22398 5.3233 1.22398 4.93654C1.22398 4.54274 1.25527 4.21575 1.32132 3.95204H2.0583C1.99225 3.67076 1.96096 3.34376 1.96096 2.96755C1.96096 2.57375 1.99225 2.24675 2.0583 1.98305H2.54499C2.47894 1.70177 2.44765 1.37126 2.44765 0.984491C2.44765 0.590693 2.47894 0.2637 2.54499 -4.06497e-06H5.47901C5.54159 0.2637 5.57635 0.590693 5.57635 0.984491C5.57635 1.37126 5.54159 1.70177 5.47901 1.98305H5.9657C6.02828 2.24675 6.06304 2.57375 6.06304 2.96755C6.06304 3.34376 6.02828 3.67076 5.9657 3.95204H6.70268C6.76526 4.21575 6.80002 4.54274 6.80002 4.93654C6.80002 5.3233 6.76526 5.65381 6.70268 5.9351H7.18937C7.25194 6.1988 7.28671 6.52579 7.28671 6.91959C7.28671 7.29581 7.25194 7.6228 7.18937 7.90409C7.25194 8.16779 7.28671 8.50182 7.28671 8.90265C7.28671 9.27886 7.25194 9.60586 7.18937 9.88714H7.92635C7.98893 10.1508 8.02369 10.4778 8.02369 10.8716ZM5.22872 7.90409C5.16267 7.6228 5.13138 7.29581 5.13138 6.91959C5.13138 6.52579 5.16267 6.1988 5.22872 5.9351H4.74203C4.67598 5.65381 4.64469 5.3233 4.64469 4.93654C4.64469 4.54274 4.67598 4.21575 4.74203 3.95204H3.28197C3.34455 4.21575 3.37931 4.54274 3.37931 4.93654C3.37931 5.3233 3.34455 5.65381 3.28197 5.9351H2.79528C2.85786 6.1988 2.89262 6.52579 2.89262 6.91959C2.89262 7.29581 2.85786 7.6228 2.79528 7.90409H5.22872Z" fill="var(--fill-0, #F1F9EE)"/>
</g>
</svg>
