<svg preserveAspectRatio="none" width="100%" height="100%" overflow="visible" style="display: block;" viewBox="0 0 6 12" fill="none" xmlns="http://www.w3.org/2000/svg">
<path id="Vector" d="M4.98905 3.86774L1.35175 0.230436C1.20327 0.082843 1.00243 0 0.793074 0C0.583722 0 0.382877 0.082843 0.234403 0.230436C0.160129 0.304104 0.101176 0.391749 0.0609444 0.488315C0.0207132 0.584881 0 0.688458 0 0.793069C0 0.897681 0.0207132 1.00126 0.0609444 1.09782C0.101176 1.19439 0.160129 1.28204 0.234403 1.3557L3.87963 4.98508C3.95391 5.05875 4.01286 5.1464 4.05309 5.24296C4.09332 5.33953 4.11404 5.44311 4.11404 5.54772C4.11404 5.65233 4.09332 5.75591 4.05309 5.85247C4.01286 5.94904 3.95391 6.03668 3.87963 6.11035L0.234403 9.73973C0.0851832 9.8879 0.000935014 10.0893 0.000191956 10.2996C-0.000551102 10.5098 0.0822725 10.7118 0.230441 10.861C0.37861 11.0103 0.579987 11.0945 0.790272 11.0952C1.00056 11.096 1.20253 11.0132 1.35175 10.865L4.98905 7.22769C5.43425 6.78194 5.68431 6.17771 5.68431 5.54772C5.68431 4.91772 5.43425 4.31349 4.98905 3.86774V3.86774Z" fill="var(--fill-0, #090909)"/>
</svg>
