<svg preserveAspectRatio="none" width="100%" height="100%" overflow="visible" style="display: block;" viewBox="0 0 9 14" fill="none" xmlns="http://www.w3.org/2000/svg">
<g id="Group">
<path id="Vector" d="M7.9256 5.9351C7.98817 6.1988 8.02293 6.52579 8.02293 6.91959C8.02293 7.29581 7.98817 7.6228 7.9256 7.90409C7.98817 8.16779 8.02293 8.50182 8.02293 8.90265C8.02293 9.27887 7.98817 9.60586 7.9256 9.88714H7.18861C7.25119 10.1508 7.28595 10.4778 7.28595 10.8716C7.28595 11.2584 7.25119 11.5854 7.18861 11.8561H5.96494C6.02752 12.1304 6.06228 12.4609 6.06228 12.8547C6.06228 13.2309 6.02752 13.5579 5.96494 13.8392H2.05754C1.99149 13.5579 1.96021 13.2309 1.96021 12.8547C1.96021 12.4609 1.99149 12.1304 2.05754 11.8561H0.833873C0.767822 11.5854 0.736536 11.2584 0.736536 10.8716C0.736536 10.4778 0.767822 10.1508 0.833873 9.88714H0.0968901C0.0308396 9.60586 -0.000447235 9.27887 -0.000447235 8.90265C-0.000447235 8.50182 0.0308396 8.16779 0.0968901 7.90409C0.0308396 7.6228 -0.000447235 7.29581 -0.000447235 6.91959C-0.000447235 6.52579 0.0308396 6.1988 0.0968901 5.9351C0.0308396 5.65381 -0.000447235 5.3233 -0.000447235 4.93654C-0.000447235 4.54274 0.0308396 4.21575 0.0968901 3.95204H0.833873C0.767822 3.67076 0.736536 3.34377 0.736536 2.96755C0.736536 2.57375 0.767822 2.24676 0.833873 1.98305H2.05754C1.99149 1.70177 1.96021 1.37126 1.96021 0.984493C1.96021 0.590694 1.99149 0.263702 2.05754 -2.7133e-06H5.96494C6.02752 0.263702 6.06228 0.590694 6.06228 0.984493C6.06228 1.37126 6.02752 1.70177 5.96494 1.98305H7.18861C7.25119 2.24676 7.28595 2.57375 7.28595 2.96755C7.28595 3.34377 7.25119 3.67076 7.18861 3.95204H7.9256C7.98817 4.21575 8.02293 4.54274 8.02293 4.93654C8.02293 5.3233 7.98817 5.65381 7.9256 5.9351ZM5.96494 9.88714C5.89889 9.60586 5.86761 9.27887 5.86761 8.90265C5.86761 8.50182 5.89889 8.16779 5.96494 7.90409C5.89889 7.6228 5.86761 7.29581 5.86761 6.91959C5.86761 6.52579 5.89889 6.1988 5.96494 5.9351C5.89889 5.65381 5.86761 5.3233 5.86761 4.93654C5.86761 4.54274 5.89889 4.21575 5.96494 3.95204H5.22796C5.16191 3.67076 5.13062 3.34377 5.13062 2.96755C5.13062 2.57375 5.16191 2.24676 5.22796 1.98305H2.79453C2.8571 2.24676 2.89186 2.57375 2.89186 2.96755C2.89186 3.34377 2.8571 3.67076 2.79453 3.95204H2.05754C2.12012 4.21575 2.15488 4.54274 2.15488 4.93654C2.15488 5.3233 2.12012 5.65381 2.05754 5.9351C2.12012 6.1988 2.15488 6.52579 2.15488 6.91959C2.15488 7.29581 2.12012 7.6228 2.05754 7.90409C2.12012 8.16779 2.15488 8.50182 2.15488 8.90265C2.15488 9.27887 2.12012 9.60586 2.05754 9.88714H2.79453C2.8571 10.1508 2.89186 10.4778 2.89186 10.8716C2.89186 11.2584 2.8571 11.5854 2.79453 11.8561H5.22796C5.16191 11.5854 5.13062 11.2584 5.13062 10.8716C5.13062 10.4778 5.16191 10.1508 5.22796 9.88714H5.96494Z" fill="var(--fill-0, #FF00FF)"/>
</g>
</svg>
