<svg preserveAspectRatio="none" width="100%" height="100%" overflow="visible" style="display: block;" viewBox="0 0 9 14" fill="none" xmlns="http://www.w3.org/2000/svg">
<g id="Group">
<path id="Vector" d="M8.02347 10.8716C8.02347 11.2584 7.98871 11.5854 7.92614 11.8561C7.98871 12.1304 8.02347 12.4609 8.02347 12.8547C8.02347 13.2309 7.98871 13.5579 7.92614 13.8392H5.96548C5.89943 13.5579 5.86815 13.2309 5.86815 12.8547C5.86815 12.4609 5.89943 12.1304 5.96548 11.8561C5.89943 11.5854 5.86815 11.2584 5.86815 10.8716C5.86815 10.4778 5.89943 10.1508 5.96548 9.88713H2.05808C2.12066 10.1508 2.15542 10.4778 2.15542 10.8716C2.15542 11.2584 2.12066 11.5854 2.05808 11.8561C2.12066 12.1304 2.15542 12.4609 2.15542 12.8547C2.15542 13.2309 2.12066 13.5579 2.05808 13.8392H0.0974307C0.0313801 13.5579 9.33207e-05 13.2309 9.33207e-05 12.8547C9.33207e-05 12.4609 0.0313801 12.1304 0.0974307 11.8561C0.0313801 11.5854 9.33207e-05 11.2584 9.33207e-05 10.8716C9.33207e-05 10.4778 0.0313801 10.1508 0.0974307 9.88713H0.834414C0.768363 9.60585 0.737076 9.27886 0.737076 8.90264C0.737076 8.50181 0.768363 8.16778 0.834414 7.90408C0.768363 7.62279 0.737076 7.2958 0.737076 6.91958C0.737076 6.52579 0.768363 6.19879 0.834414 5.93509H1.3211C1.25505 5.6538 1.22376 5.32329 1.22376 4.93653C1.22376 4.54273 1.25505 4.21574 1.3211 3.95203H2.05808C1.99203 3.67075 1.96075 3.34376 1.96075 2.96754C1.96075 2.57374 1.99203 2.24675 2.05808 1.98304H2.54477C2.47872 1.70176 2.44743 1.37125 2.44743 0.984484C2.44743 0.590686 2.47872 0.263693 2.54477 -1.13904e-05H5.4788C5.54137 0.263693 5.57613 0.590686 5.57613 0.984484C5.57613 1.37125 5.54137 1.70176 5.4788 1.98304H5.96548C6.02806 2.24675 6.06282 2.57374 6.06282 2.96754C6.06282 3.34376 6.02806 3.67075 5.96548 3.95203H6.70247C6.76504 4.21574 6.7998 4.54273 6.7998 4.93653C6.7998 5.32329 6.76504 5.6538 6.70247 5.93509H7.18915C7.25173 6.19879 7.28649 6.52579 7.28649 6.91958C7.28649 7.2958 7.25173 7.62279 7.18915 7.90408C7.25173 8.16778 7.28649 8.50181 7.28649 8.90264C7.28649 9.27886 7.25173 9.60585 7.18915 9.88713H7.92614C7.98871 10.1508 8.02347 10.4778 8.02347 10.8716ZM5.2285 7.90408C5.16245 7.62279 5.13116 7.2958 5.13116 6.91958C5.13116 6.52579 5.16245 6.19879 5.2285 5.93509H4.74181C4.67576 5.6538 4.64448 5.32329 4.64448 4.93653C4.64448 4.54273 4.67576 4.21574 4.74181 3.95203H3.28175C3.34433 4.21574 3.37909 4.54273 3.37909 4.93653C3.37909 5.32329 3.34433 5.6538 3.28175 5.93509H2.79507C2.85764 6.19879 2.8924 6.52579 2.8924 6.91958C2.8924 7.2958 2.85764 7.62279 2.79507 7.90408H5.2285Z" fill="var(--fill-0, #00FFFF)"/>
</g>
</svg>
