<svg preserveAspectRatio="none" width="100%" height="100%" overflow="visible" style="display: block;" viewBox="0 0 9 14" fill="none" xmlns="http://www.w3.org/2000/svg">
<g id="Group">
<path id="Vector" d="M7.92576 5.9351C7.98834 6.1988 8.0231 6.52579 8.0231 6.91959C8.0231 7.29581 7.98834 7.6228 7.92576 7.90409C7.98834 8.16779 8.0231 8.50182 8.0231 8.90265C8.0231 9.27887 7.98834 9.60586 7.92576 9.88714H6.93848C7.00106 10.1508 7.03582 10.4778 7.03582 10.8716C7.03582 11.2584 7.00106 11.5854 6.93848 11.8561H5.96511C6.02768 12.1304 6.06245 12.4609 6.06245 12.8547C6.06245 13.2309 6.02768 13.5579 5.96511 13.8392H0.0970553C0.0310047 13.5579 -0.000282084 13.2309 -0.000282084 12.8547C-0.000282084 12.4609 0.0310047 12.1304 0.0970553 11.8561C0.0310047 11.5854 -0.000282084 11.2584 -0.000282084 10.8716C-0.000282084 10.4778 0.0310047 10.1508 0.0970553 9.88714C0.0310047 9.60586 -0.000282084 9.27887 -0.000282084 8.90265C-0.000282084 8.50182 0.0310047 8.16779 0.0970553 7.90409C0.0310047 7.6228 -0.000282084 7.29581 -0.000282084 6.91959C-0.000282084 6.52579 0.0310047 6.1988 0.0970553 5.9351C0.0310047 5.65381 -0.000282084 5.3233 -0.000282084 4.93654C-0.000282084 4.54274 0.0310047 4.21575 0.0970553 3.95204C0.0310047 3.67076 -0.000282084 3.34377 -0.000282084 2.96755C-0.000282084 2.57375 0.0310047 2.24676 0.0970553 1.98305C0.0310047 1.70177 -0.000282084 1.37126 -0.000282084 0.984493C-0.000282084 0.590694 0.0310047 0.263702 0.0970553 -2.7133e-06H5.96511C6.02768 0.263702 6.06245 0.590694 6.06245 0.984493C6.06245 1.37126 6.02768 1.70177 5.96511 1.98305H6.93848C7.00106 2.24676 7.03582 2.57375 7.03582 2.96755C7.03582 3.34377 7.00106 3.67076 6.93848 3.95204H7.92576C7.98834 4.21575 8.0231 4.54274 8.0231 4.93654C8.0231 5.3233 7.98834 5.65381 7.92576 5.9351ZM5.96511 9.88714C5.89906 9.60586 5.86777 9.27887 5.86777 8.90265C5.86777 8.50182 5.89906 8.16779 5.96511 7.90409C5.89906 7.6228 5.86777 7.29581 5.86777 6.91959C5.86777 6.52579 5.89906 6.1988 5.96511 5.9351C5.89906 5.65381 5.86777 5.3233 5.86777 4.93654C5.86777 4.54274 5.89906 4.21575 5.96511 3.95204H4.99173C4.92568 3.67076 4.8944 3.34377 4.8944 2.96755C4.8944 2.57375 4.92568 2.24676 4.99173 1.98305H2.05771C2.12028 2.24676 2.15505 2.57375 2.15505 2.96755C2.15505 3.34377 2.12028 3.67076 2.05771 3.95204C2.12028 4.21575 2.15505 4.54274 2.15505 4.93654C2.15505 5.3233 2.12028 5.65381 2.05771 5.9351C2.12028 6.1988 2.15505 6.52579 2.15505 6.91959C2.15505 7.29581 2.12028 7.6228 2.05771 7.90409C2.12028 8.16779 2.15505 8.50182 2.15505 8.90265C2.15505 9.27887 2.12028 9.60586 2.05771 9.88714C2.12028 10.1508 2.15505 10.4778 2.15505 10.8716C2.15505 11.2584 2.12028 11.5854 2.05771 11.8561H4.99173C4.92568 11.5854 4.8944 11.2584 4.8944 10.8716C4.8944 10.4778 4.92568 10.1508 4.99173 9.88714H5.96511Z" fill="var(--fill-0, #FF00FF)"/>
</g>
</svg>
