<svg preserveAspectRatio="none" width="100%" height="100%" overflow="visible" style="display: block;" viewBox="0 0 9 14" fill="none" xmlns="http://www.w3.org/2000/svg">
<g id="Group">
<path id="Vector" d="M8.02343 10.8716C8.02343 11.2584 7.98867 11.5854 7.92609 11.8561C7.98867 12.1304 8.02343 12.4609 8.02343 12.8547C8.02343 13.2309 7.98867 13.5579 7.92609 13.8392H5.96544C5.89939 13.5579 5.8681 13.2309 5.8681 12.8547C5.8681 12.4609 5.89939 12.1304 5.96544 11.8561C5.89939 11.5854 5.8681 11.2584 5.8681 10.8716C5.8681 10.4778 5.89939 10.1508 5.96544 9.88714H2.05804C2.12061 10.1508 2.15538 10.4778 2.15538 10.8716C2.15538 11.2584 2.12061 11.5854 2.05804 11.8561C2.12061 12.1304 2.15538 12.4609 2.15538 12.8547C2.15538 13.2309 2.12061 13.5579 2.05804 13.8392H0.0973856C0.031335 13.5579 4.82168e-05 13.2309 4.82168e-05 12.8547C4.82168e-05 12.4609 0.031335 12.1304 0.0973856 11.8561C0.031335 11.5854 4.82168e-05 11.2584 4.82168e-05 10.8716C4.82168e-05 10.4778 0.031335 10.1508 0.0973856 9.88714H0.834368C0.768318 9.60586 0.737031 9.27887 0.737031 8.90265C0.737031 8.50182 0.768318 8.16779 0.834368 7.90409C0.768318 7.6228 0.737031 7.29581 0.737031 6.91959C0.737031 6.52579 0.768318 6.1988 0.834368 5.9351H1.32106C1.255 5.65381 1.22372 5.3233 1.22372 4.93654C1.22372 4.54274 1.255 4.21575 1.32106 3.95204H2.05804C1.99199 3.67076 1.9607 3.34377 1.9607 2.96755C1.9607 2.57375 1.99199 2.24676 2.05804 1.98305H2.54473C2.47867 1.70177 2.44739 1.37126 2.44739 0.984493C2.44739 0.590694 2.47867 0.263702 2.54473 -2.7133e-06H5.47875C5.54133 0.263702 5.57609 0.590694 5.57609 0.984493C5.57609 1.37126 5.54133 1.70177 5.47875 1.98305H5.96544C6.02801 2.24676 6.06278 2.57375 6.06278 2.96755C6.06278 3.34377 6.02801 3.67076 5.96544 3.95204H6.70242C6.765 4.21575 6.79976 4.54274 6.79976 4.93654C6.79976 5.3233 6.765 5.65381 6.70242 5.9351H7.18911C7.25168 6.1988 7.28645 6.52579 7.28645 6.91959C7.28645 7.29581 7.25168 7.6228 7.18911 7.90409C7.25168 8.16779 7.28645 8.50182 7.28645 8.90265C7.28645 9.27887 7.25168 9.60586 7.18911 9.88714H7.92609C7.98867 10.1508 8.02343 10.4778 8.02343 10.8716ZM5.22846 7.90409C5.1624 7.6228 5.13112 7.29581 5.13112 6.91959C5.13112 6.52579 5.1624 6.1988 5.22846 5.9351H4.74177C4.67572 5.65381 4.64443 5.3233 4.64443 4.93654C4.64443 4.54274 4.67572 4.21575 4.74177 3.95204H3.28171C3.34428 4.21575 3.37905 4.54274 3.37905 4.93654C3.37905 5.3233 3.34428 5.65381 3.28171 5.9351H2.79502C2.85759 6.1988 2.89236 6.52579 2.89236 6.91959C2.89236 7.29581 2.85759 7.6228 2.79502 7.90409H5.22846Z" fill="var(--fill-0, #FF00FF)"/>
</g>
</svg>
