<svg preserveAspectRatio="none" width="100%" height="100%" overflow="visible" style="display: block;" viewBox="0 0 9 14" fill="none" xmlns="http://www.w3.org/2000/svg">
<g id="Group">
<path id="Vector" d="M7.92649 5.93509C7.98906 6.1988 8.02383 6.52579 8.02383 6.91959C8.02383 7.29581 7.98906 7.6228 7.92649 7.90408C7.98906 8.16779 8.02383 8.50181 8.02383 8.90264C8.02383 9.27886 7.98906 9.60585 7.92649 9.88714H7.18951C7.25208 10.1508 7.28684 10.4778 7.28684 10.8716C7.28684 11.2584 7.25208 11.5854 7.18951 11.8561H5.96584C6.02841 12.1304 6.06317 12.4609 6.06317 12.8547C6.06317 13.2309 6.02841 13.5579 5.96584 13.8392H2.05844C1.99239 13.5579 1.9611 13.2309 1.9611 12.8547C1.9611 12.4609 1.99239 12.1304 2.05844 11.8561H0.834767C0.768716 11.5854 0.737429 11.2584 0.737429 10.8716C0.737429 10.4778 0.768716 10.1508 0.834767 9.88714H0.0977838C0.0317332 9.60585 0.000446405 9.27886 0.000446405 8.90264C0.000446405 8.50181 0.0317332 8.16779 0.0977838 7.90408C0.0317332 7.6228 0.000446405 7.29581 0.000446405 6.91959C0.000446405 6.52579 0.0317332 6.1988 0.0977838 5.93509C0.0317332 5.65381 0.000446405 5.3233 0.000446405 4.93653C0.000446405 4.54274 0.0317332 4.21574 0.0977838 3.95204H0.834767C0.768716 3.67075 0.737429 3.34376 0.737429 2.96754C0.737429 2.57375 0.768716 2.24675 0.834767 1.98305H2.05844C1.99239 1.70176 1.9611 1.37125 1.9611 0.984489C1.9611 0.59069 1.99239 0.263698 2.05844 -6.73671e-06H5.96584C6.02841 0.263698 6.06317 0.59069 6.06317 0.984489C6.06317 1.37125 6.02841 1.70176 5.96584 1.98305H7.18951C7.25208 2.24675 7.28684 2.57375 7.28684 2.96754C7.28684 3.34376 7.25208 3.67075 7.18951 3.95204H7.92649C7.98906 4.21574 8.02383 4.54274 8.02383 4.93653C8.02383 5.3233 7.98906 5.65381 7.92649 5.93509ZM5.96584 9.88714C5.89979 9.60585 5.8685 9.27886 5.8685 8.90264C5.8685 8.50181 5.89979 8.16779 5.96584 7.90408C5.89979 7.6228 5.8685 7.29581 5.8685 6.91959C5.8685 6.52579 5.89979 6.1988 5.96584 5.93509C5.89979 5.65381 5.8685 5.3233 5.8685 4.93653C5.8685 4.54274 5.89979 4.21574 5.96584 3.95204H5.22885C5.1628 3.67075 5.13152 3.34376 5.13152 2.96754C5.13152 2.57375 5.1628 2.24675 5.22885 1.98305H2.79542C2.85799 2.24675 2.89276 2.57375 2.89276 2.96754C2.89276 3.34376 2.85799 3.67075 2.79542 3.95204H2.05844C2.12101 4.21574 2.15577 4.54274 2.15577 4.93653C2.15577 5.3233 2.12101 5.65381 2.05844 5.93509C2.12101 6.1988 2.15577 6.52579 2.15577 6.91959C2.15577 7.29581 2.12101 7.6228 2.05844 7.90408C2.12101 8.16779 2.15577 8.50181 2.15577 8.90264C2.15577 9.27886 2.12101 9.60585 2.05844 9.88714H2.79542C2.85799 10.1508 2.89276 10.4778 2.89276 10.8716C2.89276 11.2584 2.85799 11.5854 2.79542 11.8561H5.22885C5.1628 11.5854 5.13152 11.2584 5.13152 10.8716C5.13152 10.4778 5.1628 10.1508 5.22885 9.88714H5.96584Z" fill="var(--fill-0, #F1F9EE)"/>
</g>
</svg>
